<svg width="1280" height="372" viewBox="0 0 1280 372" fill="none" xmlns="http://www.w3.org/2000/svg">
<mask id="mask0_1756_390" style="mask-type:alpha" maskUnits="userSpaceOnUse" x="-15" y="0" width="1324" height="609">
<rect width="1323" height="303" transform="translate(-14.6855 0.230469)" fill="url(#paint0_angular_1756_390)" fill-opacity="0.15"/>
<rect x="-13.3425" y="0.230469" width="34.8553" height="34.8553" fill="#D9D9D9"/>
<rect x="22.8556" y="0.230469" width="34.8553" height="34.8553" fill="#D9D9D9"/>
<rect x="59.0538" y="0.230469" width="34.8553" height="34.8553" fill="#D9D9D9"/>
<rect x="95.2521" y="0.230469" width="34.8553" height="34.8553" fill="#D9D9D9"/>
<rect x="131.45" y="0.230469" width="34.8553" height="34.8553" fill="#D9D9D9"/>
<rect x="167.649" y="0.230469" width="34.8553" height="34.8553" fill="#D9D9D9"/>
<rect x="203.847" y="0.230469" width="34.8553" height="34.8553" fill="#D9D9D9"/>
<rect x="240.045" y="0.230469" width="34.8553" height="34.8553" fill="#D9D9D9"/>
<rect x="276.243" y="0.230469" width="34.8553" height="34.8553" fill="#D9D9D9"/>
<rect x="312.442" y="0.230469" width="34.8553" height="34.8553" fill="#D9D9D9"/>
<rect x="348.64" y="0.230469" width="34.8553" height="34.8553" fill="#D9D9D9"/>
<rect x="384.838" y="0.230469" width="34.8553" height="34.8553" fill="#D9D9D9"/>
<rect x="421.036" y="0.230469" width="34.8553" height="34.8553" fill="#D9D9D9"/>
<rect x="457.235" y="0.230469" width="34.8553" height="34.8553" fill="#D9D9D9"/>
<rect x="493.433" y="0.230469" width="34.8553" height="34.8553" fill="#D9D9D9"/>
<rect x="529.631" y="0.230469" width="34.8553" height="34.8553" fill="#D9D9D9"/>
<rect x="565.829" y="0.230469" width="34.8553" height="34.8553" fill="#D9D9D9"/>
<rect x="602.028" y="0.230469" width="34.8553" height="34.8553" fill="#D9D9D9"/>
<rect x="638.226" y="0.230469" width="34.8553" height="34.8553" fill="#D9D9D9"/>
<rect x="674.424" y="0.230469" width="34.8553" height="34.8553" fill="#D9D9D9"/>
<rect x="710.622" y="0.230469" width="34.8553" height="34.8553" fill="#D9D9D9"/>
<rect x="746.821" y="0.230469" width="34.8553" height="34.8553" fill="#D9D9D9"/>
<rect x="783.019" y="0.230469" width="34.8553" height="34.8553" fill="#D9D9D9"/>
<rect x="819.217" y="0.230469" width="34.8553" height="34.8553" fill="#D9D9D9"/>
<rect x="855.415" y="0.230469" width="34.8553" height="34.8553" fill="#D9D9D9"/>
<rect x="891.614" y="0.230469" width="34.8553" height="34.8553" fill="#D9D9D9"/>
<rect x="927.812" y="0.230469" width="34.8553" height="34.8553" fill="#D9D9D9"/>
<rect x="964.01" y="0.230469" width="34.8553" height="34.8553" fill="#D9D9D9"/>
<rect x="1000.21" y="0.230469" width="34.8553" height="34.8553" fill="#D9D9D9"/>
<rect x="1036.41" y="0.230469" width="34.8553" height="34.8553" fill="#D9D9D9"/>
<rect x="1072.6" y="0.230469" width="34.8553" height="34.8553" fill="#D9D9D9"/>
<rect x="1108.8" y="0.230469" width="34.8553" height="34.8553" fill="#D9D9D9"/>
<rect x="1145" y="0.230469" width="34.8553" height="34.8553" fill="#D9D9D9"/>
<rect x="1181.2" y="0.230469" width="34.8553" height="34.8553" fill="#D9D9D9"/>
<rect x="1217.4" y="0.230469" width="34.8553" height="34.8553" fill="#D9D9D9"/>
<rect x="1253.6" y="0.230469" width="34.8553" height="34.8553" fill="#D9D9D9"/>
<rect x="-13.3428" y="36.0858" width="34.8553" height="34.8553" fill="#D9D9D9"/>
<rect x="22.8556" y="36.0858" width="34.8553" height="34.8553" fill="#D9D9D9"/>
<rect x="59.0538" y="36.0858" width="34.8553" height="34.8553" fill="#D9D9D9"/>
<rect x="95.2521" y="36.0858" width="34.8553" height="34.8553" fill="#D9D9D9"/>
<rect x="131.45" y="36.0858" width="34.8553" height="34.8553" fill="#D9D9D9"/>
<rect x="167.649" y="36.0858" width="34.8553" height="34.8553" fill="#D9D9D9"/>
<rect x="203.847" y="36.0858" width="34.8553" height="34.8553" fill="#D9D9D9"/>
<rect x="240.045" y="36.0858" width="34.8553" height="34.8553" fill="#D9D9D9"/>
<rect x="276.243" y="36.0858" width="34.8553" height="34.8553" fill="#D9D9D9"/>
<rect x="312.442" y="36.0858" width="34.8553" height="34.8553" fill="#D9D9D9"/>
<rect x="348.64" y="36.0858" width="34.8553" height="34.8553" fill="#D9D9D9"/>
<rect x="384.838" y="36.0858" width="34.8553" height="34.8553" fill="#D9D9D9"/>
<rect x="421.036" y="36.0858" width="34.8553" height="34.8553" fill="#D9D9D9"/>
<rect x="457.235" y="36.0858" width="34.8553" height="34.8553" fill="#D9D9D9"/>
<rect x="493.433" y="36.0858" width="34.8553" height="34.8553" fill="#D9D9D9"/>
<rect x="529.631" y="36.0858" width="34.8553" height="34.8553" fill="#D9D9D9"/>
<rect x="565.829" y="36.0858" width="34.8553" height="34.8553" fill="#D9D9D9"/>
<rect x="602.028" y="36.0858" width="34.8553" height="34.8553" fill="#D9D9D9"/>
<rect x="638.226" y="36.0858" width="34.8553" height="34.8553" fill="#D9D9D9"/>
<rect x="674.424" y="36.0858" width="34.8553" height="34.8553" fill="#D9D9D9"/>
<rect x="710.622" y="36.0858" width="34.8553" height="34.8553" fill="#D9D9D9"/>
<rect x="746.821" y="36.0858" width="34.8553" height="34.8553" fill="#D9D9D9"/>
<rect x="783.019" y="36.0858" width="34.8553" height="34.8553" fill="#D9D9D9"/>
<rect x="819.217" y="36.0858" width="34.8553" height="34.8553" fill="#D9D9D9"/>
<rect x="855.415" y="36.0858" width="34.8553" height="34.8553" fill="#D9D9D9"/>
<rect x="891.614" y="36.0858" width="34.8553" height="34.8553" fill="#D9D9D9"/>
<rect x="927.812" y="36.0858" width="34.8553" height="34.8553" fill="#D9D9D9"/>
<rect x="964.01" y="36.0858" width="34.8553" height="34.8553" fill="#D9D9D9"/>
<rect x="1000.21" y="36.0858" width="34.8553" height="34.8553" fill="#D9D9D9"/>
<rect x="1036.41" y="36.0858" width="34.8553" height="34.8553" fill="#D9D9D9"/>
<rect x="1072.6" y="36.0858" width="34.8553" height="34.8553" fill="#D9D9D9"/>
<rect x="1108.8" y="36.0858" width="34.8553" height="34.8553" fill="#D9D9D9"/>
<rect x="1145" y="36.0858" width="34.8553" height="34.8553" fill="#D9D9D9"/>
<rect x="1181.2" y="36.0858" width="34.8553" height="34.8553" fill="#D9D9D9"/>
<rect x="1217.4" y="36.0858" width="34.8553" height="34.8553" fill="#D9D9D9"/>
<rect x="1253.6" y="36.0858" width="34.8553" height="34.8553" fill="#D9D9D9"/>
<rect x="-13.3428" y="71.941" width="34.8553" height="34.8553" fill="#D9D9D9"/>
<rect x="22.8556" y="71.941" width="34.8553" height="34.8553" fill="#D9D9D9"/>
<rect x="59.0538" y="71.941" width="34.8553" height="34.8553" fill="#D9D9D9"/>
<rect x="95.2521" y="71.941" width="34.8553" height="34.8553" fill="#D9D9D9"/>
<rect x="131.45" y="71.941" width="34.8553" height="34.8553" fill="#D9D9D9"/>
<rect x="167.649" y="71.941" width="34.8553" height="34.8553" fill="#D9D9D9"/>
<rect x="203.847" y="71.941" width="34.8553" height="34.8553" fill="#D9D9D9"/>
<rect x="240.045" y="71.941" width="34.8553" height="34.8553" fill="#D9D9D9"/>
<rect x="276.243" y="71.941" width="34.8553" height="34.8553" fill="#D9D9D9"/>
<rect x="312.442" y="71.941" width="34.8553" height="34.8553" fill="#D9D9D9"/>
<rect x="348.64" y="71.941" width="34.8553" height="34.8553" fill="#D9D9D9"/>
<rect x="384.838" y="71.941" width="34.8553" height="34.8553" fill="#D9D9D9"/>
<rect x="421.036" y="71.941" width="34.8553" height="34.8553" fill="#D9D9D9"/>
<rect x="457.235" y="71.941" width="34.8553" height="34.8553" fill="#D9D9D9"/>
<rect x="493.433" y="71.941" width="34.8553" height="34.8553" fill="#D9D9D9"/>
<rect x="529.631" y="71.941" width="34.8553" height="34.8553" fill="#D9D9D9"/>
<rect x="565.829" y="71.941" width="34.8553" height="34.8553" fill="#D9D9D9"/>
<rect x="602.028" y="71.941" width="34.8553" height="34.8553" fill="#D9D9D9"/>
<rect x="638.226" y="71.941" width="34.8553" height="34.8553" fill="#D9D9D9"/>
<rect x="674.424" y="71.941" width="34.8553" height="34.8553" fill="#D9D9D9"/>
<rect x="710.622" y="71.941" width="34.8553" height="34.8553" fill="#D9D9D9"/>
<rect x="746.821" y="71.941" width="34.8553" height="34.8553" fill="#D9D9D9"/>
<rect x="783.019" y="71.941" width="34.8553" height="34.8553" fill="#D9D9D9"/>
<rect x="819.217" y="71.941" width="34.8553" height="34.8553" fill="#D9D9D9"/>
<rect x="855.415" y="71.941" width="34.8553" height="34.8553" fill="#D9D9D9"/>
<rect x="891.614" y="71.941" width="34.8553" height="34.8553" fill="#D9D9D9"/>
<rect x="927.812" y="71.941" width="34.8553" height="34.8553" fill="#D9D9D9"/>
<rect x="964.01" y="71.941" width="34.8553" height="34.8553" fill="#D9D9D9"/>
<rect x="1000.21" y="71.941" width="34.8553" height="34.8553" fill="#D9D9D9"/>
<rect x="1036.41" y="71.941" width="34.8553" height="34.8553" fill="#D9D9D9"/>
<rect x="1072.6" y="71.941" width="34.8553" height="34.8553" fill="#D9D9D9"/>
<rect x="1108.8" y="71.941" width="34.8553" height="34.8553" fill="#D9D9D9"/>
<rect x="1145" y="71.941" width="34.8553" height="34.8553" fill="#D9D9D9"/>
<rect x="1181.2" y="71.941" width="34.8553" height="34.8553" fill="#D9D9D9"/>
<rect x="1217.4" y="71.941" width="34.8553" height="34.8553" fill="#D9D9D9"/>
<rect x="1253.6" y="71.941" width="34.8553" height="34.8553" fill="#D9D9D9"/>
<rect x="-13.3428" y="107.796" width="34.8553" height="34.8553" fill="#D9D9D9"/>
<rect x="22.8556" y="107.796" width="34.8553" height="34.8553" fill="#D9D9D9"/>
<rect x="59.0538" y="107.796" width="34.8553" height="34.8553" fill="#D9D9D9"/>
<rect x="95.2521" y="107.796" width="34.8553" height="34.8553" fill="#D9D9D9"/>
<rect x="131.45" y="107.796" width="34.8553" height="34.8553" fill="#D9D9D9"/>
<rect x="167.649" y="107.796" width="34.8553" height="34.8553" fill="#D9D9D9"/>
<rect x="203.847" y="107.796" width="34.8553" height="34.8553" fill="#D9D9D9"/>
<rect x="240.045" y="107.796" width="34.8553" height="34.8553" fill="#D9D9D9"/>
<rect x="276.243" y="107.796" width="34.8553" height="34.8553" fill="#D9D9D9"/>
<rect x="312.442" y="107.796" width="34.8553" height="34.8553" fill="#D9D9D9"/>
<rect x="348.64" y="107.796" width="34.8553" height="34.8553" fill="#D9D9D9"/>
<rect x="384.838" y="107.796" width="34.8553" height="34.8553" fill="#D9D9D9"/>
<rect x="421.036" y="107.796" width="34.8553" height="34.8553" fill="#D9D9D9"/>
<rect x="457.235" y="107.796" width="34.8553" height="34.8553" fill="#D9D9D9"/>
<rect x="493.433" y="107.796" width="34.8553" height="34.8553" fill="#D9D9D9"/>
<rect x="529.631" y="107.796" width="34.8553" height="34.8553" fill="#D9D9D9"/>
<rect x="565.829" y="107.796" width="34.8553" height="34.8553" fill="#D9D9D9"/>
<rect x="602.028" y="107.796" width="34.8553" height="34.8553" fill="#D9D9D9"/>
<rect x="638.226" y="107.796" width="34.8553" height="34.8553" fill="#D9D9D9"/>
<rect x="674.424" y="107.796" width="34.8553" height="34.8553" fill="#D9D9D9"/>
<rect x="710.622" y="107.796" width="34.8553" height="34.8553" fill="#D9D9D9"/>
<rect x="746.821" y="107.796" width="34.8553" height="34.8553" fill="#D9D9D9"/>
<rect x="783.019" y="107.796" width="34.8553" height="34.8553" fill="#D9D9D9"/>
<rect x="819.217" y="107.796" width="34.8553" height="34.8553" fill="#D9D9D9"/>
<rect x="855.415" y="107.796" width="34.8553" height="34.8553" fill="#D9D9D9"/>
<rect x="891.614" y="107.796" width="34.8553" height="34.8553" fill="#D9D9D9"/>
<rect x="927.812" y="107.796" width="34.8553" height="34.8553" fill="#D9D9D9"/>
<rect x="964.01" y="107.796" width="34.8553" height="34.8553" fill="#D9D9D9"/>
<rect x="1000.21" y="107.796" width="34.8553" height="34.8553" fill="#D9D9D9"/>
<rect x="1036.41" y="107.796" width="34.8553" height="34.8553" fill="#D9D9D9"/>
<rect x="1072.6" y="107.796" width="34.8553" height="34.8553" fill="#D9D9D9"/>
<rect x="1108.8" y="107.796" width="34.8553" height="34.8553" fill="#D9D9D9"/>
<rect x="1145" y="107.796" width="34.8553" height="34.8553" fill="#D9D9D9"/>
<rect x="1181.2" y="107.796" width="34.8553" height="34.8553" fill="#D9D9D9"/>
<rect x="1217.4" y="107.796" width="34.8553" height="34.8553" fill="#D9D9D9"/>
<rect x="1253.6" y="107.796" width="34.8553" height="34.8553" fill="#D9D9D9"/>
<rect x="-13.3428" y="143.652" width="34.8553" height="34.8553" fill="#D9D9D9"/>
<rect x="22.8556" y="143.652" width="34.8553" height="34.8553" fill="#D9D9D9"/>
<rect x="59.0538" y="143.652" width="34.8553" height="34.8553" fill="#D9D9D9"/>
<rect x="95.2521" y="143.652" width="34.8553" height="34.8553" fill="#D9D9D9"/>
<rect x="131.45" y="143.652" width="34.8553" height="34.8553" fill="#D9D9D9"/>
<rect x="167.649" y="143.652" width="34.8553" height="34.8553" fill="#D9D9D9"/>
<rect x="203.847" y="143.652" width="34.8553" height="34.8553" fill="#D9D9D9"/>
<rect x="240.045" y="143.652" width="34.8553" height="34.8553" fill="#D9D9D9"/>
<rect x="276.243" y="143.652" width="34.8553" height="34.8553" fill="#D9D9D9"/>
<rect x="312.442" y="143.652" width="34.8553" height="34.8553" fill="#D9D9D9"/>
<rect x="348.64" y="143.652" width="34.8553" height="34.8553" fill="#D9D9D9"/>
<rect x="384.838" y="143.652" width="34.8553" height="34.8553" fill="#D9D9D9"/>
<rect x="421.036" y="143.652" width="34.8553" height="34.8553" fill="#D9D9D9"/>
<rect x="457.235" y="143.652" width="34.8553" height="34.8553" fill="#D9D9D9"/>
<rect x="493.433" y="143.652" width="34.8553" height="34.8553" fill="#D9D9D9"/>
<rect x="529.631" y="143.652" width="34.8553" height="34.8553" fill="#D9D9D9"/>
<rect x="565.829" y="143.652" width="34.8553" height="34.8553" fill="#D9D9D9"/>
<rect x="602.028" y="143.652" width="34.8553" height="34.8553" fill="#D9D9D9"/>
<rect x="638.226" y="143.652" width="34.8553" height="34.8553" fill="#D9D9D9"/>
<rect x="674.424" y="143.652" width="34.8553" height="34.8553" fill="#D9D9D9"/>
<rect x="710.622" y="143.652" width="34.8553" height="34.8553" fill="#D9D9D9"/>
<rect x="746.821" y="143.652" width="34.8553" height="34.8553" fill="#D9D9D9"/>
<rect x="783.019" y="143.652" width="34.8553" height="34.8553" fill="#D9D9D9"/>
<rect x="819.217" y="143.652" width="34.8553" height="34.8553" fill="#D9D9D9"/>
<rect x="855.415" y="143.652" width="34.8553" height="34.8553" fill="#D9D9D9"/>
<rect x="891.614" y="143.652" width="34.8553" height="34.8553" fill="#D9D9D9"/>
<rect x="927.812" y="143.652" width="34.8553" height="34.8553" fill="#D9D9D9"/>
<rect x="964.01" y="143.652" width="34.8553" height="34.8553" fill="#D9D9D9"/>
<rect x="1000.21" y="143.652" width="34.8553" height="34.8553" fill="#D9D9D9"/>
<rect x="1036.41" y="143.652" width="34.8553" height="34.8553" fill="#D9D9D9"/>
<rect x="1072.6" y="143.652" width="34.8553" height="34.8553" fill="#D9D9D9"/>
<rect x="1108.8" y="143.652" width="34.8553" height="34.8553" fill="#D9D9D9"/>
<rect x="1145" y="143.652" width="34.8553" height="34.8553" fill="#D9D9D9"/>
<rect x="1181.2" y="143.652" width="34.8553" height="34.8553" fill="#D9D9D9"/>
<rect x="1217.4" y="143.652" width="34.8553" height="34.8553" fill="#D9D9D9"/>
<rect x="1253.6" y="143.652" width="34.8553" height="34.8553" fill="#D9D9D9"/>
<rect x="-13.3428" y="179.507" width="34.8553" height="34.8553" fill="#D9D9D9"/>
<rect x="22.8556" y="179.507" width="34.8553" height="34.8553" fill="#D9D9D9"/>
<rect x="59.0538" y="179.507" width="34.8553" height="34.8553" fill="#D9D9D9"/>
<rect x="95.2521" y="179.507" width="34.8553" height="34.8553" fill="#D9D9D9"/>
<rect x="131.45" y="179.507" width="34.8553" height="34.8553" fill="#D9D9D9"/>
<rect x="167.649" y="179.507" width="34.8553" height="34.8553" fill="#D9D9D9"/>
<rect x="203.847" y="179.507" width="34.8553" height="34.8553" fill="#D9D9D9"/>
<rect x="240.045" y="179.507" width="34.8553" height="34.8553" fill="#D9D9D9"/>
<rect x="276.243" y="179.507" width="34.8553" height="34.8553" fill="#D9D9D9"/>
<rect x="312.442" y="179.507" width="34.8553" height="34.8553" fill="#D9D9D9"/>
<rect x="348.64" y="179.507" width="34.8553" height="34.8553" fill="#D9D9D9"/>
<rect x="384.838" y="179.507" width="34.8553" height="34.8553" fill="#D9D9D9"/>
<rect x="421.036" y="179.507" width="34.8553" height="34.8553" fill="#D9D9D9"/>
<rect x="457.235" y="179.507" width="34.8553" height="34.8553" fill="#D9D9D9"/>
<rect x="493.433" y="179.507" width="34.8553" height="34.8553" fill="#D9D9D9"/>
<rect x="529.631" y="179.507" width="34.8553" height="34.8553" fill="#D9D9D9"/>
<rect x="565.829" y="179.507" width="34.8553" height="34.8553" fill="#D9D9D9"/>
<rect x="602.028" y="179.507" width="34.8553" height="34.8553" fill="#D9D9D9"/>
<rect x="638.226" y="179.507" width="34.8553" height="34.8553" fill="#D9D9D9"/>
<rect x="674.424" y="179.507" width="34.8553" height="34.8553" fill="#D9D9D9"/>
<rect x="710.622" y="179.507" width="34.8553" height="34.8553" fill="#D9D9D9"/>
<rect x="746.821" y="179.507" width="34.8553" height="34.8553" fill="#D9D9D9"/>
<rect x="783.019" y="179.507" width="34.8553" height="34.8553" fill="#D9D9D9"/>
<rect x="819.217" y="179.507" width="34.8553" height="34.8553" fill="#D9D9D9"/>
<rect x="855.415" y="179.507" width="34.8553" height="34.8553" fill="#D9D9D9"/>
<rect x="891.614" y="179.507" width="34.8553" height="34.8553" fill="#D9D9D9"/>
<rect x="927.812" y="179.507" width="34.8553" height="34.8553" fill="#D9D9D9"/>
<rect x="964.01" y="179.507" width="34.8553" height="34.8553" fill="#D9D9D9"/>
<rect x="1000.21" y="179.507" width="34.8553" height="34.8553" fill="#D9D9D9"/>
<rect x="1036.41" y="179.507" width="34.8553" height="34.8553" fill="#D9D9D9"/>
<rect x="1072.6" y="179.507" width="34.8553" height="34.8553" fill="#D9D9D9"/>
<rect x="1108.8" y="179.507" width="34.8553" height="34.8553" fill="#D9D9D9"/>
<rect x="1145" y="179.507" width="34.8553" height="34.8553" fill="#D9D9D9"/>
<rect x="1181.2" y="179.507" width="34.8553" height="34.8553" fill="#D9D9D9"/>
<rect x="1217.4" y="179.507" width="34.8553" height="34.8553" fill="#D9D9D9"/>
<rect x="1253.6" y="179.507" width="34.8553" height="34.8553" fill="#D9D9D9"/>
<rect x="-13.3428" y="215.362" width="34.8553" height="34.8553" fill="#D9D9D9"/>
<rect x="22.8556" y="215.362" width="34.8553" height="34.8553" fill="#D9D9D9"/>
<rect x="59.0538" y="215.362" width="34.8553" height="34.8553" fill="#D9D9D9"/>
<rect x="95.2521" y="215.362" width="34.8553" height="34.8553" fill="#D9D9D9"/>
<rect x="131.45" y="215.362" width="34.8553" height="34.8553" fill="#D9D9D9"/>
<rect x="167.649" y="215.362" width="34.8553" height="34.8553" fill="#D9D9D9"/>
<rect x="203.847" y="215.362" width="34.8553" height="34.8553" fill="#D9D9D9"/>
<rect x="240.045" y="215.362" width="34.8553" height="34.8553" fill="#D9D9D9"/>
<rect x="276.243" y="215.362" width="34.8553" height="34.8553" fill="#D9D9D9"/>
<rect x="312.442" y="215.362" width="34.8553" height="34.8553" fill="#D9D9D9"/>
<rect x="348.64" y="215.362" width="34.8553" height="34.8553" fill="#D9D9D9"/>
<rect x="384.838" y="215.362" width="34.8553" height="34.8553" fill="#D9D9D9"/>
<rect x="421.036" y="215.362" width="34.8553" height="34.8553" fill="#D9D9D9"/>
<rect x="457.235" y="215.362" width="34.8553" height="34.8553" fill="#D9D9D9"/>
<rect x="493.433" y="215.362" width="34.8553" height="34.8553" fill="#D9D9D9"/>
<rect x="529.631" y="215.362" width="34.8553" height="34.8553" fill="#D9D9D9"/>
<rect x="565.829" y="215.362" width="34.8553" height="34.8553" fill="#D9D9D9"/>
<rect x="602.028" y="215.362" width="34.8553" height="34.8553" fill="#D9D9D9"/>
<rect x="638.226" y="215.362" width="34.8553" height="34.8553" fill="#D9D9D9"/>
<rect x="674.424" y="215.362" width="34.8553" height="34.8553" fill="#D9D9D9"/>
<rect x="710.622" y="215.362" width="34.8553" height="34.8553" fill="#D9D9D9"/>
<rect x="746.821" y="215.362" width="34.8553" height="34.8553" fill="#D9D9D9"/>
<rect x="783.019" y="215.362" width="34.8553" height="34.8553" fill="#D9D9D9"/>
<rect x="819.217" y="215.362" width="34.8553" height="34.8553" fill="#D9D9D9"/>
<rect x="855.415" y="215.362" width="34.8553" height="34.8553" fill="#D9D9D9"/>
<rect x="891.614" y="215.362" width="34.8553" height="34.8553" fill="#D9D9D9"/>
<rect x="927.812" y="215.362" width="34.8553" height="34.8553" fill="#D9D9D9"/>
<rect x="964.01" y="215.362" width="34.8553" height="34.8553" fill="#D9D9D9"/>
<rect x="1000.21" y="215.362" width="34.8553" height="34.8553" fill="#D9D9D9"/>
<rect x="1036.41" y="215.362" width="34.8553" height="34.8553" fill="#D9D9D9"/>
<rect x="1072.6" y="215.362" width="34.8553" height="34.8553" fill="#D9D9D9"/>
<rect x="1108.8" y="215.362" width="34.8553" height="34.8553" fill="#D9D9D9"/>
<rect x="1145" y="215.362" width="34.8553" height="34.8553" fill="#D9D9D9"/>
<rect x="1181.2" y="215.362" width="34.8553" height="34.8553" fill="#D9D9D9"/>
<rect x="1217.4" y="215.362" width="34.8553" height="34.8553" fill="#D9D9D9"/>
<rect x="1253.6" y="215.362" width="34.8553" height="34.8553" fill="#D9D9D9"/>
<rect x="-13.3428" y="251.218" width="34.8553" height="34.8553" fill="#D9D9D9"/>
<rect x="22.8556" y="251.218" width="34.8553" height="34.8553" fill="#D9D9D9"/>
<rect x="59.0538" y="251.218" width="34.8553" height="34.8553" fill="#D9D9D9"/>
<rect x="95.2521" y="251.218" width="34.8553" height="34.8553" fill="#D9D9D9"/>
<rect x="131.45" y="251.218" width="34.8553" height="34.8553" fill="#D9D9D9"/>
<rect x="167.649" y="251.218" width="34.8553" height="34.8553" fill="#D9D9D9"/>
<rect x="203.847" y="251.218" width="34.8553" height="34.8553" fill="#D9D9D9"/>
<rect x="240.045" y="251.218" width="34.8553" height="34.8553" fill="#D9D9D9"/>
<rect x="276.243" y="251.218" width="34.8553" height="34.8553" fill="#D9D9D9"/>
<rect x="312.442" y="251.218" width="34.8553" height="34.8553" fill="#D9D9D9"/>
<rect x="348.64" y="251.218" width="34.8553" height="34.8553" fill="#D9D9D9"/>
<rect x="384.838" y="251.218" width="34.8553" height="34.8553" fill="#D9D9D9"/>
<rect x="421.036" y="251.218" width="34.8553" height="34.8553" fill="#D9D9D9"/>
<rect x="457.235" y="251.218" width="34.8553" height="34.8553" fill="#D9D9D9"/>
<rect x="493.433" y="251.218" width="34.8553" height="34.8553" fill="#D9D9D9"/>
<rect x="529.631" y="251.218" width="34.8553" height="34.8553" fill="#D9D9D9"/>
<rect x="565.829" y="251.218" width="34.8553" height="34.8553" fill="#D9D9D9"/>
<rect x="602.028" y="251.218" width="34.8553" height="34.8553" fill="#D9D9D9"/>
<rect x="638.226" y="251.218" width="34.8553" height="34.8553" fill="#D9D9D9"/>
<rect x="674.424" y="251.218" width="34.8553" height="34.8553" fill="#D9D9D9"/>
<rect x="710.622" y="251.218" width="34.8553" height="34.8553" fill="#D9D9D9"/>
<rect x="746.821" y="251.218" width="34.8553" height="34.8553" fill="#D9D9D9"/>
<rect x="783.019" y="251.218" width="34.8553" height="34.8553" fill="#D9D9D9"/>
<rect x="819.217" y="251.218" width="34.8553" height="34.8553" fill="#D9D9D9"/>
<rect x="855.415" y="251.218" width="34.8553" height="34.8553" fill="#D9D9D9"/>
<rect x="891.614" y="251.218" width="34.8553" height="34.8553" fill="#D9D9D9"/>
<rect x="927.812" y="251.218" width="34.8553" height="34.8553" fill="#D9D9D9"/>
<rect x="964.01" y="251.218" width="34.8553" height="34.8553" fill="#D9D9D9"/>
<rect x="1000.21" y="251.218" width="34.8553" height="34.8553" fill="#D9D9D9"/>
<rect x="1036.41" y="251.218" width="34.8553" height="34.8553" fill="#D9D9D9"/>
<rect x="1072.6" y="251.218" width="34.8553" height="34.8553" fill="#D9D9D9"/>
<rect x="1108.8" y="251.218" width="34.8553" height="34.8553" fill="#D9D9D9"/>
<rect x="1145" y="251.218" width="34.8553" height="34.8553" fill="#D9D9D9"/>
<rect x="1181.2" y="251.218" width="34.8553" height="34.8553" fill="#D9D9D9"/>
<rect x="1217.4" y="251.218" width="34.8553" height="34.8553" fill="#D9D9D9"/>
<rect x="1253.6" y="251.218" width="34.8553" height="34.8553" fill="#D9D9D9"/>
<rect x="-13.3428" y="287.073" width="34.8553" height="34.8553" fill="#D9D9D9"/>
<rect x="22.8556" y="287.073" width="34.8553" height="34.8553" fill="#D9D9D9"/>
<rect x="59.0538" y="287.073" width="34.8553" height="34.8553" fill="#D9D9D9"/>
<rect x="95.2521" y="287.073" width="34.8553" height="34.8553" fill="#D9D9D9"/>
<rect x="131.45" y="287.073" width="34.8553" height="34.8553" fill="#D9D9D9"/>
<rect x="167.649" y="287.073" width="34.8553" height="34.8553" fill="#D9D9D9"/>
<rect x="203.847" y="287.073" width="34.8553" height="34.8553" fill="#D9D9D9"/>
<rect x="240.045" y="287.073" width="34.8553" height="34.8553" fill="#D9D9D9"/>
<rect x="276.243" y="287.073" width="34.8553" height="34.8553" fill="#D9D9D9"/>
<rect x="312.442" y="287.073" width="34.8553" height="34.8553" fill="#D9D9D9"/>
<rect x="348.64" y="287.073" width="34.8553" height="34.8553" fill="#D9D9D9"/>
<rect x="384.838" y="287.073" width="34.8553" height="34.8553" fill="#D9D9D9"/>
<rect x="421.036" y="287.073" width="34.8553" height="34.8553" fill="#D9D9D9"/>
<rect x="457.235" y="287.073" width="34.8553" height="34.8553" fill="#D9D9D9"/>
<rect x="493.433" y="287.073" width="34.8553" height="34.8553" fill="#D9D9D9"/>
<rect x="529.631" y="287.073" width="34.8553" height="34.8553" fill="#D9D9D9"/>
<rect x="565.829" y="287.073" width="34.8553" height="34.8553" fill="#D9D9D9"/>
<rect x="602.028" y="287.073" width="34.8553" height="34.8553" fill="#D9D9D9"/>
<rect x="638.226" y="287.073" width="34.8553" height="34.8553" fill="#D9D9D9"/>
<rect x="674.424" y="287.073" width="34.8553" height="34.8553" fill="#D9D9D9"/>
<rect x="710.622" y="287.073" width="34.8553" height="34.8553" fill="#D9D9D9"/>
<rect x="746.821" y="287.073" width="34.8553" height="34.8553" fill="#D9D9D9"/>
<rect x="783.019" y="287.073" width="34.8553" height="34.8553" fill="#D9D9D9"/>
<rect x="819.217" y="287.073" width="34.8553" height="34.8553" fill="#D9D9D9"/>
<rect x="855.415" y="287.073" width="34.8553" height="34.8553" fill="#D9D9D9"/>
<rect x="891.614" y="287.073" width="34.8553" height="34.8553" fill="#D9D9D9"/>
<rect x="927.812" y="287.073" width="34.8553" height="34.8553" fill="#D9D9D9"/>
<rect x="964.01" y="287.073" width="34.8553" height="34.8553" fill="#D9D9D9"/>
<rect x="1000.21" y="287.073" width="34.8553" height="34.8553" fill="#D9D9D9"/>
<rect x="1036.41" y="287.073" width="34.8553" height="34.8553" fill="#D9D9D9"/>
<rect x="1072.6" y="287.073" width="34.8553" height="34.8553" fill="#D9D9D9"/>
<rect x="1108.8" y="287.073" width="34.8553" height="34.8553" fill="#D9D9D9"/>
<rect x="1145" y="287.073" width="34.8553" height="34.8553" fill="#D9D9D9"/>
<rect x="1181.2" y="287.073" width="34.8553" height="34.8553" fill="#D9D9D9"/>
<rect x="1217.4" y="287.073" width="34.8553" height="34.8553" fill="#D9D9D9"/>
<rect x="1253.6" y="287.073" width="34.8553" height="34.8553" fill="#D9D9D9"/>
<rect x="-13.3428" y="322.928" width="34.8553" height="34.8553" fill="#D9D9D9"/>
<rect x="22.8556" y="322.928" width="34.8553" height="34.8553" fill="#D9D9D9"/>
<rect x="59.0538" y="322.928" width="34.8553" height="34.8553" fill="#D9D9D9"/>
<rect x="95.2521" y="322.928" width="34.8553" height="34.8553" fill="#D9D9D9"/>
<rect x="131.45" y="322.928" width="34.8553" height="34.8553" fill="#D9D9D9"/>
<rect x="167.649" y="322.928" width="34.8553" height="34.8553" fill="#D9D9D9"/>
<rect x="203.847" y="322.928" width="34.8553" height="34.8553" fill="#D9D9D9"/>
<rect x="240.045" y="322.928" width="34.8553" height="34.8553" fill="#D9D9D9"/>
<rect x="276.243" y="322.928" width="34.8553" height="34.8553" fill="#D9D9D9"/>
<rect x="312.442" y="322.928" width="34.8553" height="34.8553" fill="#D9D9D9"/>
<rect x="348.64" y="322.928" width="34.8553" height="34.8553" fill="#D9D9D9"/>
<rect x="384.838" y="322.928" width="34.8553" height="34.8553" fill="#D9D9D9"/>
<rect x="421.036" y="322.928" width="34.8553" height="34.8553" fill="#D9D9D9"/>
<rect x="457.235" y="322.928" width="34.8553" height="34.8553" fill="#D9D9D9"/>
<rect x="493.433" y="322.928" width="34.8553" height="34.8553" fill="#D9D9D9"/>
<rect x="529.631" y="322.928" width="34.8553" height="34.8553" fill="#D9D9D9"/>
<rect x="565.829" y="322.928" width="34.8553" height="34.8553" fill="#D9D9D9"/>
<rect x="602.028" y="322.928" width="34.8553" height="34.8553" fill="#D9D9D9"/>
<rect x="638.226" y="322.928" width="34.8553" height="34.8553" fill="#D9D9D9"/>
<rect x="674.424" y="322.928" width="34.8553" height="34.8553" fill="#D9D9D9"/>
<rect x="710.622" y="322.928" width="34.8553" height="34.8553" fill="#D9D9D9"/>
<rect x="746.821" y="322.928" width="34.8553" height="34.8553" fill="#D9D9D9"/>
<rect x="783.019" y="322.928" width="34.8553" height="34.8553" fill="#D9D9D9"/>
<rect x="819.217" y="322.928" width="34.8553" height="34.8553" fill="#D9D9D9"/>
<rect x="855.415" y="322.928" width="34.8553" height="34.8553" fill="#D9D9D9"/>
<rect x="891.614" y="322.928" width="34.8553" height="34.8553" fill="#D9D9D9"/>
<rect x="927.812" y="322.928" width="34.8553" height="34.8553" fill="#D9D9D9"/>
<rect x="964.01" y="322.928" width="34.8553" height="34.8553" fill="#D9D9D9"/>
<rect x="1000.21" y="322.928" width="34.8553" height="34.8553" fill="#D9D9D9"/>
<rect x="1036.41" y="322.928" width="34.8553" height="34.8553" fill="#D9D9D9"/>
<rect x="1072.6" y="322.928" width="34.8553" height="34.8553" fill="#D9D9D9"/>
<rect x="1108.8" y="322.928" width="34.8553" height="34.8553" fill="#D9D9D9"/>
<rect x="1145" y="322.928" width="34.8553" height="34.8553" fill="#D9D9D9"/>
<rect x="1181.2" y="322.928" width="34.8553" height="34.8553" fill="#D9D9D9"/>
<rect x="1217.4" y="322.928" width="34.8553" height="34.8553" fill="#D9D9D9"/>
<rect x="1253.6" y="322.928" width="34.8553" height="34.8553" fill="#D9D9D9"/>
<rect x="-13.3428" y="358.783" width="34.8553" height="34.8553" fill="#D9D9D9"/>
<rect x="22.8556" y="358.783" width="34.8553" height="34.8553" fill="#D9D9D9"/>
<rect x="59.0538" y="358.783" width="34.8553" height="34.8553" fill="#D9D9D9"/>
<rect x="95.2521" y="358.783" width="34.8553" height="34.8553" fill="#D9D9D9"/>
<rect x="131.45" y="358.783" width="34.8553" height="34.8553" fill="#D9D9D9"/>
<rect x="167.649" y="358.783" width="34.8553" height="34.8553" fill="#D9D9D9"/>
<rect x="203.847" y="358.783" width="34.8553" height="34.8553" fill="#D9D9D9"/>
<rect x="240.045" y="358.783" width="34.8553" height="34.8553" fill="#D9D9D9"/>
<rect x="276.243" y="358.783" width="34.8553" height="34.8553" fill="#D9D9D9"/>
<rect x="312.442" y="358.783" width="34.8553" height="34.8553" fill="#D9D9D9"/>
<rect x="348.64" y="358.783" width="34.8553" height="34.8553" fill="#D9D9D9"/>
<rect x="384.838" y="358.783" width="34.8553" height="34.8553" fill="#D9D9D9"/>
<rect x="421.036" y="358.783" width="34.8553" height="34.8553" fill="#D9D9D9"/>
<rect x="457.235" y="358.783" width="34.8553" height="34.8553" fill="#D9D9D9"/>
<rect x="493.433" y="358.783" width="34.8553" height="34.8553" fill="#D9D9D9"/>
<rect x="529.631" y="358.783" width="34.8553" height="34.8553" fill="#D9D9D9"/>
<rect x="565.829" y="358.783" width="34.8553" height="34.8553" fill="#D9D9D9"/>
<rect x="602.028" y="358.783" width="34.8553" height="34.8553" fill="#D9D9D9"/>
<rect x="638.226" y="358.783" width="34.8553" height="34.8553" fill="#D9D9D9"/>
<rect x="674.424" y="358.783" width="34.8553" height="34.8553" fill="#D9D9D9"/>
<rect x="710.622" y="358.783" width="34.8553" height="34.8553" fill="#D9D9D9"/>
<rect x="746.821" y="358.783" width="34.8553" height="34.8553" fill="#D9D9D9"/>
<rect x="783.019" y="358.783" width="34.8553" height="34.8553" fill="#D9D9D9"/>
<rect x="819.217" y="358.783" width="34.8553" height="34.8553" fill="#D9D9D9"/>
<rect x="855.415" y="358.783" width="34.8553" height="34.8553" fill="#D9D9D9"/>
<rect x="891.614" y="358.783" width="34.8553" height="34.8553" fill="#D9D9D9"/>
<rect x="927.812" y="358.783" width="34.8553" height="34.8553" fill="#D9D9D9"/>
<rect x="964.01" y="358.783" width="34.8553" height="34.8553" fill="#D9D9D9"/>
<rect x="1000.21" y="358.783" width="34.8553" height="34.8553" fill="#D9D9D9"/>
<rect x="1036.41" y="358.783" width="34.8553" height="34.8553" fill="#D9D9D9"/>
<rect x="1072.6" y="358.783" width="34.8553" height="34.8553" fill="#D9D9D9"/>
<rect x="1108.8" y="358.783" width="34.8553" height="34.8553" fill="#D9D9D9"/>
<rect x="1145" y="358.783" width="34.8553" height="34.8553" fill="#D9D9D9"/>
<rect x="1181.2" y="358.783" width="34.8553" height="34.8553" fill="#D9D9D9"/>
<rect x="1217.4" y="358.783" width="34.8553" height="34.8553" fill="#D9D9D9"/>
<rect x="1253.6" y="358.783" width="34.8553" height="34.8553" fill="#D9D9D9"/>
</mask>
<g mask="url(#mask0_1756_390)">
<g filter="url(#filter0_f_1756_390)">
<ellipse cx="243.097" cy="148.132" rx="243.097" ry="148.132" transform="matrix(0.959942 0.280197 -0.931673 0.363299 785.597 29.3008)" fill="url(#paint1_angular_1756_390)" fill-opacity="0.15"/>
</g>
<g filter="url(#filter1_f_1756_390)">
<ellipse cx="297.428" cy="66.5214" rx="297.428" ry="66.5214" transform="matrix(-0.999484 -0.0321267 0.508981 -0.860777 917.085 314.551)" fill="url(#paint2_angular_1756_390)" fill-opacity="0.15"/>
</g>
<g filter="url(#filter2_f_1756_390)">
<ellipse cx="231.605" cy="123.707" rx="231.605" ry="123.707" transform="matrix(0.946134 -0.323774 0.855879 0.517176 95.3145 139.205)" fill="url(#paint3_angular_1756_390)" fill-opacity="0.15"/>
</g>
</g>
<defs>
<filter id="filter0_f_1756_390" x="497.552" y="-47.8167" width="766.787" height="398.098" filterUnits="userSpaceOnUse" color-interpolation-filters="sRGB">
<feFlood flood-opacity="0" result="BackgroundImageFix"/>
<feBlend mode="normal" in="SourceGraphic" in2="BackgroundImageFix" result="shape"/>
<feGaussianBlur stdDeviation="56.118" result="effect1_foregroundBlur_1756_390"/>
</filter>
<filter id="filter1_f_1756_390" x="288.578" y="123.807" width="730.183" height="247.857" filterUnits="userSpaceOnUse" color-interpolation-filters="sRGB">
<feFlood flood-opacity="0" result="BackgroundImageFix"/>
<feBlend mode="normal" in="SourceGraphic" in2="BackgroundImageFix" result="shape"/>
<feGaussianBlur stdDeviation="32.9339" result="effect1_foregroundBlur_1756_390"/>
</filter>
<filter id="filter2_f_1756_390" x="64.6626" y="-82.6136" width="711.319" height="421.619" filterUnits="userSpaceOnUse" color-interpolation-filters="sRGB">
<feFlood flood-opacity="0" result="BackgroundImageFix"/>
<feBlend mode="normal" in="SourceGraphic" in2="BackgroundImageFix" result="shape"/>
<feGaussianBlur stdDeviation="56.118" result="effect1_foregroundBlur_1756_390"/>
</filter>
<radialGradient id="paint0_angular_1756_390" cx="0" cy="0" r="1" gradientUnits="userSpaceOnUse" gradientTransform="translate(661.5 151.5) rotate(173.613) scale(504.829 141.467)">
<stop stop-color="#4642FF"/>
<stop offset="0.199" stop-color="#35E6F2"/>
<stop offset="0.499" stop-color="#5155F1"/>
<stop offset="0.779" stop-color="#C361FF"/>
</radialGradient>
<radialGradient id="paint1_angular_1756_390" cx="0" cy="0" r="1" gradientUnits="userSpaceOnUse" gradientTransform="translate(243.096 148.132) rotate(163.414) scale(192.373 133.395)">
<stop stop-color="#4642FF"/>
<stop offset="0.199" stop-color="#35E6F2"/>
<stop offset="0.499" stop-color="#5155F1"/>
<stop offset="0.779" stop-color="#C361FF"/>
</radialGradient>
<radialGradient id="paint2_angular_1756_390" cx="0" cy="0" r="1" gradientUnits="userSpaceOnUse" gradientTransform="translate(297.428 66.5214) rotate(173.761) scale(226.919 62.1339)">
<stop stop-color="#4642FF"/>
<stop offset="0.199" stop-color="#35E6F2"/>
<stop offset="0.499" stop-color="#5155F1"/>
<stop offset="0.779" stop-color="#C361FF"/>
</radialGradient>
<radialGradient id="paint3_angular_1756_390" cx="0" cy="0" r="1" gradientUnits="userSpaceOnUse" gradientTransform="translate(231.605 123.707) rotate(165.368) scale(181.541 112.467)">
<stop stop-color="#4642FF"/>
<stop offset="0.199" stop-color="#35E6F2"/>
<stop offset="0.499" stop-color="#5155F1"/>
<stop offset="0.779" stop-color="#C361FF"/>
</radialGradient>
</defs>
</svg>
