<svg width="134" height="131" viewBox="0 0 134 131" fill="none" xmlns="http://www.w3.org/2000/svg">
<ellipse cx="83.4303" cy="43.7033" rx="9.46707" ry="9.0148" transform="rotate(37.699 83.4303 43.7033)" fill="#3C3C3C"/>
<path d="M82.989 43.41C97.0521 54.2788 99.3926 74.7158 88.3197 89.0431C77.2467 103.37 56.8798 106.258 42.8167 95.3889C28.7539 84.52 26.4139 64.0836 37.4868 49.7564C48.5597 35.4293 68.926 32.5416 82.989 43.41Z" fill="#3C3C3C" stroke="black" stroke-width="3"/>
<mask id="path-3-outside-1_3942_75" maskUnits="userSpaceOnUse" x="15.109" y="21.6629" width="71.4701" height="77.2212" fill="black">
<rect fill="white" x="15.109" y="21.6629" width="71.4701" height="77.2212"/>
<path d="M43.7341 94.2027C37.308 89.2362 33.1647 81.86 32.2156 73.6968C31.2666 65.5336 33.5895 57.252 38.6735 50.6739C43.7574 44.0958 51.1859 39.76 59.3247 38.6204C67.4636 37.4808 75.646 39.6307 82.0721 44.5972L62.9031 69.3999L43.7341 94.2027Z"/>
</mask>
<path d="M43.7341 94.2027C37.308 89.2362 33.1647 81.86 32.2156 73.6968C31.2666 65.5336 33.5895 57.252 38.6735 50.6739C43.7574 44.0958 51.1859 39.76 59.3247 38.6204C67.4636 37.4808 75.646 39.6307 82.0721 44.5972L62.9031 69.3999L43.7341 94.2027Z" fill="#4E4E4E"/>
<path d="M43.7341 94.2027C37.308 89.2362 33.1647 81.86 32.2156 73.6968C31.2666 65.5336 33.5895 57.252 38.6735 50.6739C43.7574 44.0958 51.1859 39.76 59.3247 38.6204C67.4636 37.4808 75.646 39.6307 82.0721 44.5972L62.9031 69.3999L43.7341 94.2027Z" stroke="black" stroke-width="6" mask="url(#path-3-outside-1_3942_75)"/>
<mask id="path-4-outside-2_3942_75" maskUnits="userSpaceOnUse" x="7.7862" y="15.0262" width="78.7147" height="67.7617" fill="black">
<rect fill="white" x="7.7862" y="15.0262" width="78.7147" height="67.7617"/>
<path d="M28.8768 78.2372C24.4119 71.4864 22.9307 63.2394 24.759 55.3106C26.5873 47.3817 31.5754 40.4203 38.6259 35.958C45.6765 31.4957 54.2119 29.8979 62.3545 31.5161C70.4972 33.1343 77.58 37.836 82.0449 44.5868L55.4609 61.412L28.8768 78.2372Z"/>
</mask>
<path d="M28.8768 78.2372C24.4119 71.4864 22.9307 63.2394 24.759 55.3106C26.5873 47.3817 31.5754 40.4203 38.6259 35.958C45.6765 31.4957 54.2119 29.8979 62.3545 31.5161C70.4972 33.1343 77.58 37.836 82.0449 44.5868L55.4609 61.412L28.8768 78.2372Z" fill="#4159F5"/>
<path d="M28.8768 78.2372C24.4119 71.4864 22.9307 63.2394 24.759 55.3106C26.5873 47.3817 31.5754 40.4203 38.6259 35.958C45.6765 31.4957 54.2119 29.8979 62.3545 31.5161C70.4972 33.1343 77.58 37.836 82.0449 44.5868L55.4609 61.412L28.8768 78.2372Z" stroke="black" stroke-width="6" mask="url(#path-4-outside-2_3942_75)"/>
<mask id="path-5-outside-3_3942_75" maskUnits="userSpaceOnUse" x="59.1409" y="40.9814" width="56.0201" height="77.6949" fill="black">
<rect fill="white" x="59.1409" y="40.9814" width="56.0201" height="77.6949"/>
<path d="M63.3732 104.9C71.0316 107.519 79.3856 106.873 86.5975 103.105C93.8093 99.3366 99.2883 92.7547 101.829 84.8069C104.37 76.8592 103.764 68.1966 100.145 60.7249C96.5266 53.2533 90.1912 47.5845 82.5328 44.9657L72.953 74.9328L63.3732 104.9Z"/>
</mask>
<path d="M63.3732 104.9C71.0316 107.519 79.3856 106.873 86.5975 103.105C93.8093 99.3366 99.2883 92.7547 101.829 84.8069C104.37 76.8592 103.764 68.1966 100.145 60.7249C96.5266 53.2533 90.1912 47.5845 82.5328 44.9657L72.953 74.9328L63.3732 104.9Z" fill="#BCFF06"/>
<path d="M63.3732 104.9C71.0316 107.519 79.3856 106.873 86.5975 103.105C93.8093 99.3366 99.2883 92.7547 101.829 84.8069C104.37 76.8592 103.764 68.1966 100.145 60.7249C96.5266 53.2533 90.1912 47.5845 82.5328 44.9657L72.953 74.9328L63.3732 104.9Z" stroke="black" stroke-width="6" mask="url(#path-5-outside-3_3942_75)"/>
<ellipse cx="33.5687" cy="46.7274" rx="3.49065" ry="3.38055" transform="rotate(37.699 33.5687 46.7274)" fill="#3C3C3C"/>
<ellipse cx="46.268" cy="55.3758" rx="3.49065" ry="3.38055" transform="rotate(37.699 46.268 55.3758)" fill="#3C3C3C"/>
<ellipse cx="90.5725" cy="56.3445" rx="3.49065" ry="3.38055" transform="rotate(37.699 90.5725 56.3445)" fill="#3C3C3C"/>
<ellipse cx="81.0525" cy="70.2195" rx="3.49065" ry="3.38055" transform="rotate(37.699 81.0525 70.2195)" fill="#3C3C3C"/>
<ellipse cx="93.2794" cy="87.4344" rx="3.49065" ry="3.38055" transform="rotate(37.699 93.2794 87.4344)" fill="#3C3C3C"/>
<ellipse cx="72.7811" cy="99.95" rx="3.49065" ry="3.38055" transform="rotate(37.699 72.7811 99.95)" fill="#3C3C3C"/>
<ellipse cx="79.8766" cy="86.7899" rx="3.49065" ry="3.38055" transform="rotate(37.699 79.8766 86.7899)" fill="#3C3C3C"/>
<ellipse cx="97.907" cy="73.1453" rx="3.49065" ry="3.38055" transform="rotate(37.699 97.907 73.1453)" fill="#3C3C3C"/>
<ellipse cx="72.4946" cy="42.3719" rx="3.49065" ry="3.38055" transform="rotate(37.699 72.4946 42.3719)" fill="#3C3C3C"/>
<ellipse cx="52.7116" cy="38.2195" rx="3.49065" ry="3.38055" transform="rotate(37.699 52.7116 38.2195)" fill="#3C3C3C"/>
<ellipse cx="61.6081" cy="49.3641" rx="3.49065" ry="3.38055" transform="rotate(37.699 61.6081 49.3641)" fill="#3C3C3C"/>
<ellipse cx="33.3792" cy="67.0359" rx="3.49065" ry="3.38055" transform="rotate(37.699 33.3792 67.0359)" fill="#3C3C3C"/>
<path d="M87.6258 36.4601C88.5426 35.2738 89.0953 33.8486 89.2139 32.3647C89.3324 30.8808 89.0116 29.4048 88.2919 28.1235C87.5723 26.8421 86.4861 25.8129 85.1708 25.166C83.8555 24.5192 82.37 24.2836 80.9024 24.4892L81.0281 25.5708C82.2824 25.3951 83.552 25.5964 84.6762 26.1493C85.8004 26.7022 86.7287 27.5818 87.3438 28.6769C87.9589 29.7721 88.2331 31.0335 88.1317 32.3018C88.0304 33.5701 87.558 34.7882 86.7744 35.8021L87.6258 36.4601Z" fill="#3C3C3C"/>
<path d="M89.3833 37.8173C90.3001 36.631 91.54 35.7369 92.9461 35.248C94.3522 34.7592 95.8613 34.6975 97.2827 35.0709C98.7041 35.4443 99.9739 36.2359 100.931 37.3457C101.889 38.4555 102.491 39.8335 102.663 41.3056L101.584 41.4567C101.438 40.1985 100.923 39.0207 100.105 38.0722C99.2862 37.1237 98.201 36.4471 96.9861 36.128C95.7713 35.8089 94.4815 35.8616 93.2797 36.2794C92.078 36.6972 91.0183 37.4613 90.2347 38.4753L89.3833 37.8173Z" fill="#3C3C3C"/>
</svg>
