<svg width="139" height="114" viewBox="0 0 139 114" fill="none" xmlns="http://www.w3.org/2000/svg">
<path d="M91.9629 85.1328C98.046 85.1328 104.213 85.1577 108.869 86.1494C111.194 86.6448 112.98 87.3508 114.163 88.2891C115.28 89.1748 115.892 90.2847 115.906 91.8271V91.8291C115.916 92.7578 115.667 94.0818 115.366 95.2871L115.365 95.2891C113.391 103.264 104.536 112.326 92.0625 111.503H92.0615C86.2296 111.119 81.0281 109.53 77.333 107.142C73.6375 104.753 71.6085 101.692 71.6084 98.3164C71.6084 94.9144 73.6611 91.6549 77.3467 89.1787C81.0226 86.709 86.1861 85.1329 91.9629 85.1328Z" fill="#BCFF06" stroke="#1A1A1A" stroke-width="3"/>
<path d="M91.9634 86.4922C97.9271 86.4922 103.947 87.1254 108.421 88.6953C112.91 90.2702 115.259 92.5419 115.319 95.5371C115.303 95.6168 115.274 95.743 115.229 95.9082C115.186 96.0652 115.125 96.2563 115.047 96.4766C108.192 96.3647 102.759 95.5293 98.4595 94.751C96.2288 94.3472 94.2184 93.9426 92.5308 93.6797C90.8449 93.4171 89.3004 93.2631 87.9595 93.4111C83.0914 93.947 79.3008 95.9032 76.3784 97.7725C74.9531 98.6841 73.6377 99.6417 72.6333 100.321C71.5421 101.06 70.8189 101.467 70.3022 101.605C67.0188 102.482 64.5298 101.998 62.8853 101.339C62.0543 101.006 61.4265 100.622 61.0161 100.331C60.8114 100.186 60.6623 100.064 60.5698 99.9844C60.5237 99.9448 60.4912 99.9163 60.4741 99.9004C60.4692 99.8958 60.4659 99.892 60.4634 99.8896C60.4624 99.8886 60.462 99.8873 60.4614 99.8867C60.4606 99.8859 60.4595 99.8857 60.4595 99.8857L60.4146 99.8408L60.3569 99.7939L60.0708 99.5479C58.6835 98.3022 57.9264 96.7781 57.9263 95.1953C57.9263 91.7138 61.7395 88.2862 67.2896 88.2861C69.0774 88.2861 73.7411 87.8249 78.605 87.3828C83.5602 86.9324 88.8046 86.4922 91.9634 86.4922Z" fill="white" stroke="#1A1A1A" stroke-width="3"/>
<path d="M124.994 29.4902H124.995L124.622 29.2412L124.448 28.8271C122.044 23.1119 118.184 19.4847 114.91 17.2793C113.273 16.1765 111.789 15.4338 110.723 14.9697C110.19 14.738 109.762 14.5765 109.475 14.4746C109.331 14.4237 109.222 14.3875 109.152 14.3652C109.118 14.3542 109.093 14.3462 109.078 14.3418C109.072 14.34 109.068 14.3386 109.065 14.3379L108.634 14.2139L108.342 13.8721C104.209 9.03683 98.422 6.64369 93.5527 5.47168C91.131 4.8888 88.9731 4.61686 87.4238 4.49121C86.6504 4.42849 86.0314 4.40307 85.6104 4.39258C85.3999 4.38734 85.2384 4.38582 85.1328 4.38574C85.0803 4.3857 85.041 4.38549 85.0166 4.38574C85.0046 4.38587 84.996 4.38664 84.9912 4.38672C84.99 4.38674 84.989 4.38671 84.9883 4.38672L84.7051 4.39258L84.4404 4.29492H84.4385C84.4343 4.29344 84.4262 4.29006 84.415 4.28613C84.3927 4.27827 84.3564 4.2658 84.3066 4.24902C84.2067 4.21532 84.0517 4.16511 83.8447 4.10156C83.4305 3.97442 82.8066 3.79529 81.9912 3.59766C80.3597 3.20224 77.9629 2.73161 74.9443 2.44434C68.9074 1.86984 60.3888 2.02995 50.5186 4.99219C46.9859 6.05237 36.1353 8.30519 28.1787 13.1758C15.5942 20.8799 8.85522 30.7137 5.29688 39.0879C1.94163 46.9842 1.42961 53.5455 1.50684 55.7568L1.5293 56.1396V56.1416C2.49355 66.9288 6.72177 73.1185 11.7803 76.9316C16.2772 80.3214 21.5326 81.9176 26.1387 83.0479L28.0693 83.5078L28.8564 83.6914L29.1357 84.4502C30.2199 87.394 32.7911 91.6336 36.877 94.5986C40.9016 97.519 46.4382 99.2424 53.6816 97.207L53.7549 97.1865L53.8291 97.1738C63.2228 95.5264 69.8889 93.3035 74.7979 91.4883C77.2213 90.5922 79.33 89.7512 81.0527 89.1611C82.7761 88.5708 84.3546 88.1416 85.7891 88.1416C87.1522 88.1416 88.9994 88.4966 91.0723 88.9785C93.1726 89.4668 95.6953 90.134 98.417 90.8145C103.847 92.1721 110.25 93.6261 116.713 94.1328C116.751 94.1237 116.795 94.1147 116.844 94.1025C117.07 94.046 117.407 93.9558 117.832 93.8252C118.683 93.5637 119.88 93.1421 121.239 92.5078C123.969 91.2338 127.286 89.1337 129.81 85.8145C132.801 81.8776 134.104 77.7996 134.657 74.6982C134.934 73.1489 135.021 71.851 135.041 70.9492C135.051 70.4987 135.043 70.1479 135.034 69.916C135.03 69.8004 135.025 69.7143 135.021 69.6602C135.02 69.6331 135.018 69.6133 135.018 69.6025C135.017 69.5996 135.017 69.5974 135.017 69.5957L134.975 69.1465L135.188 68.749C138.157 63.1954 137.709 57.812 136.481 53.7471C135.867 51.713 135.063 50.0289 134.412 48.8555C134.088 48.2701 133.803 47.8153 133.604 47.5117C133.504 47.36 133.425 47.2459 133.374 47.1729C133.349 47.1368 133.33 47.1106 133.318 47.0947C133.313 47.0868 133.309 47.0808 133.307 47.0781L133.04 46.7227L133.011 46.2793C132.613 40.2488 130.557 36.027 128.634 33.3271C127.669 31.9732 126.735 30.9966 126.052 30.3662C125.711 30.0512 125.433 29.8234 125.247 29.6787C125.155 29.6067 125.085 29.5555 125.042 29.5244C125.02 29.5089 125.005 29.4976 124.997 29.4922C124.996 29.4914 124.995 29.4908 124.994 29.4902ZM124.994 29.4902C124.993 29.4891 124.992 29.4885 124.991 29.4883L124.993 29.4902H124.994Z" fill="#4159F5" stroke="#1A1A1A" stroke-width="3"/>
<path d="M68.7191 59.6986C78.0408 54.6733 83.0941 55.1418 87.5548 55.5462C88.9723 55.6743 90.3137 55.7744 91.6711 55.7664C99.6154 55.5863 106.05 52.2387 108.897 48.9994C109.224 48.5968 109.382 48.0836 109.338 47.5671C109.294 47.0507 109.053 46.5711 108.663 46.229C108.274 45.8868 107.768 45.7086 107.25 45.7316C106.732 45.7547 106.243 45.9772 105.886 46.3526C103.692 48.8512 98.282 51.6101 91.579 51.7622C90.3777 51.7983 89.1725 51.6782 87.9232 51.562C83.1382 51.1176 77.1959 50.573 66.8171 56.1749C64.1543 57.6124 60.5025 58.1449 56.5463 58.5453C47.7491 45.8481 53.0427 34.7885 54.5563 32.1537C54.7044 32.1617 54.8486 32.2098 55.0007 32.2098C56.6024 32.2098 58.2121 31.8174 59.6696 30.9925C60.1136 30.7222 60.4351 30.2898 60.566 29.7867C60.697 29.2836 60.6271 28.7494 60.3712 28.2969C60.1153 27.8444 59.6935 27.5092 59.1949 27.3621C58.6963 27.215 58.16 27.2677 57.6995 27.5089C56.4399 28.2023 54.9649 28.395 53.5694 28.0483C52.1738 27.7016 50.9605 26.8412 50.1717 25.6389C49.8739 25.219 49.4259 24.93 48.9206 24.8318C48.4153 24.7335 47.8916 24.8337 47.4582 25.1115C47.0249 25.3892 46.7151 25.8232 46.5933 26.3233C46.4715 26.8234 46.547 27.3513 46.8042 27.7972C47.7531 29.2827 49.0905 30.3999 50.6001 31.1487C48.5139 35.3851 44.5538 46.5248 52.0897 58.9818C46.7881 59.5023 41.4786 60.2511 37.3222 62.9299C34.4019 64.8452 31.8539 67.2752 29.8024 70.1014C27.2837 69.669 18.0621 67.3986 16.4524 57.1639C17.4535 56.3871 18.2623 55.362 18.7628 54.0967C18.8596 53.8522 18.9072 53.591 18.903 53.3281C18.8989 53.0651 18.8429 52.8056 18.7384 52.5643C18.634 52.323 18.483 52.1046 18.2941 51.9217C18.1052 51.7387 17.8822 51.5947 17.6376 51.498C17.3931 51.4012 17.132 51.3536 16.869 51.3577C16.6061 51.3619 16.3466 51.4179 16.1053 51.5224C15.8639 51.6268 15.6456 51.7778 15.4626 51.9667C15.2796 52.1556 15.1357 52.3786 15.0389 52.6231C14.888 53.0443 14.6472 53.4276 14.3333 53.7463C14.0194 54.0651 13.6398 54.3117 13.221 54.4691C12.7968 54.6092 12.3474 54.6567 11.9033 54.6084C11.4591 54.56 11.0305 54.4169 10.6463 54.1888C10.4165 54.061 10.1638 53.9797 9.90263 53.9496C9.64144 53.9195 9.37686 53.9411 9.12402 54.0133C8.61339 54.159 8.18154 54.5015 7.92348 54.9656C7.66542 55.4297 7.60229 55.9773 7.74797 56.4879C7.89365 56.9985 8.23621 57.4304 8.7003 57.6884C9.83748 58.3211 11.0548 58.6414 12.264 58.6414C12.4122 58.6414 12.5523 58.5734 12.7005 58.5654C14.6065 68.2275 22.2425 72.4719 27.6441 73.7573C26.9376 75.2626 26.4895 76.8761 26.3187 78.5303C26.2721 79.0591 26.4374 79.5848 26.7783 79.9918C27.1192 80.3988 27.6078 80.6537 28.1366 80.7005L28.3168 80.7085C28.8173 80.7085 29.2995 80.521 29.6686 80.183C30.0377 79.8451 30.2669 79.3811 30.3109 78.8826C30.7434 74.0255 35.3762 68.9522 39.4925 66.2895C43.3525 63.8028 49.0025 63.2783 54.4722 62.7698C59.7777 62.2853 64.791 61.8208 68.7191 59.6986ZM120.237 53.6762C119.982 54.1425 119.923 54.6908 120.072 55.2007C120.222 55.7106 120.568 56.1402 121.034 56.3951C121.5 56.65 122.048 56.7092 122.558 56.5598C123.068 56.4103 123.498 56.0645 123.753 55.5983C123.829 55.4621 131.128 41.7878 117.462 32.5982C117.021 32.3019 116.481 32.1928 115.96 32.295C115.439 32.3971 114.979 32.702 114.683 33.1428C114.387 33.5835 114.278 34.1239 114.38 34.645C114.482 35.1662 114.787 35.6254 115.228 35.9217C125.815 43.0411 120.469 53.2438 120.237 53.6762ZM37.2422 21.3464C37.5598 21.3465 37.8728 21.271 38.1555 21.1262C38.4382 20.9814 38.6824 20.7714 38.8678 20.5136C44.6739 12.4371 52.7143 15.2 53.0547 15.3281C53.5479 15.4909 54.085 15.4557 54.5527 15.2299C55.0203 15.0041 55.382 14.6054 55.5612 14.118C55.7405 13.6306 55.7234 13.0926 55.5135 12.6176C55.3035 12.1426 54.9172 11.7678 54.4361 11.5722C50.5921 10.1467 41.7148 9.69824 35.6165 18.1791C35.4024 18.4782 35.2748 18.8305 35.2478 19.1973C35.2208 19.5642 35.2954 19.9313 35.4634 20.2586C35.6313 20.5858 35.8862 20.8604 36.2 21.0523C36.5137 21.2442 36.8743 21.346 37.2422 21.3464ZM89.5849 13.7865C98.4942 13.0618 102.546 19.5205 102.731 19.8248C103 20.2831 103.44 20.6156 103.954 20.7493C104.209 20.8155 104.474 20.8308 104.735 20.7945C104.996 20.7582 105.247 20.6709 105.474 20.5376C105.7 20.4043 105.899 20.2276 106.057 20.0176C106.216 19.8076 106.332 19.5685 106.398 19.3138C106.464 19.0591 106.48 18.7938 106.443 18.5332C106.407 18.2725 106.32 18.0216 106.186 17.7947C105.97 17.4303 100.821 8.91342 89.2726 9.79434C89.0105 9.81484 88.7549 9.88678 88.5206 10.006C88.2863 10.1253 88.0777 10.2895 87.9069 10.4894C87.5618 10.893 87.3912 11.4172 87.4327 11.9466C87.4741 12.476 87.7241 12.9672 88.1277 13.3123C88.5313 13.6574 89.0555 13.8279 89.5849 13.7865ZM126.223 72.2917C125.238 72.2357 124.153 73.0165 124.065 74.1216C124.057 74.1937 123.42 81.0048 116.417 83.3073C115.959 83.4511 115.568 83.755 115.316 84.1634C115.064 84.5717 114.967 85.0572 115.043 85.5311C115.12 86.005 115.364 86.4356 115.732 86.7441C116.099 87.0526 116.566 87.2185 117.046 87.2113C117.258 87.2113 117.469 87.1775 117.67 87.1112C127.168 83.996 128.025 74.8424 128.057 74.454C128.079 74.1915 128.049 73.9273 127.969 73.6765C127.888 73.4257 127.759 73.1932 127.589 72.9923C127.419 72.7914 127.21 72.6262 126.976 72.506C126.742 72.3857 126.486 72.3129 126.223 72.2917Z" fill="#BCFF06"/>
<path d="M27.1153 52.8433C27.0365 53.1002 27.0103 53.3703 27.0381 53.6376C27.0659 53.9048 27.1473 54.1637 27.2773 54.3989C27.4073 54.634 27.5833 54.8406 27.7949 55.0063C28.0064 55.1719 28.2491 55.2934 28.5086 55.3633C28.768 55.4332 29.0389 55.4501 29.305 55.4131C29.5712 55.3761 29.8271 55.286 30.0577 55.148C30.2882 55.01 30.4886 54.827 30.647 54.6099C30.8053 54.3928 30.9183 54.1461 30.9793 53.8844C31.3648 52.497 32.2613 51.307 33.4885 50.5538C34.7157 49.8005 36.1826 49.5398 37.5942 49.8241C37.8516 49.878 38.1171 49.8807 38.3755 49.832C38.634 49.7833 38.8803 49.6842 39.1004 49.5403C39.3205 49.3964 39.5101 49.2105 39.6584 48.9933C39.8067 48.7762 39.9108 48.5319 39.9647 48.2745C40.0186 48.0171 40.0213 47.7516 39.9726 47.4932C39.9239 47.2348 39.8247 46.9885 39.6808 46.7683C39.5369 46.5482 39.3511 46.3586 39.1339 46.2103C38.9167 46.062 38.6725 45.9579 38.4151 45.904C36.7488 45.5652 35.0219 45.6842 33.4178 46.2484C28.749 38.264 29.6579 30.3918 29.6699 30.3077C29.7405 29.7815 29.5992 29.2488 29.277 28.8268C28.9549 28.4048 28.4783 28.128 27.9521 28.0574C27.4277 27.9899 26.8977 28.1314 26.4767 28.4513C26.0557 28.7712 25.7773 29.2438 25.7018 29.7671C25.6497 30.1555 24.5806 39.0408 29.9582 48.2425C28.5897 49.4723 27.6029 51.0691 27.1153 52.8433ZM71.8781 42.9529C72.6778 42.2265 73.7225 41.8291 74.8029 41.8402C75.8833 41.8513 76.9196 42.2702 77.7042 43.013C78.0854 43.3826 78.5979 43.5855 79.1288 43.5773C79.6597 43.569 80.1656 43.3502 80.5351 42.969C80.9052 42.5882 81.1089 42.0761 81.1014 41.5452C81.0939 41.0143 80.8758 40.5081 80.4951 40.138C79.591 39.2771 78.4981 38.6395 77.3038 38.276C78.489 34.2078 78.0205 32.4019 76.9193 29.0184C76.7015 28.3563 76.492 27.6915 76.2907 27.0243L76.1706 26.6239C74.713 21.7868 73.748 18.5955 76.5189 14.0907C76.7972 13.6383 76.8843 13.0939 76.7611 12.5773C76.638 12.0607 76.3146 11.6141 75.8622 11.3359C75.4098 11.0576 74.8654 10.9705 74.3488 11.0936C73.8322 11.2168 73.3856 11.5401 73.1074 11.9925C69.3915 18.0309 70.7569 22.5516 72.3386 27.7851L72.4587 28.1855C72.6936 28.9596 72.9112 29.6497 73.1114 30.2557C74.1004 33.3028 74.4007 34.3239 73.1915 38.0078C71.6776 38.2782 70.2736 38.9788 69.1472 40.0259C68.7729 40.3913 68.5565 40.8888 68.5443 41.4117C68.5321 41.9347 68.7251 42.4417 69.082 42.8242C69.4388 43.2067 69.9312 43.4343 70.4538 43.4584C70.9764 43.4824 71.4876 43.301 71.8781 42.9529ZM97.3647 31.0004C98.5538 31.004 99.7288 30.7428 100.804 30.2356C101.285 30.0094 101.656 29.6016 101.836 29.1019C102.016 28.6021 101.99 28.0514 101.763 27.5708C101.537 27.0903 101.129 26.7193 100.63 26.5394C100.13 26.3596 99.5791 26.3856 99.0985 26.6118C98.1145 27.0635 96.996 27.1258 95.9679 26.7864C94.9398 26.4469 94.0783 25.7307 93.5568 24.7819C93.4378 24.5414 93.2716 24.3272 93.0682 24.1521C92.8647 23.977 92.6282 23.8446 92.3726 23.7628C92.117 23.681 91.8475 23.6514 91.5802 23.6758C91.3129 23.7002 91.0533 23.7781 90.8167 23.9048C90.5801 24.0316 90.3715 24.2046 90.2031 24.4136C90.0347 24.6226 89.9101 24.8633 89.8366 25.1215C89.7631 25.3796 89.7423 25.6499 89.7754 25.9162C89.8084 26.1826 89.8947 26.4396 90.0291 26.6719C90.7498 28.0173 91.8229 29.0784 93.0722 29.8152C90.922 35.0407 92.1433 40.5905 93.1403 43.5335C93.2166 43.7918 93.3441 44.032 93.5154 44.2399C93.6867 44.4477 93.8981 44.6188 94.137 44.743C94.376 44.8672 94.6375 44.942 94.906 44.9628C95.1745 44.9835 95.4444 44.9499 95.6996 44.864C95.9548 44.778 96.19 44.6414 96.3912 44.4624C96.5924 44.2834 96.7554 44.0657 96.8705 43.8222C96.9856 43.5788 97.0504 43.3146 97.061 43.0455C97.0716 42.7764 97.0278 42.508 96.9323 42.2562C96.2596 40.2621 94.9542 35.2249 96.9243 30.9404C97.0764 30.9484 97.2166 31.0004 97.3647 31.0004ZM116.573 68.7559C116.558 68.493 116.49 68.2357 116.375 67.999C116.259 67.7622 116.098 67.5507 115.9 67.3768C115.703 67.2029 115.472 67.0699 115.223 66.9856C114.973 66.9014 114.709 66.8675 114.447 66.886C113.486 66.9523 112.523 66.8284 111.611 66.5212C110.699 66.2141 109.856 65.7298 109.132 65.0962C108.407 64.4625 107.815 63.6921 107.389 62.829C106.964 61.9659 106.712 61.0272 106.65 60.0668C106.604 59.5408 106.357 59.0529 105.959 58.7058C105.561 58.3586 105.044 58.1791 104.516 58.2049C104.254 58.2227 103.997 58.292 103.762 58.4089C103.526 58.5258 103.316 58.688 103.143 58.8862C102.97 59.0844 102.838 59.3147 102.754 59.564C102.67 59.8133 102.636 60.0767 102.654 60.3391C102.818 62.7016 103.719 64.8318 105.089 66.5656C101.869 70.3536 97.653 71.4307 95.3026 71.707C93.2244 71.9553 91.4065 71.7431 89.3043 71.4948C87.3783 71.2746 85.2 71.0223 82.5052 71.1024L82.4852 71.1064C82.4051 69.9612 82.1328 68.2915 81.2639 66.902C80.9652 66.4905 80.5214 66.2079 80.0222 66.1111C79.523 66.0144 79.0057 66.1108 78.5749 66.3809C78.1441 66.651 77.832 67.0745 77.7015 67.566C77.5711 68.0574 77.6322 68.5801 77.8724 69.0282C78.4089 69.8891 78.509 71.2626 78.509 71.9313C76.4909 72.656 74.7451 73.7211 73.1674 74.7502C70.3485 76.5841 68.1262 78.0336 64.7827 77.2809C61.7555 76.5881 58.7243 76.448 56.1536 76.8084C55.7532 75.8033 55.1206 74.6021 54.1435 73.6771C53.7575 73.3123 53.2424 73.1158 52.7115 73.1308C52.1806 73.1458 51.6774 73.3711 51.3126 73.7572C50.9478 74.1432 50.7513 74.6583 50.7663 75.1892C50.7813 75.7201 51.0066 76.2233 51.3926 76.5881C51.737 76.9125 52.0093 77.385 52.2295 77.8575C47.8129 79.6754 45.5986 82.7145 45.4945 82.8627C45.2821 83.1617 45.156 83.5134 45.1302 83.8792C45.1044 84.2451 45.1798 84.611 45.3481 84.9368C45.5164 85.2627 45.7711 85.5359 46.0844 85.7266C46.3977 85.9174 46.7574 86.0181 47.1242 86.018C47.4408 86.0194 47.7532 85.9458 48.0358 85.8031C48.3184 85.6604 48.5631 85.4527 48.7499 85.1971C48.7699 85.1651 50.9682 82.222 55.3047 81.0328C57.5471 80.4161 60.7625 80.4682 63.8977 81.1809C64.7747 81.3811 65.5875 81.4492 66.3763 81.4612C66.7487 82.3341 66.8929 83.3712 66.9129 83.7556C66.9415 84.2663 67.1645 84.7466 67.536 85.098C67.9076 85.4495 68.3995 85.6454 68.911 85.6456L69.0191 85.6416C69.5474 85.6136 70.0432 85.3776 70.3981 84.9852C70.753 84.5928 70.9381 84.0759 70.9131 83.5474C70.8471 82.6146 70.6724 81.6928 70.3925 80.8005C72.2385 80.1318 73.8441 79.0867 75.3537 78.1057C77.6441 76.6122 79.8104 75.1987 82.6413 75.1066C85.0118 75.0225 86.9659 75.2507 88.8518 75.471C90.7498 75.6912 92.6158 75.8353 94.6739 75.7152C95.0383 76.7283 95.0103 78.0817 94.9542 78.5342C94.9203 78.8161 94.9465 79.102 95.0309 79.3731C95.1153 79.6443 95.2561 79.8945 95.444 80.1074C95.6319 80.3203 95.8627 80.491 96.1213 80.6084C96.3799 80.7258 96.6603 80.7872 96.9443 80.7885C97.4297 80.7878 97.8983 80.6107 98.2629 80.2903C98.6275 79.9699 98.8633 79.528 98.9264 79.0467C99.0717 77.7334 98.9918 76.405 98.6901 75.1186C102.343 74.1493 105.617 72.0957 108.08 69.2284C110.064 70.4563 112.382 71.0344 114.711 70.8822C115.239 70.8462 115.732 70.6022 116.081 70.2037C116.43 69.8052 116.607 69.2846 116.573 68.7559Z" fill="#BCFF06"/>
</svg>
