<svg width="167" height="177" viewBox="0 0 167 177" fill="none" xmlns="http://www.w3.org/2000/svg">
<mask id="path-1-outside-1_3929_241" maskUnits="userSpaceOnUse" x="13.3909" y="-3.94082" width="157.228" height="158.899" fill="black">
<rect fill="white" x="13.3909" y="-3.94082" width="157.228" height="158.899"/>
<path d="M122.568 29.1818C146.605 45.1777 153.123 77.6304 137.127 101.667C124.611 120.475 98.6341 124.301 78.4434 121.665C76.3371 123.493 73.8634 128.907 73.8634 128.907L49.1557 112.464C49.1557 112.464 53.5769 108.649 54.175 105.084C44.3702 87.6461 37.7561 62.2646 50.0833 43.7407C66.0792 19.7042 98.5318 13.1861 122.568 29.1818Z"/>
</mask>
<path d="M122.568 29.1818C146.605 45.1777 153.123 77.6304 137.127 101.667C124.611 120.475 98.6341 124.301 78.4434 121.665C76.3371 123.493 73.8634 128.907 73.8634 128.907L49.1557 112.464C49.1557 112.464 53.5769 108.649 54.175 105.084C44.3702 87.6461 37.7561 62.2646 50.0833 43.7407C66.0792 19.7042 98.5318 13.1861 122.568 29.1818Z" fill="#BCFF06"/>
<path d="M122.568 29.1818L124.23 26.6843L124.23 26.6843L122.568 29.1818ZM137.127 101.667L139.625 103.329L139.625 103.329L137.127 101.667ZM78.4434 121.665L78.8318 118.69L77.4951 118.515L76.477 119.399L78.4434 121.665ZM73.8634 128.907L72.2013 131.404L75.1299 133.353L76.592 130.154L73.8634 128.907ZM49.1557 112.464L47.1959 110.193L44.2051 112.773L47.4936 114.962L49.1557 112.464ZM54.175 105.084L57.1336 105.58L57.3087 104.536L56.79 103.614L54.175 105.084ZM50.0833 43.7407L47.5858 42.0787L47.5858 42.0787L50.0833 43.7407ZM122.568 29.1818L120.906 31.6794C143.564 46.7573 149.708 77.3476 134.63 100.005L137.127 101.667L139.625 103.329C156.539 77.9131 149.646 43.5982 124.23 26.6843L122.568 29.1818ZM137.127 101.667L134.63 100.005C128.874 108.653 119.952 113.977 109.85 116.82C99.7358 119.666 88.6134 119.967 78.8318 118.69L78.4434 121.665L78.0551 124.64C88.4642 125.999 100.425 125.705 111.476 122.595C122.539 119.482 132.864 113.489 139.625 103.329L137.127 101.667ZM78.4434 121.665L76.477 119.399C74.9752 120.703 73.6067 122.961 72.7431 124.511C72.2718 125.356 71.8734 126.136 71.5931 126.704C71.4524 126.988 71.3402 127.222 71.2622 127.387C71.2231 127.47 71.1925 127.535 71.171 127.581C71.1603 127.604 71.1518 127.623 71.1458 127.636C71.1427 127.642 71.1403 127.648 71.1384 127.652C71.1375 127.654 71.1367 127.655 71.1361 127.657C71.1358 127.658 71.1355 127.658 71.1353 127.659C71.1352 127.659 71.135 127.659 71.135 127.659C71.1348 127.66 71.1347 127.66 73.8634 128.907C76.592 130.154 76.5919 130.154 76.5918 130.154C76.5918 130.154 76.5917 130.154 76.5916 130.154C76.5915 130.155 76.5915 130.155 76.5915 130.155C76.5915 130.155 76.5916 130.154 76.5919 130.154C76.5924 130.153 76.5936 130.15 76.5953 130.146C76.5987 130.139 76.6044 130.127 76.6123 130.11C76.6281 130.076 76.6527 130.023 76.6854 129.954C76.7508 129.816 76.8483 129.612 76.9725 129.361C77.2218 128.856 77.5735 128.168 77.984 127.432C78.8838 125.818 79.8053 124.455 80.4099 123.93L78.4434 121.665ZM73.8634 128.907L75.5254 126.409L50.8177 109.967L49.1557 112.464L47.4936 114.962L72.2013 131.404L73.8634 128.907ZM49.1557 112.464C51.1155 114.736 51.1159 114.735 51.1164 114.735C51.1166 114.735 51.1171 114.734 51.1174 114.734C51.1182 114.733 51.119 114.733 51.1198 114.732C51.1215 114.73 51.1235 114.729 51.1258 114.727C51.1303 114.723 51.1359 114.718 51.1425 114.712C51.1558 114.7 51.1732 114.685 51.1946 114.666C51.2373 114.628 51.2957 114.576 51.3679 114.51C51.512 114.379 51.7118 114.193 51.9504 113.96C52.4249 113.497 53.0666 112.837 53.7344 112.045C54.9723 110.577 56.693 108.207 57.1336 105.58L54.175 105.084L51.2163 104.588C51.0589 105.526 50.2699 106.846 49.1477 108.177C48.6355 108.785 48.1344 109.301 47.7613 109.665C47.576 109.845 47.4257 109.985 47.3257 110.076C47.2758 110.122 47.2387 110.155 47.2164 110.175C47.2052 110.185 47.1977 110.191 47.1942 110.194C47.1925 110.196 47.1917 110.196 47.192 110.196C47.1921 110.196 47.1925 110.196 47.1932 110.195C47.1935 110.195 47.1939 110.195 47.1943 110.194C47.1945 110.194 47.1949 110.194 47.195 110.194C47.1955 110.193 47.1959 110.193 49.1557 112.464ZM54.175 105.084L56.79 103.614C52.0336 95.1544 48.0872 84.8225 46.807 74.452C45.5279 64.0905 46.928 53.8972 52.5808 45.4028L50.0833 43.7407L47.5858 42.0787C40.9114 52.1081 39.4549 63.8675 40.8522 75.1871C42.2485 86.4979 46.5116 97.5757 51.56 106.554L54.175 105.084ZM50.0833 43.7407L52.5808 45.4028C67.6587 22.7456 98.2491 16.6015 120.906 31.6794L122.568 29.1818L124.23 26.6843C98.8145 9.77067 64.4996 16.6628 47.5858 42.0787L50.0833 43.7407Z" fill="#1A1A1A" mask="url(#path-1-outside-1_3929_241)"/>
<rect x="41.9097" y="117.457" width="36.2137" height="8.1685" rx="4.08425" transform="rotate(33.6431 41.9097 117.457)" fill="#4159F5" stroke="#1A1A1A" stroke-width="3"/>
<rect x="46.4324" y="110.656" width="36.2137" height="8.1685" rx="4.08425" transform="rotate(33.6431 46.4324 110.656)" fill="#4159F5" stroke="#1A1A1A" stroke-width="3"/>
<rect x="37.3828" y="124.258" width="36.2137" height="8.1685" rx="4.08425" transform="rotate(33.6431 37.3828 124.258)" fill="#4159F5" stroke="#1A1A1A" stroke-width="3"/>
<rect x="32.8596" y="131.055" width="36.2137" height="8.1685" rx="4.08425" transform="rotate(33.6431 32.8596 131.055)" fill="#4159F5" stroke="#1A1A1A" stroke-width="3"/>
<path d="M93.4891 72.96C95.867 74.5437 90.8048 86.3306 82.1824 99.2872C82.1476 99.3396 82.112 99.3914 82.0772 99.4436C82.358 99.2511 82.6398 99.0573 82.9239 98.8657C95.8286 90.1659 107.585 85.0343 109.183 87.4027C110.78 89.7718 101.613 98.7453 88.7076 107.446C76.0306 115.992 64.0703 121.889 62.1372 119.85C59.4934 118.913 60.5146 105.71 63.51 90.6817C66.5524 75.4178 71.2909 63.4962 74.093 64.0547C76.8951 64.6132 76.7 77.4401 73.6577 92.7039C73.5883 93.0522 73.516 93.3989 73.444 93.7442C73.4857 93.6813 73.5269 93.6179 73.5687 93.555C82.1915 80.5978 91.1105 71.3771 93.4891 72.96Z" fill="white"/>
</svg>
