<svg width="836" height="101" viewBox="0 0 836 101" fill="none" xmlns="http://www.w3.org/2000/svg">
<path d="M40.2985 100.976C32.8049 100.976 26.048 99.2078 20.0278 95.6715C14.0498 92.093 9.35571 87.2727 5.94569 81.2104C2.57776 75.1482 0.893799 68.5176 0.893799 61.3186C0.893799 54.0355 2.57776 47.3628 5.94569 41.3005C9.31361 35.1961 14.0077 30.3548 20.0278 26.7763C26.048 23.1979 32.847 21.4087 40.4248 21.4087C45.3925 21.4087 50.0445 22.1454 54.3807 23.6189C58.759 25.0924 62.6742 27.1763 66.1263 29.8706C66.842 30.46 67.1998 31.0915 67.1998 31.7651C67.1998 32.2703 67.0104 32.8175 66.6315 33.4069L58.6116 44.8368C58.0643 45.6367 57.4329 46.0367 56.7172 46.0367C56.2541 46.0367 55.7068 45.8262 55.0753 45.4052C52.9283 43.9317 50.7812 42.8161 48.6342 42.0583C46.4871 41.3005 44.0243 40.9216 41.2458 40.9216C37.8357 40.9216 34.6783 41.8057 31.7735 43.5739C28.8686 45.342 26.5532 47.7838 24.8271 50.8991C23.1011 53.9723 22.238 57.4455 22.238 61.3186C22.238 65.1075 23.1011 68.5386 24.8271 71.6118C26.5953 74.6851 28.9318 77.1058 31.8366 78.8739C34.7836 80.6 37.941 81.463 41.3089 81.463C44.0454 81.463 46.4871 81.1052 48.6342 80.3895C50.8233 79.6317 52.9704 78.5161 55.0753 77.0426C55.7068 76.6216 56.2541 76.4111 56.7172 76.4111C57.4329 76.4111 58.0643 76.8111 58.6116 77.611L66.6315 89.0409C67.0525 89.6303 67.263 90.1986 67.263 90.7459C67.263 91.2932 67.0104 91.7984 66.5052 92.2615C63.011 95.04 59.0537 97.187 54.6333 98.7026C50.2129 100.218 45.4346 100.976 40.2985 100.976Z" fill="white"/>
<path d="M111.737 100.976C104.327 100.976 97.5284 99.2078 91.3399 95.6715C85.1934 92.1351 80.3099 87.3359 76.6894 81.2736C73.111 75.2113 71.3218 68.5807 71.3218 61.3818C71.3218 54.0565 73.132 47.3417 76.7525 41.2374C80.3731 35.133 85.2776 30.3127 91.4662 26.7763C97.6968 23.1979 104.517 21.4087 111.926 21.4087C119.378 21.4087 126.198 23.1979 132.386 26.7763C138.617 30.3127 143.543 35.133 147.163 41.2374C150.784 47.3417 152.594 54.0565 152.594 61.3818C152.594 68.5807 150.763 75.2113 147.1 81.2736C143.48 87.3359 138.533 92.1351 132.26 95.6715C126.03 99.2078 119.188 100.976 111.737 100.976ZM111.989 80.4527C115.484 80.4527 118.683 79.6107 121.588 77.9267C124.535 76.2427 126.85 73.9483 128.534 71.0435C130.26 68.0966 131.124 64.8339 131.124 61.2555C131.124 57.6349 130.26 54.3512 128.534 51.4043C126.85 48.4574 124.535 46.1419 121.588 44.4579C118.683 42.774 115.484 41.932 111.989 41.932C108.453 41.932 105.212 42.774 102.265 44.4579C99.3597 46.1419 97.0443 48.4574 95.3182 51.4043C93.6343 54.3512 92.7923 57.6349 92.7923 61.2555C92.7923 64.8339 93.6343 68.0966 95.3182 71.0435C97.0443 73.9483 99.3597 76.2427 102.265 77.9267C105.212 79.6107 108.453 80.4527 111.989 80.4527Z" fill="white"/>
<path d="M217.745 2.77986C217.745 1.09589 218.587 0.253906 220.271 0.253906H236.69C238.374 0.253906 239.216 1.09589 239.216 2.77986V96.5556C239.216 98.2395 238.374 99.0815 236.69 99.0815H224.123C222.734 99.0815 221.766 98.429 221.219 97.1239C220.454 95.2896 218.084 94.7825 216.447 95.9086C211.78 99.1184 206.234 100.723 199.811 100.723C192.612 100.723 185.982 98.9552 179.919 95.4189C173.857 91.8405 169.058 87.0201 165.521 80.9578C161.985 74.8535 160.217 68.1808 160.217 60.9397C160.217 53.7408 161.985 47.1312 165.521 41.1111C169.1 35.0488 173.92 30.2495 179.983 26.7132C186.045 23.1769 192.654 21.4087 199.811 21.4087C200.533 21.4087 201.243 21.4289 201.942 21.4692C208.875 21.8692 217.745 17.0376 217.745 10.0938V2.77986ZM200.19 80.2001C203.684 80.2001 206.863 79.4002 209.726 77.8004C212.63 76.1585 214.904 73.9062 216.546 71.0435C218.23 68.1387 219.072 64.876 219.072 61.2555C219.072 57.5928 218.251 54.3091 216.609 51.4043C214.967 48.4574 212.715 46.1419 209.852 44.4579C206.989 42.774 203.811 41.932 200.316 41.932C196.822 41.932 193.644 42.774 190.781 44.4579C187.96 46.0998 185.729 48.3942 184.087 51.3411C182.487 54.2881 181.688 57.5928 181.688 61.2555C181.688 64.9181 182.487 68.1808 184.087 71.0435C185.687 73.9062 187.876 76.1585 190.655 77.8004C193.475 79.4002 196.654 80.2001 200.19 80.2001Z" fill="white"/>
<path d="M291.649 100.976C284.029 100.976 277.188 99.1868 271.125 95.6083C265.063 92.0299 260.327 87.2096 256.917 81.1473C253.549 75.085 251.865 68.4755 251.865 61.3186C251.865 54.0776 253.465 47.4259 256.664 41.3637C259.906 35.2593 264.411 30.4179 270.178 26.8395C275.946 23.219 282.492 21.4087 289.817 21.4087C297.732 21.4087 304.594 23.1137 310.404 26.5237C316.214 29.9338 320.634 34.6489 323.665 40.669C326.738 46.6892 328.275 53.5303 328.275 61.1923C328.275 62.8763 328.191 64.5392 328.022 66.1811C327.854 67.7387 326.97 68.5176 325.37 68.5176H285.445C279.76 68.5176 275.853 74.4054 280.36 77.8702C280.582 78.0408 280.809 78.2069 281.04 78.3688C284.408 80.7263 288.239 81.9051 292.533 81.9051C295.269 81.9051 297.732 81.5262 299.921 80.7684C302.152 79.9685 304.321 78.8318 306.426 77.3584C306.973 76.9374 307.52 76.7269 308.067 76.7269C308.741 76.7269 309.351 77.1058 309.899 77.8636L317.666 88.9146C318.045 89.4619 318.234 89.9881 318.234 90.4933C318.234 91.209 317.898 91.8405 317.224 92.3877C313.73 95.1242 309.815 97.2502 305.478 98.7658C301.184 100.239 296.574 100.976 291.649 100.976ZM296.025 52.7304C301.56 52.7304 305.646 47.0046 301.398 43.4572C301.266 43.3465 301.131 43.2381 300.995 43.1318C298.132 40.9006 294.638 39.7849 290.512 39.7849C286.471 39.7849 282.955 40.9216 279.966 43.195C279.863 43.2746 279.761 43.3553 279.66 43.4372C275.318 46.9522 279.332 52.7304 284.919 52.7304H296.025Z" fill="white"/>
<path d="M381.232 21.4087C386.41 21.4087 391.525 22.9032 396.577 25.8922C397.461 26.4395 397.903 27.1131 397.903 27.913C397.903 28.3761 397.777 28.8602 397.524 29.3654L390.262 43.0055C389.757 43.9317 389.105 44.3948 388.305 44.3948C387.799 44.3948 387.315 44.2474 386.852 43.9528C383.821 42.2688 380.916 41.4268 378.138 41.4268C375.485 41.4268 372.938 42.1846 370.497 43.7002C368.097 45.2157 366.139 47.468 364.624 50.4571C363.108 53.404 362.351 56.9614 362.351 61.1292V96.5556C362.351 98.2395 361.509 99.0815 359.825 99.0815H343.406C341.722 99.0815 340.88 98.2395 340.88 96.5556V25.1976C340.88 23.5136 341.722 22.6717 343.406 22.6717H355.973C357.362 22.6717 358.33 23.3242 358.877 24.6293C360.162 27.6978 364.617 28.0901 367.241 26.0453C368.082 25.3902 368.978 24.7919 369.928 24.2504C373.254 22.3559 377.022 21.4087 381.232 21.4087Z" fill="white"/>
<path d="M459.827 25.1976C459.827 23.5136 460.669 22.6717 462.353 22.6717H478.771C480.455 22.6717 481.297 23.5136 481.297 25.1976V96.5556C481.297 98.2395 480.455 99.0815 478.771 99.0815H466.205C464.815 99.0815 463.847 98.429 463.3 97.1239C461.992 93.9902 457.892 93.1194 454.996 94.8929C453.353 95.8993 451.574 96.8114 449.66 97.6291C445.323 99.4393 441.177 100.344 437.219 100.344C431.031 100.344 425.6 98.9342 420.927 96.1135C416.254 93.2929 412.634 89.3145 410.065 84.1784C407.497 79.0002 406.213 73.0222 406.213 66.2442V25.1976C406.213 23.5136 407.055 22.6717 408.739 22.6717H425.158C426.842 22.6717 427.684 23.5136 427.684 25.1976V63.8446C427.684 67.2125 428.294 70.1805 429.515 72.7485C430.778 75.2745 432.525 77.2321 434.757 78.6213C437.03 80.0106 439.661 80.7053 442.65 80.7053C445.808 80.7053 448.691 79.9685 451.302 78.495C453.954 76.9795 456.038 75.0008 457.553 72.5591C459.069 70.1173 459.827 67.5282 459.827 64.7918V25.1976Z" fill="white"/>
<path d="M588.991 20.7772C594.759 20.7772 599.769 22.1033 604.021 24.7556C608.273 27.3657 611.557 31.2809 613.872 36.5012C616.187 41.6794 617.345 48.0153 617.345 55.5089V96.5556C617.345 98.2395 616.503 99.0815 614.819 99.0815H598.401C596.717 99.0815 595.875 98.2395 595.875 96.5556V56.2667C595.875 51.5516 594.78 47.8469 592.591 45.1526C590.402 42.4161 587.265 41.0479 583.182 41.0479C580.572 41.0479 578.214 41.7215 576.109 43.0687C574.046 44.3737 572.383 46.1209 571.12 48.31C569.857 50.4992 569.121 52.8778 568.91 55.4458V96.5556C568.91 98.2395 568.068 99.0815 566.384 99.0815H549.966C548.282 99.0815 547.44 98.2395 547.44 96.5556V56.2667C547.44 51.5516 546.345 47.8469 544.156 45.1526C541.967 42.4161 538.83 41.0479 534.747 41.0479C531.968 41.0479 529.484 41.8057 527.295 43.3213C525.148 44.7947 523.464 46.7523 522.243 49.1941C521.022 51.6358 520.412 54.2249 520.412 56.9614V96.5556C520.412 98.2395 519.57 99.0815 517.886 99.0815H501.467C499.783 99.0815 498.941 98.2395 498.941 96.5556V25.1976C498.941 23.5136 499.783 22.6717 501.467 22.6717H514.034C514.75 22.6717 515.339 22.8401 515.802 23.1769C516.265 23.4715 516.644 23.9557 516.939 24.6293C517.751 26.5963 520.248 27.2007 522.039 26.0503C524.091 24.7318 526.285 23.6476 528.621 22.798C532.326 21.4508 536.304 20.7772 540.556 20.7772C545.524 20.7772 549.945 21.7665 553.818 23.7452C554.294 23.9886 554.76 24.2459 555.214 24.5173C560.069 27.4146 567.074 27.9373 571.978 25.1248C572.804 24.6514 573.654 24.2126 574.53 23.8083C578.951 21.7876 583.771 20.7772 588.991 20.7772Z" fill="white"/>
<path d="M672.664 21.4087C679.821 21.4087 686.43 23.1769 692.493 26.7132C698.555 30.2495 703.354 35.0488 706.891 41.1111C710.469 47.1312 712.258 53.7408 712.258 60.9397C712.258 68.1808 710.49 74.8535 706.954 80.9578C703.417 87.0201 698.618 91.8405 692.556 95.4189C686.494 98.9552 679.863 100.723 672.664 100.723C666.241 100.723 660.696 99.1184 656.028 95.9086C654.391 94.7825 652.021 95.2896 651.257 97.1239C650.709 98.429 649.741 99.0815 648.352 99.0815H635.785C634.101 99.0815 633.259 98.2395 633.259 96.5556V2.77986C633.259 1.09589 634.101 0.253906 635.785 0.253906H652.204C653.888 0.253906 654.73 1.09589 654.73 2.77986V10.0937C654.73 17.0376 663.6 21.8692 670.533 21.4692C671.232 21.4289 671.943 21.4087 672.664 21.4087ZM672.285 80.2001C675.821 80.2001 678.979 79.4002 681.757 77.8004C684.578 76.1585 686.788 73.9062 688.388 71.0435C689.988 68.1808 690.788 64.9181 690.788 61.2555C690.788 57.5928 689.967 54.2881 688.325 51.3411C686.725 48.3942 684.494 46.0998 681.631 44.4579C678.81 42.774 675.653 41.932 672.159 41.932C668.665 41.932 665.486 42.774 662.623 44.4579C659.761 46.1419 657.508 48.4574 655.867 51.4043C654.225 54.3091 653.404 57.5928 653.404 61.2555C653.404 64.876 654.225 68.1387 655.867 71.0435C657.551 73.9062 659.824 76.1585 662.687 77.8004C665.591 79.4002 668.791 80.2001 672.285 80.2001Z" fill="white"/>
<path d="M746.189 94.4999C746.189 96.1839 745.606 99.0815 741.99 99.0815H728.639C726.135 99.0815 724.907 96.1839 724.907 94.4999V5.2606C724.907 3.57663 726.03 0.380203 729.09 0.380203H742.163C744.944 0.380203 746.189 3.57663 746.189 5.2606V94.4999Z" fill="white"/>
<path d="M798.638 100.976C791.018 100.976 784.177 99.1868 778.115 95.6083C772.053 92.0299 767.317 87.2096 763.907 81.1473C760.539 75.085 758.855 68.4755 758.855 61.3186C758.855 54.0776 760.455 47.4259 763.654 41.3637C766.896 35.2593 771.4 30.4179 777.168 26.8395C782.935 23.219 789.482 21.4087 796.807 21.4087C804.722 21.4087 811.584 23.1137 817.394 26.5237C823.203 29.9338 827.624 34.6489 830.655 40.669C833.728 46.6892 835.265 53.5303 835.265 61.1923C835.265 62.8763 835.18 64.5392 835.012 66.1811C834.844 67.7387 833.96 68.5176 832.36 68.5176H792.434C786.749 68.5176 782.843 74.4054 787.35 77.8702C787.572 78.0408 787.798 78.2069 788.029 78.3688C791.397 80.7263 795.228 81.9051 799.522 81.9051C802.259 81.9051 804.722 81.5262 806.911 80.7684C809.142 79.9685 811.31 78.8318 813.415 77.3584C813.962 76.9374 814.51 76.7269 815.057 76.7269C815.731 76.7269 816.341 77.1058 816.888 77.8636L824.656 88.9146C825.035 89.4619 825.224 89.9881 825.224 90.4933C825.224 91.209 824.887 91.8405 824.214 92.3877C820.719 95.1242 816.804 97.2502 812.468 98.7658C808.174 100.239 803.564 100.976 798.638 100.976ZM803.015 52.7304C808.549 52.7304 812.636 47.0046 808.388 43.4572C808.255 43.3465 808.121 43.2381 807.984 43.1318C805.122 40.9006 801.627 39.7849 797.502 39.7849C793.46 39.7849 789.945 40.9216 786.956 43.195C786.853 43.2746 786.75 43.3553 786.649 43.4372C782.307 46.9522 786.322 52.7304 791.908 52.7304H803.015Z" fill="white"/>
</svg>
