<svg width="471" height="56" viewBox="0 0 471 56" fill="none" xmlns="http://www.w3.org/2000/svg">
<path d="M22.6966 56C18.4755 56 14.6693 55.0169 11.2782 53.0508C7.91074 51.0612 5.26659 48.3812 3.34572 45.0107C1.44857 41.6401 0.5 37.9536 0.5 33.9511C0.5 29.9018 1.44857 26.1918 3.34572 22.8213C5.24287 19.4274 7.88702 16.7356 11.2782 14.7461C14.6693 12.7565 18.4992 11.7618 22.7678 11.7618C25.5661 11.7618 28.1865 12.1714 30.6291 12.9906C33.0954 13.8098 35.3008 14.9684 37.2454 16.4665C37.6485 16.7941 37.8501 17.1452 37.8501 17.5198C37.8501 17.8006 37.7434 18.1049 37.53 18.4326L33.0124 24.7875C32.7041 25.2322 32.3484 25.4545 31.9452 25.4545C31.6844 25.4545 31.3761 25.3375 31.0204 25.1034C29.8109 24.2842 28.6015 23.664 27.3921 23.2426C26.1826 22.8213 24.7954 22.6107 23.2302 22.6107C21.3093 22.6107 19.5308 23.1022 17.8945 24.0853C16.2582 25.0683 14.9539 26.4259 13.9816 28.158C13.0093 29.8667 12.5232 31.7977 12.5232 33.9511C12.5232 36.0577 13.0093 37.9653 13.9816 39.674C14.9776 41.3827 16.2938 42.7285 17.9301 43.7116C19.5901 44.6713 21.3686 45.1511 23.2658 45.1511C24.8072 45.1511 26.1826 44.9521 27.3921 44.5542C28.6252 44.1329 29.8347 43.5126 31.0204 42.6934C31.3761 42.4594 31.6844 42.3423 31.9452 42.3423C32.3484 42.3423 32.7041 42.5647 33.0124 43.0094L37.53 49.3643C37.7671 49.692 37.8857 50.0079 37.8857 50.3122C37.8857 50.6165 37.7434 50.8974 37.4588 51.1549C35.4905 52.6997 33.2614 53.8934 30.7714 54.7361C28.2814 55.5787 25.5898 56 22.6966 56Z" fill="#BCFF06"/>
<path d="M62.9378 56C58.764 56 54.9342 55.0169 51.4482 53.0508C47.9859 51.0846 45.235 48.4163 43.1956 45.0458C41.1798 41.6752 40.172 37.9887 40.172 33.9862C40.172 29.9135 41.1917 26.1801 43.2311 22.7862C45.2706 19.3923 48.0333 16.7122 51.5193 14.7461C55.029 12.7565 58.8708 11.7618 63.0445 11.7618C67.2419 11.7618 71.0836 12.7565 74.5697 14.7461C78.0794 16.7122 80.854 19.3923 82.8934 22.7862C84.9328 26.1801 85.9526 29.9135 85.9526 33.9862C85.9526 37.9887 84.921 41.6752 82.8578 45.0458C80.8184 48.4163 78.032 51.0846 74.4985 53.0508C70.9888 55.0169 67.1352 56 62.9378 56ZM63.0801 44.5893C65.0484 44.5893 66.8506 44.1212 68.4869 43.185C70.1469 42.2487 71.4512 40.973 72.3998 39.358C73.3721 37.7195 73.8582 35.9055 73.8582 33.916C73.8582 31.903 73.3721 30.0773 72.3998 28.4389C71.4512 26.8004 70.1469 25.5131 68.4869 24.5768C66.8506 23.6405 65.0484 23.1724 63.0801 23.1724C61.0881 23.1724 59.262 23.6405 57.602 24.5768C55.9657 25.5131 54.6615 26.8004 53.6892 28.4389C52.7406 30.0773 52.2663 31.903 52.2663 33.916C52.2663 35.9055 52.7406 37.7195 53.6892 39.358C54.6615 40.973 55.9657 42.2487 57.602 43.185C59.262 44.1212 61.0881 44.5893 63.0801 44.5893Z" fill="#BCFF06"/>
<path d="M122.652 1.40439C122.652 0.46813 123.127 0 124.075 0H133.324C134.272 0 134.747 0.46813 134.747 1.40439V53.5423C134.747 54.4786 134.272 54.9467 133.324 54.9467H126.245C125.462 54.9467 124.917 54.5839 124.609 53.8583C124.178 52.8385 122.843 52.5565 121.921 53.1826C119.292 54.9672 116.168 55.8596 112.55 55.8596C108.495 55.8596 104.76 54.8765 101.345 52.9103C97.93 50.9208 95.2266 48.2408 93.2346 44.8702C91.2426 41.4763 90.2466 37.7664 90.2466 33.7404C90.2466 29.7379 91.2426 26.0631 93.2346 22.716C95.2503 19.3455 97.9656 16.6771 101.38 14.711C104.795 12.7448 108.518 11.7618 112.55 11.7618C112.956 11.7618 113.357 11.773 113.75 11.7954C117.655 12.0178 122.652 9.33149 122.652 5.47081V1.40439ZM112.763 44.4489C114.732 44.4489 116.522 44.0042 118.135 43.1147C119.771 42.2019 121.052 40.9496 121.976 39.358C122.925 37.7429 123.399 35.9289 123.399 33.916C123.399 31.8796 122.937 30.0539 122.012 28.4389C121.087 26.8004 119.818 25.5131 118.206 24.5768C116.593 23.6405 114.803 23.1724 112.834 23.1724C110.866 23.1724 109.076 23.6405 107.463 24.5768C105.874 25.4897 104.617 26.7653 103.693 28.4038C102.791 30.0422 102.341 31.8796 102.341 33.916C102.341 35.9524 102.791 37.7664 103.693 39.358C104.594 40.9496 105.827 42.2019 107.392 43.1147C108.981 44.0042 110.771 44.4489 112.763 44.4489Z" fill="#BCFF06"/>
<path d="M164.282 56C159.99 56 156.136 55.0052 152.721 53.0157C149.306 51.0261 146.638 48.3461 144.718 44.9756C142.82 41.605 141.872 37.9302 141.872 33.9511C141.872 29.9252 142.773 26.227 144.575 22.8564C146.401 19.4625 148.939 16.7707 152.188 14.7812C155.436 12.7682 159.124 11.7618 163.25 11.7618C167.709 11.7618 171.574 12.7097 174.847 14.6056C178.119 16.5016 180.609 19.1231 182.317 22.4702C184.048 25.8173 184.913 29.6209 184.913 33.8809C184.913 34.8171 184.866 35.7417 184.771 36.6545C184.676 37.5206 184.178 37.9536 183.277 37.9536H160.787C157.585 37.9536 155.384 41.2271 157.923 43.1536C158.048 43.2484 158.176 43.3408 158.306 43.4307C160.203 44.7415 162.361 45.3969 164.78 45.3969C166.321 45.3969 167.709 45.1862 168.942 44.7649C170.199 44.3202 171.42 43.6882 172.606 42.869C172.914 42.6349 173.222 42.5179 173.531 42.5179C173.91 42.5179 174.254 42.7285 174.562 43.1498L178.937 49.294C179.151 49.5983 179.258 49.8909 179.258 50.1718C179.258 50.5697 179.068 50.9208 178.688 51.2251C176.72 52.7465 174.515 53.9285 172.072 54.7712C169.653 55.5904 167.056 56 164.282 56ZM166.747 29.1762C169.865 29.1762 172.167 25.9927 169.774 24.0204C169.699 23.9589 169.623 23.8986 169.547 23.8395C167.934 22.599 165.966 21.9787 163.642 21.9787C161.365 21.9787 159.385 22.6107 157.701 23.8746C157.643 23.9189 157.585 23.9638 157.529 24.0093C155.083 25.9636 157.344 29.1762 160.491 29.1762H166.747Z" fill="#BCFF06"/>
<path d="M214.744 11.7618C217.661 11.7618 220.542 12.5927 223.388 14.2545C223.886 14.5588 224.135 14.9333 224.135 15.3781C224.135 15.6355 224.064 15.9047 223.921 16.1856L219.831 23.7693C219.546 24.2842 219.179 24.5417 218.728 24.5417C218.443 24.5417 218.171 24.4598 217.91 24.2959C216.202 23.3597 214.566 22.8915 213.001 22.8915C211.507 22.8915 210.072 23.3129 208.697 24.1555C207.345 24.9981 206.242 26.2504 205.389 27.9122C204.535 29.5507 204.108 31.5285 204.108 33.8458V53.5423C204.108 54.4786 203.634 54.9467 202.685 54.9467H193.437C192.488 54.9467 192.014 54.4786 192.014 53.5423V13.8683C192.014 12.9321 192.488 12.4639 193.437 12.4639H200.515C201.298 12.4639 201.843 12.8268 202.152 13.5524C202.876 15.2584 205.385 15.4765 206.863 14.3396C207.337 13.9754 207.841 13.6428 208.377 13.3417C210.25 12.2884 212.373 11.7618 214.744 11.7618Z" fill="#BCFF06"/>
<path d="M259.016 13.8683C259.016 12.9321 259.491 12.4639 260.439 12.4639H269.688C270.636 12.4639 271.111 12.9321 271.111 13.8683V53.5423C271.111 54.4786 270.636 54.9467 269.688 54.9467H262.609C261.826 54.9467 261.281 54.5839 260.973 53.8583C260.236 52.116 257.927 51.6319 256.295 52.6179C255.37 53.1774 254.368 53.6845 253.289 54.1392C250.847 55.1457 248.511 55.6489 246.282 55.6489C242.796 55.6489 239.737 54.8648 237.104 53.2966C234.472 51.7283 232.432 49.5164 230.986 46.6608C229.539 43.7818 228.816 40.4581 228.816 36.6897V13.8683C228.816 12.9321 229.29 12.4639 230.239 12.4639H239.488C240.436 12.4639 240.91 12.9321 240.91 13.8683V35.3555C240.91 37.228 241.254 38.8782 241.942 40.306C242.653 41.7103 243.637 42.7987 244.894 43.5712C246.175 44.3436 247.657 44.7298 249.341 44.7298C251.119 44.7298 252.744 44.3202 254.214 43.5009C255.708 42.6583 256.882 41.5582 257.736 40.2006C258.589 38.8431 259.016 37.4036 259.016 35.8821V13.8683Z" fill="#BCFF06"/>
<path d="M331.775 11.4107C335.024 11.4107 337.846 12.148 340.241 13.6226C342.636 15.0738 344.486 17.2506 345.79 20.153C347.094 23.032 347.746 26.5547 347.746 30.721V53.5423C347.746 54.4786 347.272 54.9467 346.323 54.9467H337.075C336.126 54.9467 335.652 54.4786 335.652 53.5423V31.1423C335.652 28.5208 335.035 26.461 333.802 24.963C332.569 23.4416 330.802 22.6809 328.502 22.6809C327.032 22.6809 325.704 23.0554 324.518 23.8044C323.356 24.53 322.419 25.5014 321.708 26.7185C320.996 27.9356 320.581 29.2581 320.463 30.6859V53.5423C320.463 54.4786 319.989 54.9467 319.04 54.9467H309.791C308.843 54.9467 308.369 54.4786 308.369 53.5423V31.1423C308.369 28.5208 307.752 26.461 306.519 24.963C305.286 23.4416 303.519 22.6809 301.219 22.6809C299.654 22.6809 298.254 23.1022 297.021 23.9448C295.812 24.7641 294.863 25.8525 294.176 27.21C293.488 28.5676 293.144 30.0071 293.144 31.5285V53.5423C293.144 54.4786 292.67 54.9467 291.721 54.9467H282.473C281.524 54.9467 281.05 54.4786 281.05 53.5423V13.8683C281.05 12.9321 281.524 12.4639 282.473 12.4639H289.551C289.954 12.4639 290.286 12.5576 290.547 12.7448C290.808 12.9087 291.022 13.1778 291.188 13.5524C291.645 14.646 293.052 14.982 294.06 14.3424C295.216 13.6093 296.452 13.0066 297.768 12.5342C299.855 11.7852 302.096 11.4107 304.491 11.4107C307.29 11.4107 309.78 11.9607 311.961 13.0608C312.23 13.1961 312.492 13.3392 312.748 13.4901C315.483 15.1009 319.429 15.3916 322.191 13.8278C322.656 13.5647 323.135 13.3207 323.629 13.0959C326.119 11.9724 328.834 11.4107 331.775 11.4107Z" fill="#BCFF06"/>
<path d="M378.907 11.7618C382.939 11.7618 386.662 12.7448 390.077 14.711C393.492 16.6771 396.195 19.3455 398.187 22.716C400.203 26.0631 401.211 29.7379 401.211 33.7404C401.211 37.7664 400.215 41.4763 398.223 44.8702C396.231 48.2408 393.527 50.9208 390.112 52.9103C386.698 54.8765 382.963 55.8596 378.907 55.8596C375.289 55.8596 372.166 54.9672 369.536 53.1826C368.614 52.5565 367.279 52.8385 366.849 53.8583C366.54 54.5839 365.995 54.9467 365.212 54.9467H358.134C357.185 54.9467 356.711 54.4786 356.711 53.5423V1.40439C356.711 0.46813 357.185 0 358.134 0H367.382C368.331 0 368.805 0.46813 368.805 1.40439V5.47081C368.805 9.33149 373.802 12.0178 377.707 11.7954C378.101 11.773 378.501 11.7618 378.907 11.7618ZM378.694 44.4489C380.686 44.4489 382.465 44.0042 384.03 43.1147C385.618 42.2019 386.864 40.9496 387.765 39.358C388.666 37.7664 389.116 35.9524 389.116 33.916C389.116 31.8796 388.654 30.0422 387.729 28.4038C386.828 26.7653 385.571 25.4897 383.958 24.5768C382.37 23.6405 380.591 23.1724 378.623 23.1724C376.655 23.1724 374.864 23.6405 373.251 24.5768C371.639 25.5131 370.37 26.8004 369.445 28.4389C368.521 30.0539 368.058 31.8796 368.058 33.916C368.058 35.9289 368.521 37.7429 369.445 39.358C370.394 40.9496 371.674 42.2019 373.287 43.1147C374.923 44.0042 376.726 44.4489 378.694 44.4489Z" fill="#BCFF06"/>
<path d="M420.324 52.3994C420.324 53.3357 419.995 54.9467 417.958 54.9467H410.438C409.028 54.9467 408.336 53.3357 408.336 52.3994V2.78365C408.336 1.84739 408.968 0.0702194 410.692 0.0702194H418.056C419.623 0.0702194 420.324 1.84739 420.324 2.78365V52.3994Z" fill="#BCFF06"/>
<path d="M449.869 56C445.576 56 441.723 55.0052 438.308 53.0157C434.893 51.0261 432.225 48.3461 430.304 44.9756C428.407 41.605 427.458 37.9302 427.458 33.9511C427.458 29.9252 428.36 26.227 430.162 22.8564C431.988 19.4625 434.525 16.7707 437.774 14.7812C441.023 12.7682 444.711 11.7618 448.837 11.7618C453.295 11.7618 457.161 12.7097 460.433 14.6056C463.706 16.5016 466.196 19.1231 467.903 22.4702C469.634 25.8173 470.5 29.6209 470.5 33.8809C470.5 34.8171 470.453 35.7417 470.358 36.6545C470.263 37.5206 469.765 37.9536 468.864 37.9536H446.374C443.171 37.9536 440.971 41.2271 443.51 43.1536C443.635 43.2484 443.762 43.3408 443.893 43.4307C445.79 44.7415 447.948 45.3969 450.367 45.3969C451.908 45.3969 453.295 45.1862 454.528 44.7649C455.785 44.3202 457.007 43.6882 458.192 42.869C458.501 42.6349 458.809 42.5179 459.117 42.5179C459.497 42.5179 459.84 42.7285 460.149 43.1498L464.524 49.294C464.737 49.5983 464.844 49.8909 464.844 50.1718C464.844 50.5697 464.654 50.9208 464.275 51.2251C462.307 52.7465 460.101 53.9285 457.659 54.7712C455.24 55.5904 452.643 56 449.869 56ZM452.334 29.1762C455.451 29.1762 457.753 25.9927 455.36 24.0204C455.286 23.9589 455.21 23.8986 455.133 23.8395C453.521 22.599 451.552 21.9787 449.228 21.9787C446.952 21.9787 444.972 22.6107 443.288 23.8746C443.23 23.9189 443.172 23.9638 443.115 24.0093C440.669 25.9636 442.931 29.1762 446.077 29.1762H452.334Z" fill="#BCFF06"/>
</svg>
