<svg width="185" height="192" viewBox="0 0 185 192" fill="none" xmlns="http://www.w3.org/2000/svg">
<path fill-rule="evenodd" clip-rule="evenodd" d="M135.387 0C162.61 0 184.678 22.0681 184.678 49.2904C184.678 65.4767 176.875 79.8403 164.827 88.8263C161.589 91.2407 161.589 96.8808 164.827 99.2951C176.875 108.281 184.678 122.645 184.678 138.831C184.678 166.053 162.61 188.121 135.387 188.121C121.029 188.121 108.105 181.982 99.0966 172.186C95.6788 168.469 88.9988 168.469 85.581 172.186C76.5724 181.982 63.6484 188.121 49.2904 188.121C22.0681 188.121 0 166.053 0 138.831C0 122.645 7.80218 108.281 19.8507 99.2951C23.0879 96.8807 23.0879 91.2407 19.8507 88.8264C7.80218 79.8403 0 65.4767 0 49.2904C0 22.0681 22.0681 0 49.2904 0C65.0315 0 79.0493 7.37869 88.0735 18.866C90.153 21.5131 94.5247 21.5131 96.6041 18.866C105.628 7.37869 119.646 0 135.387 0ZM99.0966 82.6453C95.6788 78.9286 88.9988 78.9286 85.581 82.6453C82.6582 85.8237 79.3231 88.6168 75.6607 90.9403C73.4907 92.3169 73.4907 95.8037 75.6607 97.1804C80.4106 100.194 84.6099 103.998 88.0735 108.407C90.153 111.054 94.5247 111.054 96.6041 108.407C100.068 103.998 104.267 100.194 109.017 97.1804C111.187 95.8037 111.187 92.3169 109.017 90.9402C105.354 88.6168 102.019 85.8236 99.0966 82.6453Z" fill="white"/>
<path d="M51.2366 72.6082C46.8515 72.6082 42.8445 71.5497 39.2155 69.4328C35.608 67.3158 32.7567 64.4537 30.6613 60.8462C28.5876 57.2388 27.5507 53.275 27.5507 48.9547C27.5507 44.6344 28.5876 40.6706 30.6613 37.0632C32.7567 33.4557 35.608 30.6152 39.2155 28.5414C42.8229 26.4461 46.8299 25.3984 51.2366 25.3984C53.9152 25.3984 56.4749 25.8089 58.9159 26.6297C61.3785 27.4506 63.6034 28.6062 65.5907 30.0967C65.9579 30.3775 66.1415 30.7016 66.1415 31.0688C66.1415 31.3496 66.0335 31.6304 65.8175 31.9112L60.5684 38.7805C60.266 39.1477 59.942 39.3313 59.5963 39.3313C59.3155 39.3313 59.0347 39.2341 58.7539 39.0397C57.6522 38.2836 56.4533 37.6896 55.1573 37.2576C53.8612 36.8039 52.5543 36.5771 51.2366 36.5771C49.1413 36.5771 47.1864 37.128 45.3719 38.2296C43.5573 39.3097 42.0993 40.8002 40.9976 42.7011C39.9175 44.602 39.3775 46.6974 39.3775 48.9871C39.3775 51.2768 39.9175 53.3722 40.9976 55.2731C42.0993 57.174 43.5573 58.6753 45.3719 59.777C47.208 60.8787 49.1629 61.4295 51.2366 61.4295C52.7271 61.4295 54.034 61.2459 55.1573 60.8786C56.3021 60.4898 57.5226 59.831 58.8187 58.9021C59.1211 58.7077 59.4127 58.6105 59.6935 58.6105C60.0608 58.6105 60.3848 58.7941 60.6656 59.1613L65.8175 66.063C66.0551 66.4086 66.174 66.711 66.174 66.9702C66.174 67.2726 66.0119 67.5535 65.6879 67.8127C63.679 69.3464 61.4433 70.5345 58.9807 71.3769C56.5181 72.1978 53.9368 72.6082 51.2366 72.6082Z" fill="#1C1C1C"/>
<path d="M48.4855 166.497C44.3365 166.497 40.6602 165.762 37.4565 164.292C34.2529 162.821 31.732 160.72 29.8938 157.989C28.1082 155.206 27.2153 151.923 27.2153 148.142V146.724H37.299V147.827C37.299 150.768 38.3231 153.131 40.3714 154.917C42.4196 156.65 45.1243 157.517 48.4855 157.517C51.8993 157.517 54.5252 156.703 56.3634 155.075C58.2541 153.446 59.1994 151.398 59.1994 148.93V148.142C59.1994 146.461 58.7793 145.096 57.939 144.046C57.0987 142.995 55.9695 142.234 54.5515 141.761C53.1335 141.236 51.5317 140.973 49.746 140.973H38.717V129.944L56.521 120.491V119.23H28.6334V110.25H67.7075V123.642L51.0852 132.465V133.726H54C56.4684 133.726 58.8581 134.224 61.1689 135.222C63.5323 136.22 65.4755 137.77 66.9985 139.87C68.5216 141.919 69.2831 144.597 69.2831 147.906V148.851C69.2831 152.422 68.4165 155.547 66.6834 158.226C64.9503 160.852 62.5081 162.9 59.357 164.37C56.2584 165.788 52.6346 166.497 48.4855 166.497Z" fill="#1C1C1C"/>
<path d="M122.492 71.8881C121.628 71.8881 121.196 71.4561 121.196 70.592V27.6594C121.196 26.7953 121.628 26.3633 122.492 26.3633H140.864C143.997 26.3633 146.772 27.0221 149.192 28.3398C151.611 29.6359 153.49 31.4612 154.83 33.8157C156.19 36.1487 156.871 38.8273 156.871 41.8514C156.871 44.746 156.277 47.2302 155.089 49.3039C154.353 50.5745 153.435 51.7002 152.335 52.6809C151.163 53.726 150.641 55.408 151.344 56.812L158.135 70.3652C158.264 70.6244 158.329 70.8512 158.329 71.0457C158.329 71.3049 158.221 71.5101 158.005 71.6613C157.811 71.8125 157.541 71.8881 157.195 71.8881H146.826C146.113 71.8881 145.606 71.5641 145.303 70.9161L139.543 58.6022C139.187 57.841 138.4 57.372 137.559 57.372H135.874C134.21 57.372 132.861 58.7211 132.861 60.3854V70.592C132.861 71.4561 132.429 71.8881 131.565 71.8881H122.492ZM139.795 47.4894C140.789 47.4894 141.685 47.2302 142.484 46.7117C143.284 46.1933 143.91 45.5021 144.364 44.638C144.817 43.774 145.044 42.8559 145.044 41.8838C145.044 40.1773 144.547 38.8705 143.554 37.9632C142.56 37.0343 141.34 36.5699 139.892 36.5699H135.874C134.21 36.5699 132.861 37.9191 132.861 39.5833V44.476C132.861 46.1403 134.21 47.4894 135.874 47.4894H139.795Z" fill="#1C1C1C"/>
<circle cx="92.5534" cy="136.89" r="6.02677" fill="#4159F5"/>
<circle cx="92.5534" cy="49.0697" r="6.02677" fill="#BCFF06"/>
<path d="M137.019 166.06C130.507 166.06 125.281 164.274 121.342 160.703C117.403 157.079 115.434 151.617 115.434 144.317V130.452C115.434 123.362 117.403 117.979 121.342 114.302C125.281 110.574 130.507 108.709 137.019 108.709C143.584 108.709 148.809 110.574 152.696 114.302C156.635 117.979 158.604 123.362 158.604 130.452V144.317C158.604 151.617 156.635 157.079 152.696 160.703C148.809 164.274 143.584 166.06 137.019 166.06ZM137.019 157.079C140.958 157.079 143.846 156.003 145.685 153.849C147.575 151.696 148.521 148.624 148.521 144.632V129.979C148.521 125.935 147.47 122.889 145.369 120.841C143.321 118.74 140.538 117.69 137.019 117.69C133.395 117.69 130.559 118.767 128.511 120.92C126.515 123.073 125.517 126.093 125.517 129.979V144.632C125.517 148.781 126.463 151.906 128.353 154.007C130.296 156.055 133.185 157.079 137.019 157.079Z" fill="#1C1C1C"/>
</svg>
