<svg width="70" height="69" viewBox="0 0 70 69" fill="none" xmlns="http://www.w3.org/2000/svg">
<path fill-rule="evenodd" clip-rule="evenodd" d="M50.7733 0C60.8844 0 69.0812 8.03893 69.0812 17.9554C69.0812 23.8518 66.1832 29.0841 61.708 32.3575C60.5056 33.237 60.5056 35.2916 61.708 36.1711C66.1832 39.4445 69.0812 44.6769 69.0812 50.5732C69.0812 60.4897 60.8844 68.5286 50.7733 68.5286C45.4403 68.5286 40.64 66.2923 37.2939 62.7237C36.0244 61.3697 33.5433 61.3697 32.2738 62.7237C28.9278 66.2923 24.1274 68.5286 18.7945 68.5286C8.68329 68.5286 0.486572 60.4897 0.486572 50.5732C0.486572 44.6769 3.38453 39.4445 7.85971 36.1711C9.06207 35.2916 9.06207 33.237 7.85971 32.3576C3.38453 29.0841 0.486572 23.8518 0.486572 17.9554C0.486572 8.03893 8.68329 0 18.7945 0C24.6412 0 29.8478 2.6879 33.1996 6.8725C33.972 7.83678 35.5958 7.83678 36.3681 6.8725C39.72 2.6879 44.9266 0 50.7733 0ZM37.2939 30.1059C36.0244 28.752 33.5433 28.752 32.2738 30.1059C31.1882 31.2637 29.9495 32.2812 28.5891 33.1276C27.7831 33.6291 27.7831 34.8993 28.5891 35.4008C30.3534 36.4985 31.9131 37.8841 33.1996 39.4902C33.972 40.4545 35.5958 40.4545 36.3681 39.4902C37.6546 37.8842 39.2143 36.4985 40.9785 35.4008C41.7845 34.8992 41.7845 33.6291 40.9785 33.1276C39.6182 32.2812 38.3795 31.2637 37.2939 30.1059Z" fill="white"/>
<path d="M19.5172 26.4495C17.8884 26.4495 16.4001 26.0639 15.0522 25.2927C13.7123 24.5216 12.6532 23.479 11.8749 22.1648C11.1047 20.8507 10.7196 19.4068 10.7196 17.833C10.7196 16.2592 11.1047 14.8153 11.8749 13.5012C12.6532 12.1871 13.7123 11.1523 15.0522 10.3969C16.3921 9.63361 17.8804 9.25197 19.5172 9.25197C20.5121 9.25197 21.4628 9.40148 22.3695 9.7005C23.2841 9.99951 24.1105 10.4205 24.8487 10.9635C24.9851 11.0658 25.0533 11.1838 25.0533 11.3176C25.0533 11.4199 25.0132 11.5221 24.9329 11.6244L22.9833 14.1268C22.8709 14.2605 22.7506 14.3274 22.6222 14.3274C22.5179 14.3274 22.4136 14.292 22.3093 14.2212C21.9001 13.9458 21.4548 13.7294 20.9734 13.572C20.492 13.4068 20.0066 13.3241 19.5172 13.3241C18.7389 13.3241 18.0128 13.5248 17.3388 13.9261C16.6649 14.3195 16.1233 14.8625 15.7141 15.555C15.3129 16.2474 15.1123 17.0107 15.1123 17.8448C15.1123 18.6789 15.3129 19.4422 15.7141 20.1347C16.1233 20.8271 16.6649 21.374 17.3388 21.7753C18.0208 22.1767 18.7469 22.3773 19.5172 22.3773C20.0708 22.3773 20.5562 22.3104 20.9734 22.1767C21.3987 22.035 21.852 21.795 22.3334 21.4566C22.4457 21.3858 22.554 21.3504 22.6583 21.3504C22.7947 21.3504 22.9151 21.4173 23.0194 21.5511L24.9329 24.0652C25.0212 24.1911 25.0653 24.3013 25.0653 24.3957C25.0653 24.5058 25.0052 24.6081 24.8848 24.7026C24.1386 25.2613 23.3082 25.6941 22.3935 26.0009C21.4789 26.3 20.5201 26.4495 19.5172 26.4495Z" fill="#1C1C1C"/>
<path d="M18.4956 60.4604C16.9546 60.4604 15.5891 60.1925 14.3991 59.6568C13.2092 59.1212 12.2729 58.3559 11.5901 57.3611C10.9269 56.3471 10.5953 55.1514 10.5953 53.7739V53.2573H14.3406V53.6591C14.3406 54.7305 14.721 55.5914 15.4818 56.2419C16.2426 56.8732 17.2472 57.1889 18.4956 57.1889C19.7636 57.1889 20.7389 56.8923 21.4217 56.2993C22.1239 55.7062 22.4751 54.96 22.4751 54.0609V53.7739C22.4751 53.1617 22.319 52.6643 22.0069 52.2816C21.6948 51.899 21.2754 51.6216 20.7487 51.4494C20.222 51.2581 19.627 51.1624 18.9638 51.1624H14.8673V47.1448L21.4802 43.7011V43.242H11.1219V39.9705H25.6352V44.849L19.4612 48.0631V48.5223H20.5439C21.4607 48.5223 22.3483 48.704 23.2066 49.0675C24.0844 49.431 24.8062 49.9954 25.3719 50.7607C25.9376 51.5068 26.2204 52.4825 26.2204 53.6878V54.0322C26.2204 55.3331 25.8986 56.4714 25.2548 57.4471C24.6111 58.4037 23.704 59.1499 22.5336 59.6855C21.3827 60.2021 20.0367 60.4604 18.4956 60.4604Z" fill="#1C1C1C"/>
<path d="M45.9838 26.1885C45.6629 26.1885 45.5024 26.0311 45.5024 25.7164V10.0769C45.5024 9.76217 45.6629 9.60479 45.9838 9.60479H52.8077C53.971 9.60479 55.0021 9.84479 55.9007 10.3248C56.7993 10.7969 57.4973 11.4619 57.9948 12.3196C58.5002 13.1694 58.753 14.1452 58.753 15.2468C58.753 16.3012 58.5323 17.2062 58.091 17.9616C57.8178 18.4244 57.4769 18.8345 57.0684 19.1918C56.633 19.5725 56.439 20.1852 56.7002 20.6966L59.2223 25.6338C59.2705 25.7282 59.2945 25.8108 59.2945 25.8816C59.2945 25.9761 59.2544 26.0508 59.1742 26.1059C59.102 26.161 59.0017 26.1885 58.8733 26.1885H55.0221C54.7573 26.1885 54.5688 26.0705 54.4565 25.8344L52.317 21.3487C52.1847 21.0714 51.8922 20.9006 51.5801 20.9006H50.9543C50.3361 20.9006 49.835 21.3921 49.835 21.9983V25.7164C49.835 26.0311 49.6745 26.1885 49.3536 26.1885H45.9838ZM52.4105 17.3006C52.7796 17.3006 53.1125 17.2062 53.4094 17.0173C53.7063 16.8285 53.939 16.5766 54.1074 16.2619C54.2759 15.9471 54.3602 15.6127 54.3602 15.2586C54.3602 14.637 54.1756 14.1609 53.8066 13.8304C53.4375 13.492 52.9842 13.3229 52.4466 13.3229H50.9543C50.3361 13.3229 49.835 13.8143 49.835 14.4206V16.2029C49.835 16.8091 50.3361 17.3006 50.9543 17.3006H52.4105Z" fill="#1C1C1C"/>
<path d="M37.1022 49.8676C37.1022 51.0801 36.0999 52.063 34.8636 52.063C33.6273 52.063 32.6251 51.0801 32.6251 49.8676C32.6251 48.6551 33.6273 47.6721 34.8636 47.6721C36.0999 47.6721 37.1022 48.6551 37.1022 49.8676Z" fill="#4159F5"/>
<path d="M37.1022 17.877C37.1022 19.0895 36.0999 20.0724 34.8636 20.0724C33.6273 20.0724 32.6251 19.0895 32.6251 17.877C32.6251 16.6645 33.6273 15.6816 34.8636 15.6816C36.0999 15.6816 37.1022 16.6645 37.1022 17.877Z" fill="#BCFF06"/>
<path d="M51.3793 60.3024C48.9605 60.3024 47.0195 59.6519 45.5565 58.3509C44.0934 57.0309 43.3619 55.0412 43.3619 52.3819V47.3312C43.3619 44.7484 44.0934 42.7874 45.5565 41.4482C47.0195 40.0899 48.9605 39.4107 51.3793 39.4107C53.8177 39.4107 55.7587 40.0899 57.2022 41.4482C58.6652 42.7874 59.3968 44.7484 59.3968 47.3312V52.3819C59.3968 55.0412 58.6652 57.0309 57.2022 58.3509C55.7587 59.6519 53.8177 60.3024 51.3793 60.3024ZM51.3793 57.0309C52.8424 57.0309 53.9153 56.6387 54.598 55.8543C55.3003 55.0699 55.6514 53.9507 55.6514 52.4967V47.159C55.6514 45.6858 55.2612 44.5762 54.481 43.8301C53.7202 43.0648 52.6863 42.6822 51.3793 42.6822C50.0333 42.6822 48.98 43.0744 48.2192 43.8588C47.4779 44.6432 47.1073 45.7432 47.1073 47.159V52.4967C47.1073 54.0081 47.4584 55.1464 48.1607 55.9117C48.8824 56.6578 49.9553 57.0309 51.3793 57.0309Z" fill="#1C1C1C"/>
</svg>