<svg width="170" height="177" viewBox="0 0 170 177" fill="none" xmlns="http://www.w3.org/2000/svg">
<path d="M79.9095 105.02L98.5441 100.026C98.5441 100.026 96.3214 110.175 97.9465 116.165C99.5511 122.079 106.48 129.642 106.48 129.642L87.845 134.635C87.845 134.635 90.0855 124.72 88.4961 118.697C86.8871 112.599 79.9095 105.02 79.9095 105.02Z" fill="white"/>
<mask id="path-2-inside-1_3997_98" fill="white">
<path d="M26.5769 40.647C23.4382 41.4873 20.6372 43.1758 18.4185 45.5648C16.1999 47.9537 14.6303 50.971 13.8461 54.3543C13.062 57.7379 13.0872 61.3853 13.9197 64.9785C14.7522 68.5718 16.3665 72.0026 18.6225 74.972C20.8785 77.9414 23.708 80.3597 26.8642 82.0164C30.0204 83.673 33.4079 84.5181 36.7321 84.4779C40.0563 84.4377 43.2167 83.5135 45.9379 81.7858C48.659 80.058 50.8587 77.5784 52.3456 74.5639L57.6143 78.0738C55.7031 81.9484 52.876 85.1349 49.3785 87.3556C45.881 89.5763 41.8193 90.7643 37.5468 90.8161C33.2743 90.8677 28.9206 89.7812 24.864 87.6519C20.8076 85.5226 17.1708 82.415 14.2713 78.5987C11.3717 74.7822 9.29618 70.3722 8.22619 65.7539C7.15628 61.1357 7.12349 56.4481 8.13127 52.0994C9.1391 47.7506 11.1572 43.8721 14.009 40.8015C16.8609 37.731 20.4609 35.5616 24.4952 34.4815L26.5769 40.647ZM109.573 11.685C113.607 10.6033 117.809 10.6823 121.814 11.9154C125.818 13.1487 129.506 15.4986 132.553 18.7607C135.6 22.023 137.915 26.099 139.298 30.6334C140.68 35.168 141.088 40.0249 140.485 44.7798C139.882 49.5345 138.287 54.0441 135.839 57.9163C133.39 61.7887 130.163 64.9066 126.436 66.9981C122.711 69.0895 118.599 70.0916 114.46 69.9171C110.32 69.7426 106.279 68.3967 102.686 65.9967L105.494 60.3228C108.289 62.1901 111.434 63.2375 114.654 63.3732C117.875 63.509 121.074 62.729 123.973 61.1018C126.872 59.4746 129.383 57.0488 131.288 54.0361C133.193 51.0233 134.434 47.5141 134.903 43.8146C135.372 40.1151 135.055 36.3367 133.979 32.8086C132.904 29.2806 131.103 26.109 128.732 23.5708C126.361 21.0326 123.492 19.2048 120.376 18.2452C117.26 17.2856 113.991 17.2238 110.852 18.0655L109.573 11.685Z"/>
</mask>
<path d="M26.5769 40.647C23.4382 41.4873 20.6372 43.1758 18.4185 45.5648C16.1999 47.9537 14.6303 50.971 13.8461 54.3543C13.062 57.7379 13.0872 61.3853 13.9197 64.9785C14.7522 68.5718 16.3665 72.0026 18.6225 74.972C20.8785 77.9414 23.708 80.3597 26.8642 82.0164C30.0204 83.673 33.4079 84.5181 36.7321 84.4779C40.0563 84.4377 43.2167 83.5135 45.9379 81.7858C48.659 80.058 50.8587 77.5784 52.3456 74.5639L57.6143 78.0738C55.7031 81.9484 52.876 85.1349 49.3785 87.3556C45.881 89.5763 41.8193 90.7643 37.5468 90.8161C33.2743 90.8677 28.9206 89.7812 24.864 87.6519C20.8076 85.5226 17.1708 82.415 14.2713 78.5987C11.3717 74.7822 9.29618 70.3722 8.22619 65.7539C7.15628 61.1357 7.12349 56.4481 8.13127 52.0994C9.1391 47.7506 11.1572 43.8721 14.009 40.8015C16.8609 37.731 20.4609 35.5616 24.4952 34.4815L26.5769 40.647ZM109.573 11.685C113.607 10.6033 117.809 10.6823 121.814 11.9154C125.818 13.1487 129.506 15.4986 132.553 18.7607C135.6 22.023 137.915 26.099 139.298 30.6334C140.68 35.168 141.088 40.0249 140.485 44.7798C139.882 49.5345 138.287 54.0441 135.839 57.9163C133.39 61.7887 130.163 64.9066 126.436 66.9981C122.711 69.0895 118.599 70.0916 114.46 69.9171C110.32 69.7426 106.279 68.3967 102.686 65.9967L105.494 60.3228C108.289 62.1901 111.434 63.2375 114.654 63.3732C117.875 63.509 121.074 62.729 123.973 61.1018C126.872 59.4746 129.383 57.0488 131.288 54.0361C133.193 51.0233 134.434 47.5141 134.903 43.8146C135.372 40.1151 135.055 36.3367 133.979 32.8086C132.904 29.2806 131.103 26.109 128.732 23.5708C126.361 21.0326 123.492 19.2048 120.376 18.2452C117.26 17.2856 113.991 17.2238 110.852 18.0655L109.573 11.685Z" fill="#BCFF06"/>
<path d="M26.5769 40.647L27.3529 43.5449L30.4425 42.7176L29.4193 39.6873L26.5769 40.647ZM18.4185 45.5648L16.2203 43.5232L16.2202 43.5233L18.4185 45.5648ZM13.8461 54.3543L10.9236 53.677L10.9236 53.677L13.8461 54.3543ZM13.9197 64.9785L10.9971 65.6556L10.9971 65.6557L13.9197 64.9785ZM18.6225 74.972L16.2337 76.7869L16.2337 76.7869L18.6225 74.972ZM26.8642 82.0164L25.4699 84.6727L25.47 84.6727L26.8642 82.0164ZM36.7321 84.4779L36.7684 87.4777L36.7684 87.4777L36.7321 84.4779ZM45.9379 81.7858L47.5459 84.3184L47.546 84.3184L45.9379 81.7858ZM52.3456 74.5639L54.0089 72.0672L51.1662 70.1734L49.6551 73.2368L52.3456 74.5639ZM57.6143 78.0738L60.3048 79.4008L61.4703 77.0379L59.2775 75.5771L57.6143 78.0738ZM49.3785 87.3556L50.9866 89.8882L50.9866 89.8882L49.3785 87.3556ZM37.5468 90.8161L37.5831 93.8158L37.5831 93.8158L37.5468 90.8161ZM24.864 87.6519L23.4697 90.3082L23.4697 90.3082L24.864 87.6519ZM14.2713 78.5987L11.8825 80.4136L11.8825 80.4136L14.2713 78.5987ZM8.22619 65.7539L5.30359 66.431L5.3036 66.4311L8.22619 65.7539ZM8.13127 52.0994L5.20873 51.4221L5.20872 51.4221L8.13127 52.0994ZM14.009 40.8015L11.8109 38.7599L11.8108 38.76L14.009 40.8015ZM24.4952 34.4815L27.3376 33.5218L26.4375 30.8559L23.7194 31.5836L24.4952 34.4815ZM109.573 11.685L108.796 8.78734L106.079 9.51604L106.632 12.2746L109.573 11.685ZM121.814 11.9154L122.696 9.04826L122.696 9.04824L121.814 11.9154ZM132.553 18.7607L134.745 16.7129L134.745 16.7129L132.553 18.7607ZM139.298 30.6334L142.167 29.7585L142.167 29.7585L139.298 30.6334ZM140.485 44.7798L143.461 45.1573L143.461 45.1572L140.485 44.7798ZM135.839 57.9163L138.375 59.5195L138.375 59.5195L135.839 57.9163ZM126.436 66.9981L127.905 69.6142L127.905 69.6142L126.436 66.9981ZM114.46 69.9171L114.333 72.9145L114.333 72.9145L114.46 69.9171ZM102.686 65.9967L99.9976 64.6662L98.829 67.0276L101.02 68.4912L102.686 65.9967ZM105.494 60.3228L107.161 57.8282L104.32 55.9307L102.805 58.9922L105.494 60.3228ZM114.654 63.3732L114.528 66.3706L114.528 66.3706L114.654 63.3732ZM123.973 61.1018L125.441 63.7179L125.441 63.7179L123.973 61.1018ZM131.288 54.0361L133.824 55.6395L133.824 55.6394L131.288 54.0361ZM134.903 43.8146L137.88 44.192L137.88 44.192L134.903 43.8146ZM133.979 32.8086L136.849 31.9338L136.849 31.9337L133.979 32.8086ZM128.732 23.5708L130.924 21.5229L130.924 21.5229L128.732 23.5708ZM120.376 18.2452L121.259 15.3781L121.259 15.3781L120.376 18.2452ZM110.852 18.0655L107.911 18.6551L108.539 21.7917L111.629 20.9631L110.852 18.0655ZM26.5769 40.647L25.801 37.749C22.115 38.7359 18.8217 40.7222 16.2203 43.5232L18.4185 45.5648L20.6166 47.6063C22.4527 45.6294 24.7613 44.2388 27.3529 43.5449L26.5769 40.647ZM18.4185 45.5648L16.2202 43.5233C13.6219 46.321 11.818 49.818 10.9236 53.677L13.8461 54.3543L16.7687 55.0316C17.4426 52.124 18.7778 49.5864 20.6167 47.6063L18.4185 45.5648ZM13.8461 54.3543L10.9236 53.677C10.0299 57.5335 10.0679 61.645 10.9971 65.6556L13.9197 64.9785L16.8423 64.3014C16.1065 61.1256 16.0942 57.9422 16.7687 55.0316L13.8461 54.3543ZM13.9197 64.9785L10.9971 65.6557C11.9263 69.6661 13.7242 73.4839 16.2337 76.7869L18.6225 74.972L21.0113 73.1571C19.0087 70.5213 17.5781 67.4775 16.8423 64.3014L13.9197 64.9785ZM18.6225 74.972L16.2337 76.7869C18.7431 80.0897 21.9067 82.8023 25.4699 84.6727L26.8642 82.0164L28.2586 79.3601C25.5094 77.917 23.0139 75.793 21.0113 73.1571L18.6225 74.972ZM26.8642 82.0164L25.47 84.6727C29.0342 86.5436 32.9105 87.5244 36.7684 87.4777L36.7321 84.4779L36.6958 81.4781C33.9054 81.5119 31.0065 80.8025 28.2585 79.3601L26.8642 82.0164ZM36.7321 84.4779L36.7684 87.4777C40.6312 87.431 44.3391 86.3545 47.5459 84.3184L45.9379 81.7858L44.3298 79.2532C42.0944 80.6725 39.4813 81.4444 36.6958 81.4782L36.7321 84.4779ZM45.9379 81.7858L47.546 84.3184C50.7522 82.2826 53.3168 79.3767 55.0361 75.891L52.3456 74.5639L49.6551 73.2368C48.4006 75.7802 46.5658 77.8334 44.3298 79.2532L45.9379 81.7858ZM52.3456 74.5639L50.6824 77.0606L55.951 80.5705L57.6143 78.0738L59.2775 75.5771L54.0089 72.0672L52.3456 74.5639ZM57.6143 78.0738L54.9237 76.7467C53.2451 80.15 50.7829 82.9102 47.7704 84.823L49.3785 87.3556L50.9866 89.8882C54.9691 87.3595 58.1612 83.7467 60.3048 79.4008L57.6143 78.0738ZM49.3785 87.3556L47.7705 84.823C44.7586 86.7353 41.2442 87.7711 37.5105 87.8163L37.5468 90.8161L37.5831 93.8158C42.3945 93.7576 47.0035 92.4172 50.9866 89.8882L49.3785 87.3556ZM37.5468 90.8161L37.5105 87.8163C33.7719 87.8615 29.9069 86.9107 26.2583 84.9956L24.864 87.6519L23.4697 90.3082C27.9342 92.6516 32.7766 93.874 37.5831 93.8158L37.5468 90.8161ZM24.864 87.6519L26.2584 84.9956C22.6087 83.0799 19.3061 80.2665 16.66 76.7838L14.2713 78.5987L11.8825 80.4136C15.0356 84.5635 19.0064 87.9653 23.4697 90.3082L24.864 87.6519ZM14.2713 78.5987L16.6601 76.7838C14.0138 73.3008 12.1221 69.2777 11.1488 65.0768L8.22619 65.7539L5.3036 66.4311C6.4703 71.4668 8.72958 76.2637 11.8825 80.4136L14.2713 78.5987ZM8.22619 65.7539L11.1488 65.0768C10.1755 60.8758 10.1557 56.6523 11.0538 52.7766L8.13127 52.0994L5.20872 51.4221C4.0913 56.2439 4.13704 61.3957 5.30359 66.431L8.22619 65.7539ZM8.13127 52.0994L11.0538 52.7767C11.9514 48.9038 13.735 45.505 16.2072 42.8431L14.009 40.8015L11.8108 38.76C8.57943 42.2392 6.32685 46.5974 5.20873 51.4221L8.13127 52.0994ZM14.009 40.8015L16.2072 42.8431C18.6761 40.1848 21.7837 38.3131 25.2711 37.3795L24.4952 34.4815L23.7194 31.5836C19.1381 32.8101 15.0456 35.2771 11.8109 38.7599L14.009 40.8015ZM24.4952 34.4815L21.6529 35.4412L23.7346 41.6067L26.5769 40.647L29.4193 39.6873L27.3376 33.5218L24.4952 34.4815ZM109.573 11.685L110.35 14.5826C113.837 13.6476 117.463 13.7149 120.931 14.7826L121.814 11.9154L122.696 9.04824C118.154 7.64958 113.377 7.55901 108.796 8.78734L109.573 11.685ZM121.814 11.9154L120.931 14.7825C124.402 15.8516 127.647 17.9034 130.36 20.8086L132.553 18.7607L134.745 16.7129C131.364 13.0937 127.234 10.4457 122.696 9.04826L121.814 11.9154ZM132.553 18.7607L130.36 20.8086C133.076 23.7159 135.171 27.3835 136.428 31.5083L139.298 30.6334L142.167 29.7585C140.66 24.8145 138.124 20.33 134.745 16.7129L132.553 18.7607ZM139.298 30.6334L136.428 31.5083C137.686 35.633 138.059 40.063 137.509 44.4025L140.485 44.7798L143.461 45.1572C144.117 39.9868 143.675 34.7029 142.167 29.7585L139.298 30.6334ZM140.485 44.7798L137.509 44.4024C136.959 48.7419 135.506 52.8295 133.303 56.313L135.839 57.9163L138.375 59.5195C141.069 55.2587 142.806 50.3272 143.461 45.1573L140.485 44.7798ZM135.839 57.9163L133.303 56.313C131.101 59.7958 128.229 62.5518 124.968 64.3821L126.436 66.9981L127.905 69.6142C132.096 67.2614 135.68 63.7815 138.375 59.5195L135.839 57.9163ZM126.436 66.9981L124.968 64.3821C121.712 66.2098 118.15 67.0701 114.586 66.9198L114.46 69.9171L114.333 72.9145C119.047 73.1132 123.709 71.9693 127.905 69.6142L126.436 66.9981ZM114.46 69.9171L114.586 66.9198C111.021 66.7695 107.508 65.6102 104.353 63.5022L102.686 65.9967L101.02 68.4912C105.049 71.1832 109.62 72.7158 114.333 72.9145L114.46 69.9171ZM102.686 65.9967L105.375 67.3273L108.183 61.6533L105.494 60.3228L102.805 58.9922L99.9976 64.6662L102.686 65.9967ZM105.494 60.3228L103.828 62.8173C107.06 64.9765 110.733 66.2106 114.528 66.3706L114.654 63.3732L114.781 60.3759C112.134 60.2644 109.519 59.4037 107.161 57.8282L105.494 60.3228ZM114.654 63.3732L114.528 66.3706C118.324 66.5306 122.073 65.6087 125.441 63.7179L123.973 61.1018L122.505 58.4858C120.075 59.8493 117.426 60.4874 114.781 60.3759L114.654 63.3732ZM123.973 61.1018L125.441 63.7179C128.806 61.8293 131.672 59.0417 133.824 55.6395L131.288 54.0361L128.752 52.4328C127.094 55.056 124.938 57.1199 122.504 58.4858L123.973 61.1018ZM131.288 54.0361L133.824 55.6394C135.974 52.238 137.358 48.3069 137.88 44.192L134.903 43.8146L131.927 43.4372C131.511 46.7213 130.412 49.8086 128.752 52.4329L131.288 54.0361ZM134.903 43.8146L137.88 44.192C138.401 40.0768 138.05 35.8715 136.849 31.9338L133.979 32.8086L131.11 33.6835C132.061 36.802 132.344 40.1533 131.927 43.4373L134.903 43.8146ZM133.979 32.8086L136.849 31.9337C135.649 27.9964 133.627 24.4163 130.924 21.5229L128.732 23.5708L126.54 25.6186C128.579 27.8016 130.159 30.5647 131.11 33.6835L133.979 32.8086ZM128.732 23.5708L130.924 21.5229C128.22 18.6276 124.908 16.5017 121.259 15.3781L120.376 18.2452L119.494 21.1123C122.077 21.9078 124.502 23.4376 126.54 25.6186L128.732 23.5708ZM120.376 18.2452L121.259 15.3781C117.606 14.253 113.761 14.1794 110.075 15.1679L110.852 18.0655L111.629 20.9631C114.22 20.2682 116.915 20.3183 119.494 21.1123L120.376 18.2452ZM110.852 18.0655L113.794 17.4759L112.515 11.0954L109.573 11.685L106.632 12.2746L107.911 18.6551L110.852 18.0655Z" fill="#1C1C1C" mask="url(#path-2-inside-1_3997_98)"/>
<mask id="path-4-inside-2_3997_98" fill="white">
<path d="M109.308 5.83905C111.383 10.9266 113.201 16.3009 114.705 21.9119C125.975 63.9738 115.446 103.341 91.1877 109.841C66.929 116.341 38.1269 87.5125 26.8565 45.4507C25.3531 39.8398 24.2404 34.2764 23.4937 28.833L109.308 5.83905Z"/>
</mask>
<path d="M109.308 5.83905C111.383 10.9266 113.201 16.3009 114.705 21.9119C125.975 63.9738 115.446 103.341 91.1877 109.841C66.929 116.341 38.1269 87.5125 26.8565 45.4507C25.3531 39.8398 24.2404 34.2764 23.4937 28.833L109.308 5.83905Z" fill="#4159F5"/>
<path d="M109.308 5.83905L112.086 4.70608L111.087 2.2566L108.532 2.94127L109.308 5.83905ZM114.705 21.9119L117.603 21.1354L117.603 21.1354L114.705 21.9119ZM91.1877 109.841L91.9641 112.739L91.9641 112.739L91.1877 109.841ZM26.8565 45.4507L23.9587 46.2272L23.9587 46.2272L26.8565 45.4507ZM23.4937 28.833L22.7172 25.9352L20.162 26.6199L20.5215 29.2407L23.4937 28.833ZM109.308 5.83905L106.53 6.97202C108.558 11.9432 110.336 17.1985 111.807 22.6883L114.705 21.9119L117.603 21.1354C116.067 15.4033 114.209 9.90993 112.086 4.70608L109.308 5.83905ZM114.705 21.9119L111.807 22.6883C117.331 43.304 117.469 63.1188 113.372 78.4372C109.251 93.8444 101.065 104.089 90.4112 106.944L91.1877 109.841L91.9641 112.739C105.569 109.094 114.777 96.4044 119.168 79.9874C123.582 63.4815 123.349 42.5816 117.603 21.1354L114.705 21.9119ZM91.1877 109.841L90.4112 106.944C79.757 109.798 67.5461 105.019 56.2738 93.7364C45.0666 82.5188 35.2782 65.2899 29.7543 44.6743L26.8565 45.4507L23.9587 46.2272C29.7052 67.6734 39.9531 85.8898 52.0292 97.977C64.0402 109.999 78.3597 116.384 91.9641 112.739L91.1877 109.841ZM26.8565 45.4507L29.7543 44.6743C28.2833 39.1845 27.1955 33.7442 26.4658 28.4253L23.4937 28.833L20.5215 29.2407C21.2853 34.8086 22.4228 40.4951 23.9587 46.2272L26.8565 45.4507ZM23.4937 28.833L24.2701 31.7308L110.085 8.73683L109.308 5.83905L108.532 2.94127L22.7172 25.9352L23.4937 28.833Z" fill="#1C1C1C" mask="url(#path-4-inside-2_3997_98)"/>
<path d="M89.5135 126.11L100.639 123.129C115.842 119.055 131.47 128.078 135.544 143.282L137.021 148.793L70.8378 166.527L69.3609 161.015C65.2871 145.812 74.3097 130.184 89.5135 126.11Z" fill="#BCFF06" stroke="#1C1C1C" stroke-width="3"/>
<mask id="path-7-outside-3_3997_98" maskUnits="userSpaceOnUse" x="50.1746" y="32.3256" width="55.3723" height="56.0794" fill="black">
<rect fill="white" x="50.1746" y="32.3256" width="55.3723" height="56.0794"/>
<path fill-rule="evenodd" clip-rule="evenodd" d="M81.4636 38.6944C87.0161 37.2066 92.7222 40.4974 94.2086 46.0445C95.0924 49.3429 94.2852 52.6962 92.3183 55.1858C91.7898 55.8547 92.0978 57.004 92.8899 57.319C95.8381 58.4916 98.2138 60.9921 99.0976 64.2904C100.584 69.8376 97.2876 75.5406 91.7351 77.0283C88.8066 77.8131 85.8353 77.2684 83.4629 75.7645C82.5629 75.194 81.2004 75.559 80.7062 76.5032C79.4036 78.9918 77.1027 80.9491 74.1741 81.7338C68.6216 83.2216 62.9155 79.9308 61.4291 74.3837C60.5454 71.0854 61.3525 67.732 63.3194 65.2424C63.8478 64.5735 63.5399 63.4243 62.7478 63.1092C59.7996 61.9366 57.4239 59.4361 56.5402 56.1378C55.0538 50.5906 58.3501 44.8877 63.9026 43.3999C67.1133 42.5396 70.3753 43.277 72.8432 45.1246C73.4119 45.5504 74.3036 45.3115 74.5832 44.6584C75.7966 41.8244 78.2529 39.5547 81.4636 38.6944ZM78.574 57.5186C77.6739 56.9481 76.3114 57.3131 75.8172 58.2573C75.3946 59.0647 74.8668 59.8161 74.2467 60.4898C73.8792 60.8889 74.0696 61.5994 74.5874 61.7613C75.7208 62.1158 76.785 62.6614 77.7322 63.3705C78.3008 63.7963 79.1925 63.5574 79.4721 62.9043C79.9379 61.8166 80.5867 60.812 81.391 59.9383C81.7584 59.5392 81.568 58.8287 81.0502 58.6667C80.1764 58.3934 79.3436 58.0065 78.574 57.5186Z"/>
<path d="M68.2639 58.089C67.3695 58.3286 66.4944 58.332 65.6386 58.0989C64.7872 57.8647 64.0493 57.4373 63.425 56.8167C62.805 56.195 62.3771 55.4439 62.1412 54.5636C61.9053 53.6832 61.9004 52.8188 62.1264 51.9704C62.3568 51.1208 62.7833 50.3861 63.4059 49.7664C64.0273 49.1423 64.7874 48.7098 65.6862 48.4689C66.2325 48.3226 66.7771 48.2663 67.3198 48.3001C67.8669 48.3328 68.3838 48.4467 68.8705 48.6418C68.9607 48.679 69.0159 48.735 69.0359 48.8098C69.0513 48.867 69.0446 48.9302 69.0158 48.9992L68.3203 50.6858C68.2786 50.7772 68.2226 50.8323 68.1521 50.8512C68.0948 50.8665 68.0322 50.8621 67.9643 50.8378C67.6983 50.744 67.4213 50.6884 67.1334 50.6712C66.8443 50.6496 66.5653 50.6748 66.2966 50.7469C65.8692 50.8614 65.5005 51.0805 65.1906 51.4041C64.8794 51.7234 64.6634 52.1068 64.5425 52.5543C64.426 53.0007 64.4302 53.4572 64.5553 53.9238C64.6803 54.3904 64.9048 54.7878 65.2289 55.1162C65.5574 55.4433 65.9368 55.6695 66.3671 55.7949C66.8017 55.919 67.2305 55.9244 67.6535 55.8111C67.9575 55.7296 68.2141 55.6208 68.4231 55.4846C68.6354 55.3428 68.8484 55.1418 69.062 54.8817C69.1131 54.8255 69.1673 54.7898 69.2245 54.7744C69.2994 54.7544 69.3756 54.7741 69.4529 54.8336L70.8806 55.9584C70.9479 56.0158 70.9886 56.0709 71.0028 56.1238C71.0193 56.1854 71.0016 56.2515 70.9497 56.322C70.6236 56.7443 70.2325 57.1086 69.7762 57.4148C69.3187 57.7167 68.8146 57.9414 68.2639 58.089Z"/>
<path d="M72.8007 77.2645C71.9544 77.4913 71.1644 77.5424 70.4307 77.4178C69.6969 77.2932 69.0681 77.0029 68.544 76.5469C68.0278 76.0773 67.6665 75.4572 67.46 74.6867L67.3826 74.3977L69.4393 73.8466L69.4996 74.0714C69.6601 74.6707 69.9981 75.0963 70.5133 75.3482C71.0258 75.5894 71.6247 75.6182 72.3103 75.4345C73.0066 75.2479 73.4978 74.9385 73.7838 74.5063C74.0806 74.0712 74.1616 73.6022 74.0268 73.0992L73.9838 72.9386C73.892 72.5962 73.7317 72.3409 73.503 72.1728C73.2743 72.0047 73.0024 71.9112 72.6873 71.8924C72.3694 71.8629 72.0284 71.8969 71.6641 71.9945L69.4146 72.5973L68.8124 70.3499L71.9277 67.4505L71.8588 67.1936L66.1706 68.7178L65.6803 66.8877L73.6502 64.7522L74.3814 67.4812L71.4728 70.1876L71.5416 70.4444L72.1361 70.2851C72.6396 70.1502 73.1542 70.1213 73.6801 70.1983C74.2166 70.2725 74.6975 70.482 75.1229 70.8268C75.5454 71.161 75.847 71.6652 76.0276 72.3394L76.0792 72.532C76.2742 73.2597 76.2681 73.9439 76.0608 74.5844C75.8507 75.2142 75.4644 75.765 74.902 76.2369C74.3474 76.6952 73.647 77.0378 72.8007 77.2645Z"/>
<path d="M82.7588 54.0486C82.5825 54.0959 82.4708 54.0314 82.4237 53.8554L80.0795 45.1069C80.0323 44.9308 80.0969 44.8192 80.2731 44.7719L84.0204 43.7678C84.6593 43.5967 85.2614 43.5792 85.8268 43.7155C86.3911 43.8474 86.8741 44.1166 87.2758 44.5232C87.6807 44.9242 87.9658 45.4328 88.1309 46.0491C88.289 46.6389 88.3034 47.1776 88.1743 47.6651C88.0937 47.9642 87.9679 48.2438 87.7971 48.5037C87.6151 48.7807 87.6004 49.152 87.8205 49.3997L89.9455 51.7903C89.9861 51.8361 90.0117 51.8788 90.0223 51.9184C90.0365 51.9712 90.0257 52.0189 89.9899 52.0615C89.9585 52.103 89.9075 52.1331 89.837 52.152L87.7221 52.7187C87.5767 52.7577 87.4555 52.7194 87.3584 52.6039L85.5112 50.4094C85.397 50.2738 85.2108 50.2213 85.0394 50.2672L84.6957 50.3593C84.3563 50.4502 84.1547 50.7989 84.2456 51.138L84.8029 53.2178C84.8501 53.3939 84.7855 53.5056 84.6093 53.5528L82.7588 54.0486ZM84.9558 48.1312C85.1585 48.0769 85.3272 47.9751 85.4619 47.8258C85.5966 47.6764 85.6866 47.5013 85.732 47.3005C85.7773 47.0996 85.7735 46.9001 85.7204 46.7021C85.6272 46.3543 85.4545 46.1152 85.2023 45.9846C84.9489 45.8496 84.6746 45.8217 84.3794 45.9008L83.5599 46.1204C83.2205 46.2113 83.0189 46.56 83.1098 46.8991L83.3769 47.8961C83.4678 48.2353 83.8167 48.4364 84.1561 48.3455L84.9558 48.1312Z"/>
<path d="M81.4307 68.6012C81.6124 69.2795 81.2094 69.9768 80.5305 70.1587C79.8515 70.3406 79.1539 69.9382 78.9721 69.26C78.7904 68.5817 79.1934 67.8844 79.8723 67.7025C80.5512 67.5206 81.2489 67.923 81.4307 68.6012Z"/>
<path d="M76.6357 50.7062C76.8174 51.3844 76.4144 52.0817 75.7355 52.2636C75.0566 52.4455 74.3589 52.0432 74.1771 51.3649C73.9954 50.6867 74.3984 49.9894 75.0774 49.8075C75.7563 49.6255 76.454 50.0279 76.6357 50.7062Z"/>
<path d="M90.8349 72.3375C89.5066 72.6934 88.3433 72.6152 87.3449 72.1027C86.3436 71.5795 85.6436 70.5742 85.245 69.0866L84.488 66.2613C84.1009 64.8166 84.2087 63.612 84.8114 62.6476C85.4112 61.6724 86.3752 61.0069 87.7036 60.651C89.0426 60.2922 90.2103 60.3865 91.2066 60.934C92.2107 61.4678 92.9063 62.4571 93.2935 63.9019L94.0505 66.7272C94.4491 68.2148 94.3456 69.4354 93.7401 70.3891C93.1423 71.3293 92.174 71.9787 90.8349 72.3375ZM90.3446 70.5075C91.148 70.2922 91.6784 69.9149 91.9358 69.3757C92.2038 68.8336 92.2289 68.1559 92.011 67.3425L91.2109 64.3567C90.9901 63.5326 90.6095 62.9693 90.0692 62.6668C89.5367 62.3506 88.9116 62.2887 88.1939 62.481C87.4548 62.6791 86.9351 63.0535 86.6349 63.6042C86.3454 64.1521 86.3067 64.8219 86.5189 65.6139L87.319 68.5997C87.5455 69.4452 87.909 70.0303 88.4093 70.355C88.9175 70.6662 89.5626 70.717 90.3446 70.5075Z"/>
</mask>
<path fill-rule="evenodd" clip-rule="evenodd" d="M81.4636 38.6944C87.0161 37.2066 92.7222 40.4974 94.2086 46.0445C95.0924 49.3429 94.2852 52.6962 92.3183 55.1858C91.7898 55.8547 92.0978 57.004 92.8899 57.319C95.8381 58.4916 98.2138 60.9921 99.0976 64.2904C100.584 69.8376 97.2876 75.5406 91.7351 77.0283C88.8066 77.8131 85.8353 77.2684 83.4629 75.7645C82.5629 75.194 81.2004 75.559 80.7062 76.5032C79.4036 78.9918 77.1027 80.9491 74.1741 81.7338C68.6216 83.2216 62.9155 79.9308 61.4291 74.3837C60.5454 71.0854 61.3525 67.732 63.3194 65.2424C63.8478 64.5735 63.5399 63.4243 62.7478 63.1092C59.7996 61.9366 57.4239 59.4361 56.5402 56.1378C55.0538 50.5906 58.3501 44.8877 63.9026 43.3999C67.1133 42.5396 70.3753 43.277 72.8432 45.1246C73.4119 45.5504 74.3036 45.3115 74.5832 44.6584C75.7966 41.8244 78.2529 39.5547 81.4636 38.6944ZM78.574 57.5186C77.6739 56.9481 76.3114 57.3131 75.8172 58.2573C75.3946 59.0647 74.8668 59.8161 74.2467 60.4898C73.8792 60.8889 74.0696 61.5994 74.5874 61.7613C75.7208 62.1158 76.785 62.6614 77.7322 63.3705C78.3008 63.7963 79.1925 63.5574 79.4721 62.9043C79.9379 61.8166 80.5867 60.812 81.391 59.9383C81.7584 59.5392 81.568 58.8287 81.0502 58.6667C80.1764 58.3934 79.3436 58.0065 78.574 57.5186Z" fill="white"/>
<path d="M68.2639 58.089C67.3695 58.3286 66.4944 58.332 65.6386 58.0989C64.7872 57.8647 64.0493 57.4373 63.425 56.8167C62.805 56.195 62.3771 55.4439 62.1412 54.5636C61.9053 53.6832 61.9004 52.8188 62.1264 51.9704C62.3568 51.1208 62.7833 50.3861 63.4059 49.7664C64.0273 49.1423 64.7874 48.7098 65.6862 48.4689C66.2325 48.3226 66.7771 48.2663 67.3198 48.3001C67.8669 48.3328 68.3838 48.4467 68.8705 48.6418C68.9607 48.679 69.0159 48.735 69.0359 48.8098C69.0513 48.867 69.0446 48.9302 69.0158 48.9992L68.3203 50.6858C68.2786 50.7772 68.2226 50.8323 68.1521 50.8512C68.0948 50.8665 68.0322 50.8621 67.9643 50.8378C67.6983 50.744 67.4213 50.6884 67.1334 50.6712C66.8443 50.6496 66.5653 50.6748 66.2966 50.7469C65.8692 50.8614 65.5005 51.0805 65.1906 51.4041C64.8794 51.7234 64.6634 52.1068 64.5425 52.5543C64.426 53.0007 64.4302 53.4572 64.5553 53.9238C64.6803 54.3904 64.9048 54.7878 65.2289 55.1162C65.5574 55.4433 65.9368 55.6695 66.3671 55.7949C66.8017 55.919 67.2305 55.9244 67.6535 55.8111C67.9575 55.7296 68.2141 55.6208 68.4231 55.4846C68.6354 55.3428 68.8484 55.1418 69.062 54.8817C69.1131 54.8255 69.1673 54.7898 69.2245 54.7744C69.2994 54.7544 69.3756 54.7741 69.4529 54.8336L70.8806 55.9584C70.9479 56.0158 70.9886 56.0709 71.0028 56.1238C71.0193 56.1854 71.0016 56.2515 70.9497 56.322C70.6236 56.7443 70.2325 57.1086 69.7762 57.4148C69.3187 57.7167 68.8146 57.9414 68.2639 58.089Z" fill="#1C1C1C"/>
<path d="M72.8007 77.2645C71.9544 77.4913 71.1644 77.5424 70.4307 77.4178C69.6969 77.2932 69.0681 77.0029 68.544 76.5469C68.0278 76.0773 67.6665 75.4572 67.46 74.6867L67.3826 74.3977L69.4393 73.8466L69.4996 74.0714C69.6601 74.6707 69.9981 75.0963 70.5133 75.3482C71.0258 75.5894 71.6247 75.6182 72.3103 75.4345C73.0066 75.2479 73.4978 74.9385 73.7838 74.5063C74.0806 74.0712 74.1616 73.6022 74.0268 73.0992L73.9838 72.9386C73.892 72.5962 73.7317 72.3409 73.503 72.1728C73.2743 72.0047 73.0024 71.9112 72.6873 71.8924C72.3694 71.8629 72.0284 71.8969 71.6641 71.9945L69.4146 72.5973L68.8124 70.3499L71.9277 67.4505L71.8588 67.1936L66.1706 68.7178L65.6803 66.8877L73.6502 64.7522L74.3814 67.4812L71.4728 70.1876L71.5416 70.4444L72.1361 70.2851C72.6396 70.1502 73.1542 70.1213 73.6801 70.1983C74.2166 70.2725 74.6975 70.482 75.1229 70.8268C75.5454 71.161 75.847 71.6652 76.0276 72.3394L76.0792 72.532C76.2742 73.2597 76.2681 73.9439 76.0608 74.5844C75.8507 75.2142 75.4644 75.765 74.902 76.2369C74.3474 76.6952 73.647 77.0378 72.8007 77.2645Z" fill="#1C1C1C"/>
<path d="M82.7588 54.0486C82.5825 54.0959 82.4708 54.0314 82.4237 53.8554L80.0795 45.1069C80.0323 44.9308 80.0969 44.8192 80.2731 44.7719L84.0204 43.7678C84.6593 43.5967 85.2614 43.5792 85.8268 43.7155C86.3911 43.8474 86.8741 44.1166 87.2758 44.5232C87.6807 44.9242 87.9658 45.4328 88.1309 46.0491C88.289 46.6389 88.3034 47.1776 88.1743 47.6651C88.0937 47.9642 87.9679 48.2438 87.7971 48.5037C87.6151 48.7807 87.6004 49.152 87.8205 49.3997L89.9455 51.7903C89.9861 51.8361 90.0117 51.8788 90.0223 51.9184C90.0365 51.9712 90.0257 52.0189 89.9899 52.0615C89.9585 52.103 89.9075 52.1331 89.837 52.152L87.7221 52.7187C87.5767 52.7577 87.4555 52.7194 87.3584 52.6039L85.5112 50.4094C85.397 50.2738 85.2108 50.2213 85.0394 50.2672L84.6957 50.3593C84.3563 50.4502 84.1547 50.7989 84.2456 51.138L84.8029 53.2178C84.8501 53.3939 84.7855 53.5056 84.6093 53.5528L82.7588 54.0486ZM84.9558 48.1312C85.1585 48.0769 85.3272 47.9751 85.4619 47.8258C85.5966 47.6764 85.6866 47.5013 85.732 47.3005C85.7773 47.0996 85.7735 46.9001 85.7204 46.7021C85.6272 46.3543 85.4545 46.1152 85.2023 45.9846C84.9489 45.8496 84.6746 45.8217 84.3794 45.9008L83.5599 46.1204C83.2205 46.2113 83.0189 46.56 83.1098 46.8991L83.3769 47.8961C83.4678 48.2353 83.8167 48.4364 84.1561 48.3455L84.9558 48.1312Z" fill="#1C1C1C"/>
<path d="M81.4307 68.6012C81.6124 69.2795 81.2094 69.9768 80.5305 70.1587C79.8515 70.3406 79.1539 69.9382 78.9721 69.26C78.7904 68.5817 79.1934 67.8844 79.8723 67.7025C80.5512 67.5206 81.2489 67.923 81.4307 68.6012Z" fill="#BCFF06"/>
<path d="M76.6357 50.7062C76.8174 51.3844 76.4144 52.0817 75.7355 52.2636C75.0566 52.4455 74.3589 52.0432 74.1771 51.3649C73.9954 50.6867 74.3984 49.9894 75.0774 49.8075C75.7563 49.6255 76.454 50.0279 76.6357 50.7062Z" fill="#4159F5"/>
<path d="M90.8349 72.3375C89.5066 72.6934 88.3433 72.6152 87.3449 72.1027C86.3436 71.5795 85.6436 70.5742 85.245 69.0866L84.488 66.2613C84.1009 64.8166 84.2087 63.612 84.8114 62.6476C85.4112 61.6724 86.3752 61.0069 87.7036 60.651C89.0426 60.2922 90.2103 60.3865 91.2066 60.934C92.2107 61.4678 92.9063 62.4571 93.2935 63.9019L94.0505 66.7272C94.4491 68.2148 94.3456 69.4354 93.7401 70.3891C93.1423 71.3293 92.174 71.9787 90.8349 72.3375ZM90.3446 70.5075C91.148 70.2922 91.6784 69.9149 91.9358 69.3757C92.2038 68.8336 92.2289 68.1559 92.011 67.3425L91.2109 64.3567C90.9901 63.5326 90.6095 62.9693 90.0692 62.6668C89.5367 62.3506 88.9116 62.2887 88.1939 62.481C87.4548 62.6791 86.9351 63.0535 86.6349 63.6042C86.3454 64.1521 86.3067 64.8219 86.5189 65.6139L87.319 68.5997C87.5455 69.4452 87.909 70.0303 88.4093 70.355C88.9175 70.6662 89.5626 70.717 90.3446 70.5075Z" fill="#1C1C1C"/>
<path fill-rule="evenodd" clip-rule="evenodd" d="M81.4636 38.6944C87.0161 37.2066 92.7222 40.4974 94.2086 46.0445C95.0924 49.3429 94.2852 52.6962 92.3183 55.1858C91.7898 55.8547 92.0978 57.004 92.8899 57.319C95.8381 58.4916 98.2138 60.9921 99.0976 64.2904C100.584 69.8376 97.2876 75.5406 91.7351 77.0283C88.8066 77.8131 85.8353 77.2684 83.4629 75.7645C82.5629 75.194 81.2004 75.559 80.7062 76.5032C79.4036 78.9918 77.1027 80.9491 74.1741 81.7338C68.6216 83.2216 62.9155 79.9308 61.4291 74.3837C60.5454 71.0854 61.3525 67.732 63.3194 65.2424C63.8478 64.5735 63.5399 63.4243 62.7478 63.1092C59.7996 61.9366 57.4239 59.4361 56.5402 56.1378C55.0538 50.5906 58.3501 44.8877 63.9026 43.3999C67.1133 42.5396 70.3753 43.277 72.8432 45.1246C73.4119 45.5504 74.3036 45.3115 74.5832 44.6584C75.7966 41.8244 78.2529 39.5547 81.4636 38.6944ZM78.574 57.5186C77.6739 56.9481 76.3114 57.3131 75.8172 58.2573C75.3946 59.0647 74.8668 59.8161 74.2467 60.4898C73.8792 60.8889 74.0696 61.5994 74.5874 61.7613C75.7208 62.1158 76.785 62.6614 77.7322 63.3705C78.3008 63.7963 79.1925 63.5574 79.4721 62.9043C79.9379 61.8166 80.5867 60.812 81.391 59.9383C81.7584 59.5392 81.568 58.8287 81.0502 58.6667C80.1764 58.3934 79.3436 58.0065 78.574 57.5186Z" stroke="#1C1C1C" stroke-width="6" mask="url(#path-7-outside-3_3997_98)"/>
<path d="M68.2639 58.089C67.3695 58.3286 66.4944 58.332 65.6386 58.0989C64.7872 57.8647 64.0493 57.4373 63.425 56.8167C62.805 56.195 62.3771 55.4439 62.1412 54.5636C61.9053 53.6832 61.9004 52.8188 62.1264 51.9704C62.3568 51.1208 62.7833 50.3861 63.4059 49.7664C64.0273 49.1423 64.7874 48.7098 65.6862 48.4689C66.2325 48.3226 66.7771 48.2663 67.3198 48.3001C67.8669 48.3328 68.3838 48.4467 68.8705 48.6418C68.9607 48.679 69.0159 48.735 69.0359 48.8098C69.0513 48.867 69.0446 48.9302 69.0158 48.9992L68.3203 50.6858C68.2786 50.7772 68.2226 50.8323 68.1521 50.8512C68.0948 50.8665 68.0322 50.8621 67.9643 50.8378C67.6983 50.744 67.4213 50.6884 67.1334 50.6712C66.8443 50.6496 66.5653 50.6748 66.2966 50.7469C65.8692 50.8614 65.5005 51.0805 65.1906 51.4041C64.8794 51.7234 64.6634 52.1068 64.5425 52.5543C64.426 53.0007 64.4302 53.4572 64.5553 53.9238C64.6803 54.3904 64.9048 54.7878 65.2289 55.1162C65.5574 55.4433 65.9368 55.6695 66.3671 55.7949C66.8017 55.919 67.2305 55.9244 67.6535 55.8111C67.9575 55.7296 68.2141 55.6208 68.4231 55.4846C68.6354 55.3428 68.8484 55.1418 69.062 54.8817C69.1131 54.8255 69.1673 54.7898 69.2245 54.7744C69.2994 54.7544 69.3756 54.7741 69.4529 54.8336L70.8806 55.9584C70.9479 56.0158 70.9886 56.0709 71.0028 56.1238C71.0193 56.1854 71.0016 56.2515 70.9497 56.322C70.6236 56.7443 70.2325 57.1086 69.7762 57.4148C69.3187 57.7167 68.8146 57.9414 68.2639 58.089Z" stroke="#1C1C1C" stroke-width="6" mask="url(#path-7-outside-3_3997_98)"/>
<path d="M72.8007 77.2645C71.9544 77.4913 71.1644 77.5424 70.4307 77.4178C69.6969 77.2932 69.0681 77.0029 68.544 76.5469C68.0278 76.0773 67.6665 75.4572 67.46 74.6867L67.3826 74.3977L69.4393 73.8466L69.4996 74.0714C69.6601 74.6707 69.9981 75.0963 70.5133 75.3482C71.0258 75.5894 71.6247 75.6182 72.3103 75.4345C73.0066 75.2479 73.4978 74.9385 73.7838 74.5063C74.0806 74.0712 74.1616 73.6022 74.0268 73.0992L73.9838 72.9386C73.892 72.5962 73.7317 72.3409 73.503 72.1728C73.2743 72.0047 73.0024 71.9112 72.6873 71.8924C72.3694 71.8629 72.0284 71.8969 71.6641 71.9945L69.4146 72.5973L68.8124 70.3499L71.9277 67.4505L71.8588 67.1936L66.1706 68.7178L65.6803 66.8877L73.6502 64.7522L74.3814 67.4812L71.4728 70.1876L71.5416 70.4444L72.1361 70.2851C72.6396 70.1502 73.1542 70.1213 73.6801 70.1983C74.2166 70.2725 74.6975 70.482 75.1229 70.8268C75.5454 71.161 75.847 71.6652 76.0276 72.3394L76.0792 72.532C76.2742 73.2597 76.2681 73.9439 76.0608 74.5844C75.8507 75.2142 75.4644 75.765 74.902 76.2369C74.3474 76.6952 73.647 77.0378 72.8007 77.2645Z" stroke="#1C1C1C" stroke-width="6" mask="url(#path-7-outside-3_3997_98)"/>
<path d="M82.7588 54.0486C82.5825 54.0959 82.4708 54.0314 82.4237 53.8554L80.0795 45.1069C80.0323 44.9308 80.0969 44.8192 80.2731 44.7719L84.0204 43.7678C84.6593 43.5967 85.2614 43.5792 85.8268 43.7155C86.3911 43.8474 86.8741 44.1166 87.2758 44.5232C87.6807 44.9242 87.9658 45.4328 88.1309 46.0491C88.289 46.6389 88.3034 47.1776 88.1743 47.6651C88.0937 47.9642 87.9679 48.2438 87.7971 48.5037C87.6151 48.7807 87.6004 49.152 87.8205 49.3997L89.9455 51.7903C89.9861 51.8361 90.0117 51.8788 90.0223 51.9184C90.0365 51.9712 90.0257 52.0189 89.9899 52.0615C89.9585 52.103 89.9075 52.1331 89.837 52.152L87.7221 52.7187C87.5767 52.7577 87.4555 52.7194 87.3584 52.6039L85.5112 50.4094C85.397 50.2738 85.2108 50.2213 85.0394 50.2672L84.6957 50.3593C84.3563 50.4502 84.1547 50.7989 84.2456 51.138L84.8029 53.2178C84.8501 53.3939 84.7855 53.5056 84.6093 53.5528L82.7588 54.0486ZM84.9558 48.1312C85.1585 48.0769 85.3272 47.9751 85.4619 47.8258C85.5966 47.6764 85.6866 47.5013 85.732 47.3005C85.7773 47.0996 85.7735 46.9001 85.7204 46.7021C85.6272 46.3543 85.4545 46.1152 85.2023 45.9846C84.9489 45.8496 84.6746 45.8217 84.3794 45.9008L83.5599 46.1204C83.2205 46.2113 83.0189 46.56 83.1098 46.8991L83.3769 47.8961C83.4678 48.2353 83.8167 48.4364 84.1561 48.3455L84.9558 48.1312Z" stroke="#1C1C1C" stroke-width="6" mask="url(#path-7-outside-3_3997_98)"/>
<path d="M81.4307 68.6012C81.6124 69.2795 81.2094 69.9768 80.5305 70.1587C79.8515 70.3406 79.1539 69.9382 78.9721 69.26C78.7904 68.5817 79.1934 67.8844 79.8723 67.7025C80.5512 67.5206 81.2489 67.923 81.4307 68.6012Z" stroke="#1C1C1C" stroke-width="6" mask="url(#path-7-outside-3_3997_98)"/>
<path d="M76.6357 50.7062C76.8174 51.3844 76.4144 52.0817 75.7355 52.2636C75.0566 52.4455 74.3589 52.0432 74.1771 51.3649C73.9954 50.6867 74.3984 49.9894 75.0774 49.8075C75.7563 49.6255 76.454 50.0279 76.6357 50.7062Z" stroke="#1C1C1C" stroke-width="6" mask="url(#path-7-outside-3_3997_98)"/>
<path d="M90.8349 72.3375C89.5066 72.6934 88.3433 72.6152 87.3449 72.1027C86.3436 71.5795 85.6436 70.5742 85.245 69.0866L84.488 66.2613C84.1009 64.8166 84.2087 63.612 84.8114 62.6476C85.4112 61.6724 86.3752 61.0069 87.7036 60.651C89.0426 60.2922 90.2103 60.3865 91.2066 60.934C92.2107 61.4678 92.9063 62.4571 93.2935 63.9019L94.0505 66.7272C94.4491 68.2148 94.3456 69.4354 93.7401 70.3891C93.1423 71.3293 92.174 71.9787 90.8349 72.3375ZM90.3446 70.5075C91.148 70.2922 91.6784 69.9149 91.9358 69.3757C92.2038 68.8336 92.2289 68.1559 92.011 67.3425L91.2109 64.3567C90.9901 63.5326 90.6095 62.9693 90.0692 62.6668C89.5367 62.3506 88.9116 62.2887 88.1939 62.481C87.4548 62.6791 86.9351 63.0535 86.6349 63.6042C86.3454 64.1521 86.3067 64.8219 86.5189 65.6139L87.319 68.5997C87.5455 69.4452 87.909 70.0303 88.4093 70.355C88.9175 70.6662 89.5626 70.717 90.3446 70.5075Z" stroke="#1C1C1C" stroke-width="6" mask="url(#path-7-outside-3_3997_98)"/>
<path d="M96.8321 130.908C103.751 129.054 110.3 128.623 115.276 129.388C117.766 129.771 119.814 130.445 121.312 131.35C122.804 132.251 123.698 133.343 124.027 134.569C124.355 135.795 124.127 137.189 123.285 138.715C122.44 140.247 121.004 141.856 119.039 143.432C115.112 146.582 109.225 149.484 102.306 151.338C95.3876 153.191 88.8392 153.622 83.8631 152.857C81.3735 152.474 79.3257 151.8 77.8274 150.895C76.335 149.995 75.4411 148.902 75.1126 147.676C74.7841 146.45 75.0119 145.057 75.8539 143.53C76.6993 141.998 78.1354 140.39 80.1001 138.813C84.0271 135.663 89.9135 132.762 96.8321 130.908Z" fill="white" stroke="#1C1C1C" stroke-width="2"/>
</svg>
