<svg width="196" height="201" viewBox="0 0 196 201" fill="none" xmlns="http://www.w3.org/2000/svg">
<path d="M82.5671 108.645L99.6773 118.577C99.6773 118.577 90.6929 124.303 87.5149 129.818C84.3771 135.262 83.8918 145.77 83.8918 145.77L66.7816 135.838C66.7816 135.838 75.6092 130.293 78.8376 124.78C82.1059 119.199 82.5671 108.645 82.5671 108.645Z" fill="white"/>
<mask id="path-2-inside-1_3997_109" fill="white">
<path d="M171.866 62.6864C175.571 64.8359 178.553 67.9484 180.554 71.7517C182.555 75.555 183.514 79.9345 183.348 84.5095C183.181 89.0844 181.893 93.7159 179.598 98.0012C177.302 102.287 174.066 106.096 170.174 109.098C166.282 112.099 161.85 114.202 157.264 115.224C152.679 116.246 148.077 116.156 143.862 114.961C139.646 113.766 135.942 111.502 133.074 108.367C130.207 105.232 128.261 101.32 127.407 96.9726L133.563 94.9093C134.227 98.2916 135.742 101.335 137.973 103.774C140.204 106.213 143.085 107.974 146.365 108.904C149.645 109.834 153.225 109.904 156.793 109.109C160.361 108.314 163.809 106.678 166.838 104.343C169.866 102.007 172.383 99.0433 174.169 95.7091C175.955 92.3749 176.956 88.7714 177.086 85.2119C177.216 81.6524 176.47 78.2447 174.914 75.2855C173.357 72.3264 171.036 69.905 168.154 68.2327L171.866 62.6864ZM90.7732 23.3117C87.8916 21.6383 84.6382 20.824 81.2966 20.9395C77.9551 21.0551 74.6264 22.0971 71.5999 23.9748C68.5732 25.8526 65.9401 28.5099 63.9306 31.7145C61.9211 34.919 60.5951 38.5744 60.0688 42.3623C59.5427 46.1501 59.8319 49.9559 60.9109 53.4485C61.99 56.9411 63.8268 60.015 66.2609 62.4022C68.695 64.7893 71.6535 66.4179 74.878 67.1458C78.1025 67.8737 81.4957 67.6786 84.7625 66.5785L86.0231 72.9482C81.8242 74.3622 77.4628 74.6117 73.3184 73.6761C69.1741 72.7405 65.3723 70.6474 62.2438 67.5793C59.1153 64.5111 56.7541 60.5606 55.3672 56.0716C53.9803 51.5826 53.6094 46.691 54.2858 41.8225C54.9621 36.954 56.6653 32.2557 59.2481 28.137C61.8308 24.0183 65.2143 20.6036 69.1043 18.19C72.9944 15.7764 77.2739 14.4372 81.5689 14.2887C85.8638 14.1402 90.0451 15.187 93.7486 17.338L90.7732 23.3117Z"/>
</mask>
<path d="M171.866 62.6864C175.571 64.8359 178.553 67.9484 180.554 71.7517C182.555 75.555 183.514 79.9345 183.348 84.5095C183.181 89.0844 181.893 93.7159 179.598 98.0012C177.302 102.287 174.066 106.096 170.174 109.098C166.282 112.099 161.85 114.202 157.264 115.224C152.679 116.246 148.077 116.156 143.862 114.961C139.646 113.766 135.942 111.502 133.074 108.367C130.207 105.232 128.261 101.32 127.407 96.9726L133.563 94.9093C134.227 98.2916 135.742 101.335 137.973 103.774C140.204 106.213 143.085 107.974 146.365 108.904C149.645 109.834 153.225 109.904 156.793 109.109C160.361 108.314 163.809 106.678 166.838 104.343C169.866 102.007 172.383 99.0433 174.169 95.7091C175.955 92.3749 176.956 88.7714 177.086 85.2119C177.216 81.6524 176.47 78.2447 174.914 75.2855C173.357 72.3264 171.036 69.905 168.154 68.2327L171.866 62.6864ZM90.7732 23.3117C87.8916 21.6383 84.6382 20.824 81.2966 20.9395C77.9551 21.0551 74.6264 22.0971 71.5999 23.9748C68.5732 25.8526 65.9401 28.5099 63.9306 31.7145C61.9211 34.919 60.5951 38.5744 60.0688 42.3623C59.5427 46.1501 59.8319 49.9559 60.9109 53.4485C61.99 56.9411 63.8268 60.015 66.2609 62.4022C68.695 64.7893 71.6535 66.4179 74.878 67.1458C78.1025 67.8737 81.4957 67.6786 84.7625 66.5785L86.0231 72.9482C81.8242 74.3622 77.4628 74.6117 73.3184 73.6761C69.1741 72.7405 65.3723 70.6474 62.2438 67.5793C59.1153 64.5111 56.7541 60.5606 55.3672 56.0716C53.9803 51.5826 53.6094 46.691 54.2858 41.8225C54.9621 36.954 56.6653 32.2557 59.2481 28.137C61.8308 24.0183 65.2143 20.6036 69.1043 18.19C72.9944 15.7764 77.2739 14.4372 81.5689 14.2887C85.8638 14.1402 90.0451 15.187 93.7486 17.338L90.7732 23.3117Z" fill="#4159F5"/>
<path d="M171.866 62.6864L173.372 60.0916L170.938 58.6795L169.373 61.0178L171.866 62.6864ZM180.554 71.7517L183.209 70.3549L183.209 70.3548L180.554 71.7517ZM183.348 84.5095L186.346 84.6188L186.346 84.6188L183.348 84.5095ZM179.598 98.0012L182.242 99.4179L182.242 99.4178L179.598 98.0012ZM170.174 109.098L172.006 111.474L172.006 111.474L170.174 109.098ZM157.264 115.224L157.917 118.152L157.917 118.152L157.264 115.224ZM143.862 114.961L143.043 117.847L143.043 117.847L143.862 114.961ZM133.074 108.367L130.861 110.392L130.861 110.392L133.074 108.367ZM127.407 96.9726L126.453 94.1281L123.955 94.9655L124.463 97.5511L127.407 96.9726ZM133.563 94.9093L136.506 94.3307L135.848 90.9794L132.609 92.0648L133.563 94.9093ZM137.973 103.774L135.759 105.799L135.76 105.799L137.973 103.774ZM146.365 108.904L145.547 111.79L145.547 111.79L146.365 108.904ZM156.793 109.109L157.445 112.038L157.446 112.038L156.793 109.109ZM166.838 104.343L168.67 106.719L168.67 106.719L166.838 104.343ZM174.169 95.7091L176.813 97.1258L176.813 97.1258L174.169 95.7091ZM177.086 85.2119L180.084 85.3212L180.084 85.3212L177.086 85.2119ZM174.914 75.2855L177.569 73.8887L177.569 73.8887L174.914 75.2855ZM168.154 68.2327L165.661 66.5641L163.882 69.2222L166.649 70.8275L168.154 68.2327ZM90.7732 23.3117L89.2666 25.906L92.0325 27.5123L93.4585 24.6493L90.7732 23.3117ZM81.2966 20.9395L81.1929 17.9413L81.1929 17.9413L81.2966 20.9395ZM71.5999 23.9748L70.0183 21.4255L70.0183 21.4256L71.5999 23.9748ZM63.9306 31.7145L61.389 30.1207L61.389 30.1207L63.9306 31.7145ZM60.0688 42.3623L57.0974 41.9495L57.0974 41.9495L60.0688 42.3623ZM60.9109 53.4485L58.0446 54.334L58.0446 54.334L60.9109 53.4485ZM66.2609 62.4022L68.3615 60.2603L66.2609 62.4022ZM74.878 67.1458L74.2174 70.0722L74.2174 70.0722L74.878 67.1458ZM84.7625 66.5785L87.7054 65.9961L87.0423 62.6452L83.8051 63.7353L84.7625 66.5785ZM86.0231 72.9482L86.9805 75.7913L89.4775 74.9505L88.966 72.3658L86.0231 72.9482ZM73.3184 73.6761L72.6578 76.6025L72.6578 76.6025L73.3184 73.6761ZM62.2438 67.5793L60.1433 69.7212L60.1433 69.7212L62.2438 67.5793ZM55.3672 56.0716L52.5008 56.9571L52.5008 56.9571L55.3672 56.0716ZM54.2858 41.8225L51.3143 41.4097L51.3143 41.4097L54.2858 41.8225ZM59.2481 28.137L56.7065 26.5432L56.7065 26.5432L59.2481 28.137ZM69.1043 18.19L67.5226 15.6408L67.5226 15.6408L69.1043 18.19ZM81.5689 14.2887L81.4653 11.2904L81.4652 11.2904L81.5689 14.2887ZM93.7486 17.338L96.434 18.6755L97.6885 16.1569L95.2553 14.7438L93.7486 17.338ZM171.866 62.6864L170.361 65.2813C173.575 67.1462 176.159 69.8425 177.899 73.1485L180.554 71.7517L183.209 70.3548C180.946 66.0542 177.567 62.5256 173.372 60.0916L171.866 62.6864ZM180.554 71.7517L177.899 73.1485C179.64 76.4584 180.498 80.3137 180.349 84.4002L183.348 84.5095L186.346 84.6188C186.53 79.5554 185.469 74.6517 183.209 70.3549L180.554 71.7517ZM183.348 84.5095L180.349 84.4002C180.2 88.4898 179.047 92.6767 176.953 96.5845L179.598 98.0012L182.242 99.4178C184.74 94.7551 186.161 89.6789 186.346 84.6188L183.348 84.5095ZM179.598 98.0012L176.953 96.5845C174.86 100.492 171.903 103.976 168.342 106.722L170.174 109.098L172.006 111.474C176.23 108.216 179.744 104.081 182.242 99.4179L179.598 98.0012ZM170.174 109.098L168.342 106.722C164.781 109.468 160.749 111.374 156.612 112.296L157.264 115.224L157.917 118.152C162.951 117.031 167.782 114.731 172.006 111.474L170.174 109.098ZM157.264 115.224L156.612 112.296C152.476 113.218 148.382 113.124 144.68 112.075L143.862 114.961L143.043 117.847C147.773 119.188 152.881 119.274 157.917 118.152L157.264 115.224ZM143.862 114.961L144.68 112.075C140.982 111.026 137.767 109.052 135.288 106.342L133.074 108.367L130.861 110.392C134.117 113.951 138.309 116.505 143.043 117.847L143.862 114.961ZM133.074 108.367L135.288 106.342C132.808 103.631 131.103 100.226 130.35 96.3941L127.407 96.9726L124.463 97.5511C125.419 102.414 127.605 106.833 130.861 110.392L133.074 108.367ZM127.407 96.9726L128.36 99.8171L134.516 97.7538L133.563 94.9093L132.609 92.0648L126.453 94.1281L127.407 96.9726ZM133.563 94.9093L130.619 95.4879C131.385 99.3863 133.141 102.936 135.759 105.799L137.973 103.774L140.187 101.749C138.343 99.7334 137.07 97.1969 136.506 94.3307L133.563 94.9093ZM137.973 103.774L135.76 105.799C138.379 108.662 141.748 110.713 145.547 111.79L146.365 108.904L147.183 106.017C144.422 105.235 142.03 103.763 140.187 101.749L137.973 103.774ZM146.365 108.904L145.547 111.79C149.34 112.865 153.427 112.933 157.445 112.038L156.793 109.109L156.141 106.181C153.023 106.876 149.95 106.802 147.183 106.017L146.365 108.904ZM156.793 109.109L157.446 112.038C161.462 111.143 165.31 109.31 168.67 106.719L166.838 104.343L165.006 101.967C162.309 104.047 159.26 105.486 156.141 106.181L156.793 109.109ZM166.838 104.343L168.67 106.719C172.03 104.127 174.825 100.837 176.813 97.1258L174.169 95.7091L171.524 94.2924C169.94 97.2491 167.702 99.8877 165.006 101.967L166.838 104.343ZM174.169 95.7091L176.813 97.1258C178.802 93.4139 179.937 89.3657 180.084 85.3212L177.086 85.2119L174.088 85.1026C173.976 88.1771 173.108 91.336 171.524 94.2924L174.169 95.7091ZM177.086 85.2119L180.084 85.3212C180.232 81.2741 179.385 77.342 177.569 73.8887L174.914 75.2855L172.259 76.6823C173.556 79.1473 174.2 82.0307 174.088 85.1026L177.086 85.2119ZM174.914 75.2855L177.569 73.8887C175.75 70.432 173.032 67.5946 169.66 65.6378L168.154 68.2327L166.649 70.8275C169.041 72.2155 170.964 74.2208 172.259 76.6823L174.914 75.2855ZM168.154 68.2327L170.647 69.9013L174.359 64.355L171.866 62.6864L169.373 61.0178L165.661 66.5641L168.154 68.2327ZM90.7732 23.3117L92.2798 20.7175C88.9083 18.7595 85.0965 17.8064 81.1929 17.9413L81.2966 20.9395L81.4003 23.9377C84.18 23.8416 86.8749 24.517 89.2666 25.906L90.7732 23.3117ZM81.2966 20.9395L81.1929 17.9413C77.2937 18.0762 73.4597 19.2905 70.0183 21.4255L71.5999 23.9748L73.1815 26.524C75.7931 24.9037 78.6165 24.034 81.4003 23.9377L81.2966 20.9395ZM71.5999 23.9748L70.0183 21.4256C66.579 23.5594 63.6261 26.5532 61.389 30.1207L63.9306 31.7145L66.4722 33.3083C68.2542 30.4666 70.5674 28.1459 73.1815 26.524L71.5999 23.9748ZM63.9306 31.7145L61.389 30.1207C59.152 33.688 57.6813 37.7466 57.0974 41.9495L60.0688 42.3623L63.0403 42.7751C63.5089 39.4023 64.6902 36.15 66.4722 33.3082L63.9306 31.7145ZM60.0688 42.3623L57.0974 41.9495C56.5136 46.1521 56.8298 50.4023 58.0446 54.334L60.9109 53.4485L63.7772 52.5629C62.8339 49.5096 62.5718 46.1481 63.0403 42.7751L60.0688 42.3623ZM60.9109 53.4485L58.0446 54.334C59.2598 58.2672 61.3451 61.7832 64.1603 64.544L66.2609 62.4022L68.3615 60.2603C66.3084 58.2468 64.7202 55.615 63.7772 52.5629L60.9109 53.4485ZM66.2609 62.4022L64.1603 64.544C66.9792 67.3085 70.4317 69.2176 74.2174 70.0722L74.878 67.1458L75.5387 64.2195C72.8752 63.6182 70.4109 62.2702 68.3615 60.2603L66.2609 62.4022ZM74.878 67.1458L74.2174 70.0722C78.0026 70.9266 81.9553 70.6893 85.7199 69.4216L84.7625 66.5785L83.8051 63.7353C81.036 64.6678 78.2024 64.8208 75.5386 64.2195L74.878 67.1458ZM84.7625 66.5785L81.8196 67.1609L83.0801 73.5306L86.0231 72.9482L88.966 72.3658L87.7054 65.9961L84.7625 66.5785ZM86.0231 72.9482L85.0657 70.1051C81.3652 71.3512 77.5633 71.5589 73.979 70.7498L73.3184 73.6761L72.6578 76.6025C77.3622 77.6645 82.2833 77.3731 86.9805 75.7913L86.0231 72.9482ZM73.3184 73.6761L73.9791 70.7498C70.396 69.9409 67.0883 68.1283 64.3444 65.4374L62.2438 67.5793L60.1433 69.7212C63.6564 73.1665 67.9522 75.5402 72.6578 76.6025L73.3184 73.6761ZM62.2438 67.5793L64.3444 65.4374C61.5967 62.7428 59.4842 59.2342 58.2335 55.186L55.3672 56.0716L52.5008 56.9571C54.024 61.8869 56.6338 66.2794 60.1433 69.7212L62.2438 67.5793ZM55.3672 56.0716L58.2335 55.186C56.9824 51.1366 56.6384 46.6894 57.2572 42.2353L54.2858 41.8225L51.3143 41.4097C50.5804 46.6926 50.9782 52.0287 52.5008 56.9571L55.3672 56.0716ZM54.2858 41.8225L57.2572 42.2353C57.876 37.7814 59.4347 33.4863 61.7897 29.7308L59.2481 28.137L56.7065 26.5432C53.896 31.0251 52.0483 36.1266 51.3143 41.4097L54.2858 41.8225ZM59.2481 28.137L61.7897 29.7308C64.1449 25.975 67.2086 22.8968 70.6859 20.7392L69.1043 18.19L67.5226 15.6408C63.2201 18.3104 59.5167 22.0617 56.7065 26.5432L59.2481 28.137ZM69.1043 18.19L70.6859 20.7392C74.161 18.5832 77.9351 17.4161 81.6726 17.2869L81.5689 14.2887L81.4652 11.2904C76.6126 11.4582 71.8278 12.9697 67.5226 15.6408L69.1043 18.19ZM81.5689 14.2887L81.6725 17.2869C85.4054 17.1579 89.0283 18.0658 92.242 19.9322L93.7486 17.338L95.2553 14.7438C91.0619 12.3083 86.3222 11.1226 81.4653 11.2904L81.5689 14.2887ZM93.7486 17.338L91.0633 16.0005L88.0878 21.9742L90.7732 23.3117L93.4585 24.6493L96.434 18.6755L93.7486 17.338Z" fill="#1C1C1C" mask="url(#path-2-inside-1_3997_109)"/>
<mask id="path-4-inside-2_3997_109" fill="white">
<path d="M175.924 58.2625C173.727 63.4515 171.136 68.6615 168.145 73.8137C145.726 112.435 109.494 133.262 87.2199 120.331C64.9457 107.401 65.0639 65.6104 87.4833 26.9894C90.4742 21.8372 93.7136 17.0036 97.1301 12.5227L175.924 58.2625Z"/>
</mask>
<path d="M175.924 58.2625C173.727 63.4515 171.136 68.6615 168.145 73.8137C145.726 112.435 109.494 133.262 87.2199 120.331C64.9457 107.401 65.0639 65.6104 87.4833 26.9894C90.4742 21.8372 93.7136 17.0036 97.1301 12.5227L175.924 58.2625Z" fill="#BCFF06"/>
<path d="M175.924 58.2625L178.686 59.4321L179.718 56.9961L177.43 55.668L175.924 58.2625ZM168.145 73.8137L170.74 75.3198L170.74 75.3198L168.145 73.8137ZM87.2199 120.331L85.7137 122.926L85.7138 122.926L87.2199 120.331ZM87.4833 26.9894L84.8888 25.4833L84.8888 25.4833L87.4833 26.9894ZM97.1301 12.5227L98.6363 9.92819L96.3484 8.60009L94.7445 10.7037L97.1301 12.5227ZM175.924 58.2625L173.161 57.0929C171.013 62.1663 168.478 67.2639 165.551 72.3076L168.145 73.8137L170.74 75.3198C173.794 70.0591 176.441 64.7366 178.686 59.4321L175.924 58.2625ZM168.145 73.8137L165.551 72.3075C154.557 91.2462 140.245 105.692 126.133 113.803C111.941 121.961 98.5424 123.435 88.726 117.737L87.2199 120.331L85.7138 122.926C98.1717 130.158 114.025 127.684 129.123 119.005C144.301 110.281 159.314 95.0022 170.74 75.3198L168.145 73.8137ZM87.2199 120.331L88.726 117.737C78.9097 112.038 73.5453 99.6718 73.5915 83.3028C73.6374 67.0259 79.084 47.4342 90.0779 28.4955L87.4833 26.9894L84.8888 25.4833C73.4632 45.1656 67.6409 65.7797 67.5915 83.2859C67.5423 100.7 73.2559 115.694 85.7137 122.926L87.2199 120.331ZM87.4833 26.9894L90.0779 28.4955C93.0057 23.4519 96.1754 18.7228 99.5158 14.3417L97.1301 12.5227L94.7445 10.7037C91.2519 15.2845 87.9427 20.2225 84.8888 25.4833L87.4833 26.9894ZM97.1301 12.5227L95.624 15.1172L174.418 60.8571L175.924 58.2625L177.43 55.668L98.6363 9.92819L97.1301 12.5227Z" fill="#1C1C1C" mask="url(#path-4-inside-2_3997_109)"/>
<path d="M73.5416 130.468L85.081 137.167C98.6937 145.069 103.323 162.51 95.4208 176.123L92.0796 181.879L31.2441 146.563L34.5854 140.808C42.4876 127.195 59.9289 122.566 73.5416 130.468Z" fill="#4159F5" stroke="#1C1C1C" stroke-width="3"/>
<mask id="path-7-outside-3_3997_109" maskUnits="userSpaceOnUse" x="81.8603" y="42.9697" width="63.3788" height="63.7416" fill="black">
<rect fill="white" x="81.8603" y="42.9697" width="63.3788" height="63.7416"/>
<path fill-rule="evenodd" clip-rule="evenodd" d="M131.9 61.7894C136.999 64.7489 138.735 71.2772 135.778 76.3705C134.02 79.3991 130.999 81.2383 127.766 81.6097C126.898 81.7095 126.285 82.7648 126.629 83.5684C127.91 86.5597 127.811 90.0954 126.053 93.1239C123.096 98.2173 116.566 99.9471 111.468 96.9875C108.779 95.4265 107.025 92.8728 106.402 90.0605C106.166 88.9935 104.915 88.2673 103.871 88.5911C101.12 89.4446 98.0324 89.1882 95.3434 87.6272C90.2451 84.6677 88.509 78.1394 91.4657 73.0461C93.2238 70.0176 96.2451 68.1783 99.4776 67.8069C100.346 67.7071 100.959 66.6518 100.615 65.8482C99.3341 62.8569 99.433 59.3212 101.191 56.2927C104.148 51.1993 110.678 49.4695 115.776 52.4291C118.724 54.1404 120.548 57.045 120.99 60.1754C121.092 60.8968 121.911 61.3721 122.588 61.1028C125.526 59.9346 128.952 60.078 131.9 61.7894ZM116.127 73.3071C115.891 72.2401 114.64 71.5139 113.596 71.8377C112.704 72.1147 111.776 72.2747 110.837 72.3112C110.281 72.3329 109.903 72.9853 110.16 73.4788C110.722 74.559 111.095 75.7273 111.265 76.9288C111.367 77.6501 112.186 78.1254 112.863 77.8562C113.99 77.4078 115.19 77.1527 116.407 77.1052C116.962 77.0835 117.341 76.4311 117.084 75.9376C116.651 75.1047 116.33 74.2196 116.127 73.3071Z"/>
<path d="M108.254 66.2258C107.433 65.749 106.797 65.1154 106.348 64.3247C105.902 63.5365 105.679 62.6909 105.678 61.7882C105.682 60.8878 105.918 60.0334 106.387 59.2251C106.857 58.4167 107.481 57.7878 108.261 57.3383C109.046 56.8911 109.888 56.6696 110.789 56.6738C111.692 56.674 112.556 56.9136 113.382 57.3927C113.883 57.6839 114.318 58.039 114.686 58.4579C115.058 58.8792 115.349 59.3374 115.56 59.8323C115.598 59.9248 115.597 60.0054 115.557 60.0741C115.527 60.1266 115.476 60.1674 115.405 60.1965L113.676 60.911C113.579 60.9469 113.499 60.946 113.434 60.9084C113.382 60.8779 113.34 60.8292 113.308 60.7623C113.184 60.501 113.024 60.2596 112.828 60.0378C112.635 59.812 112.414 59.6275 112.168 59.4843C111.775 59.2565 111.349 59.147 110.89 59.1558C110.433 59.1606 109.998 59.281 109.585 59.5169C109.176 59.7551 108.847 60.0885 108.599 60.5169C108.35 60.9453 108.224 61.3961 108.219 61.8692C108.219 62.3446 108.329 62.784 108.549 63.1874C108.774 63.5932 109.08 63.9088 109.468 64.1342C109.747 64.2963 110.012 64.404 110.262 64.4574C110.519 64.5091 110.819 64.5185 111.163 64.4856C111.241 64.4821 111.306 64.4957 111.358 64.5262C111.427 64.5661 111.468 64.6357 111.481 64.7349L111.696 66.5864C111.703 66.6769 111.692 66.7464 111.664 66.7949C111.631 66.8514 111.57 66.8864 111.482 66.8996C110.939 66.9682 110.391 66.9474 109.838 66.8373C109.288 66.7232 108.76 66.5193 108.254 66.2258Z"/>
<path d="M97.5983 83.3957C96.8213 82.9446 96.2126 82.4074 95.7724 81.7839C95.3321 81.1605 95.0881 80.4933 95.0405 79.7825C95.0084 79.0676 95.1977 78.3564 95.6084 77.6489L95.7625 77.3835L97.651 78.4798L97.5312 78.6862C97.2117 79.2365 97.1468 79.79 97.3365 80.3468C97.5318 80.8937 97.9443 81.3499 98.5738 81.7154C99.2131 82.0865 99.7933 82.2197 100.314 82.1149C100.845 82.0158 101.245 81.7354 101.513 81.2735L101.599 81.1261C101.781 80.8117 101.851 80.5105 101.807 80.2226C101.764 79.9347 101.635 79.6695 101.421 79.4269C101.213 79.1745 100.941 78.9512 100.607 78.757L98.5411 77.558L99.739 75.4944L104.1 75.6613L104.237 75.4254L99.0142 72.3935L99.9897 70.7132L107.308 74.9613L105.853 77.467L101.782 77.3108L101.645 77.5466L102.191 77.8635C102.653 78.1318 103.046 78.485 103.371 78.9229C103.705 79.3666 103.901 79.8677 103.958 80.4264C104.02 80.9752 103.872 81.5591 103.513 82.1782L103.41 82.3551C103.022 83.0233 102.52 83.5137 101.905 83.8264C101.295 84.1293 100.615 84.2471 99.8654 84.1796C99.1311 84.1081 98.3754 83.8468 97.5983 83.3957Z"/>
<path d="M121.677 73.8386C121.515 73.7447 121.481 73.6169 121.575 73.4552L126.238 65.4224C126.332 65.2607 126.46 65.2268 126.622 65.3208L130.062 67.3181C130.649 67.6587 131.097 68.0837 131.407 68.5933C131.72 69.0988 131.873 69.6446 131.868 70.2308C131.87 70.8152 131.706 71.3904 131.378 71.9562C131.064 72.4978 130.683 72.898 130.235 73.1569C129.959 73.3146 129.665 73.4255 129.352 73.4894C129.019 73.5575 128.739 73.8154 128.718 74.1546L128.518 77.4286C128.514 77.4912 128.501 77.5407 128.48 77.5771C128.452 77.6256 128.41 77.6522 128.353 77.657C128.3 77.6642 128.241 77.649 128.176 77.6114L126.234 76.4842C126.101 76.4067 126.041 76.2908 126.055 76.1367L126.313 73.2065C126.329 73.0254 126.233 72.852 126.076 72.7606L125.76 72.5775C125.448 72.3965 125.049 72.5023 124.868 72.8137L123.76 74.7234C123.666 74.885 123.538 74.9189 123.376 74.825L121.677 73.8386ZM127.568 71.1546C127.754 71.2627 127.95 71.3116 128.156 71.3015C128.362 71.2914 128.554 71.2302 128.733 71.1178C128.912 71.0055 129.054 70.8584 129.16 70.6765C129.345 70.3572 129.394 70.0587 129.306 69.7809C129.221 69.4991 129.043 69.2795 128.772 69.1221L128.019 68.6853C127.708 68.5044 127.308 68.6101 127.128 68.9215L126.596 69.837C126.416 70.1484 126.522 70.5475 126.833 70.7284L127.568 71.1546Z"/>
<path d="M110.139 83.4011C109.777 84.0239 108.979 84.2354 108.355 83.8735C107.732 83.5117 107.52 82.7135 107.881 82.0907C108.243 81.4679 109.041 81.2564 109.664 81.6183C110.288 81.9801 110.5 82.7784 110.139 83.4011Z"/>
<path d="M119.677 66.9699C119.315 67.5927 118.517 67.8042 117.894 67.4423C117.27 67.0805 117.058 66.2822 117.419 65.6595C117.781 65.0367 118.579 64.8252 119.203 65.1871C119.826 65.5489 120.038 66.3471 119.677 66.9699Z"/>
<path d="M114.226 92.9397C113.007 92.2317 112.222 91.3294 111.872 90.233C111.528 89.1268 111.752 87.8907 112.545 86.5248L114.051 83.9306C114.821 82.604 115.775 81.8109 116.912 81.5513C118.054 81.2819 119.236 81.5012 120.455 82.2092C121.685 82.9229 122.461 83.8399 122.784 84.9601C123.122 86.0761 122.906 87.2975 122.136 88.624L120.63 91.2182C119.837 92.5841 118.875 93.392 117.744 93.6418C116.628 93.8874 115.456 93.6534 114.226 92.9397ZM115.202 91.2594C115.939 91.6876 116.597 91.8002 117.175 91.5971C117.763 91.3998 118.274 90.9277 118.708 90.1809L120.299 87.4393C120.738 86.6827 120.873 85.9986 120.702 85.3869C120.546 84.7712 120.139 84.272 119.48 83.8895C118.801 83.4955 118.153 83.3886 117.536 83.5688C116.928 83.7547 116.413 84.2113 115.991 84.9384L114.4 87.68C113.949 88.4563 113.787 89.1438 113.912 89.7424C114.054 90.3369 114.484 90.8425 115.202 91.2594Z"/>
</mask>
<path fill-rule="evenodd" clip-rule="evenodd" d="M131.9 61.7894C136.999 64.7489 138.735 71.2772 135.778 76.3705C134.02 79.3991 130.999 81.2383 127.766 81.6097C126.898 81.7095 126.285 82.7648 126.629 83.5684C127.91 86.5597 127.811 90.0954 126.053 93.1239C123.096 98.2173 116.566 99.9471 111.468 96.9875C108.779 95.4265 107.025 92.8728 106.402 90.0605C106.166 88.9935 104.915 88.2673 103.871 88.5911C101.12 89.4446 98.0324 89.1882 95.3434 87.6272C90.2451 84.6677 88.509 78.1394 91.4657 73.0461C93.2238 70.0176 96.2451 68.1783 99.4776 67.8069C100.346 67.7071 100.959 66.6518 100.615 65.8482C99.3341 62.8569 99.433 59.3212 101.191 56.2927C104.148 51.1993 110.678 49.4695 115.776 52.4291C118.724 54.1404 120.548 57.045 120.99 60.1754C121.092 60.8968 121.911 61.3721 122.588 61.1028C125.526 59.9346 128.952 60.078 131.9 61.7894ZM116.127 73.3071C115.891 72.2401 114.64 71.5139 113.596 71.8377C112.704 72.1147 111.776 72.2747 110.837 72.3112C110.281 72.3329 109.903 72.9853 110.16 73.4788C110.722 74.559 111.095 75.7273 111.265 76.9288C111.367 77.6501 112.186 78.1254 112.863 77.8562C113.99 77.4078 115.19 77.1527 116.407 77.1052C116.962 77.0835 117.341 76.4311 117.084 75.9376C116.651 75.1047 116.33 74.2196 116.127 73.3071Z" fill="white"/>
<path d="M108.254 66.2258C107.433 65.749 106.797 65.1154 106.348 64.3247C105.902 63.5365 105.679 62.6909 105.678 61.7882C105.682 60.8878 105.918 60.0334 106.387 59.2251C106.857 58.4167 107.481 57.7878 108.261 57.3383C109.046 56.8911 109.888 56.6696 110.789 56.6738C111.692 56.674 112.556 56.9136 113.382 57.3927C113.883 57.6839 114.318 58.039 114.686 58.4579C115.058 58.8792 115.349 59.3374 115.56 59.8323C115.598 59.9248 115.597 60.0054 115.557 60.0741C115.527 60.1266 115.476 60.1674 115.405 60.1965L113.676 60.911C113.579 60.9469 113.499 60.946 113.434 60.9084C113.382 60.8779 113.34 60.8292 113.308 60.7623C113.184 60.501 113.024 60.2596 112.828 60.0378C112.635 59.812 112.414 59.6275 112.168 59.4843C111.775 59.2565 111.349 59.147 110.89 59.1558C110.433 59.1606 109.998 59.281 109.585 59.5169C109.176 59.7551 108.847 60.0885 108.599 60.5169C108.35 60.9453 108.224 61.3961 108.219 61.8692C108.219 62.3446 108.329 62.784 108.549 63.1874C108.774 63.5932 109.08 63.9088 109.468 64.1342C109.747 64.2963 110.012 64.404 110.262 64.4574C110.519 64.5091 110.819 64.5185 111.163 64.4856C111.241 64.4821 111.306 64.4957 111.358 64.5262C111.427 64.5661 111.468 64.6357 111.481 64.7349L111.696 66.5864C111.703 66.6769 111.692 66.7464 111.664 66.7949C111.631 66.8514 111.57 66.8864 111.482 66.8996C110.939 66.9682 110.391 66.9474 109.838 66.8373C109.288 66.7232 108.76 66.5193 108.254 66.2258Z" fill="#1C1C1C"/>
<path d="M97.5983 83.3957C96.8213 82.9446 96.2126 82.4074 95.7724 81.7839C95.3321 81.1605 95.0881 80.4933 95.0405 79.7825C95.0084 79.0676 95.1977 78.3564 95.6084 77.6489L95.7625 77.3835L97.651 78.4798L97.5312 78.6862C97.2117 79.2365 97.1468 79.79 97.3365 80.3468C97.5318 80.8937 97.9443 81.3499 98.5738 81.7154C99.2131 82.0865 99.7933 82.2197 100.314 82.1149C100.845 82.0158 101.245 81.7354 101.513 81.2735L101.599 81.1261C101.781 80.8117 101.851 80.5105 101.807 80.2226C101.764 79.9347 101.635 79.6695 101.421 79.4269C101.213 79.1745 100.941 78.9512 100.607 78.757L98.5411 77.558L99.739 75.4944L104.1 75.6613L104.237 75.4254L99.0142 72.3935L99.9897 70.7132L107.308 74.9613L105.853 77.467L101.782 77.3108L101.645 77.5466L102.191 77.8635C102.653 78.1318 103.046 78.485 103.371 78.9229C103.705 79.3666 103.901 79.8677 103.958 80.4264C104.02 80.9752 103.872 81.5591 103.513 82.1782L103.41 82.3551C103.022 83.0233 102.52 83.5137 101.905 83.8264C101.295 84.1293 100.615 84.2471 99.8654 84.1796C99.1311 84.1081 98.3754 83.8468 97.5983 83.3957Z" fill="#1C1C1C"/>
<path d="M121.677 73.8386C121.515 73.7447 121.481 73.6169 121.575 73.4552L126.238 65.4224C126.332 65.2607 126.46 65.2268 126.622 65.3208L130.062 67.3181C130.649 67.6587 131.097 68.0837 131.407 68.5933C131.72 69.0988 131.873 69.6446 131.868 70.2308C131.87 70.8152 131.706 71.3904 131.378 71.9562C131.064 72.4978 130.683 72.898 130.235 73.1569C129.959 73.3146 129.665 73.4255 129.352 73.4894C129.019 73.5575 128.739 73.8154 128.718 74.1546L128.518 77.4286C128.514 77.4912 128.501 77.5407 128.48 77.5771C128.452 77.6256 128.41 77.6522 128.353 77.657C128.3 77.6642 128.241 77.649 128.176 77.6114L126.234 76.4842C126.101 76.4067 126.041 76.2908 126.055 76.1367L126.313 73.2065C126.329 73.0254 126.233 72.852 126.076 72.7606L125.76 72.5775C125.448 72.3965 125.049 72.5023 124.868 72.8137L123.76 74.7234C123.666 74.885 123.538 74.9189 123.376 74.825L121.677 73.8386ZM127.568 71.1546C127.754 71.2627 127.95 71.3116 128.156 71.3015C128.362 71.2914 128.554 71.2302 128.733 71.1178C128.912 71.0055 129.054 70.8584 129.16 70.6765C129.345 70.3572 129.394 70.0587 129.306 69.7809C129.221 69.4991 129.043 69.2795 128.772 69.1221L128.019 68.6853C127.708 68.5044 127.308 68.6101 127.128 68.9215L126.596 69.837C126.416 70.1484 126.522 70.5475 126.833 70.7284L127.568 71.1546Z" fill="#1C1C1C"/>
<path d="M110.139 83.4011C109.777 84.0239 108.979 84.2354 108.355 83.8735C107.732 83.5117 107.52 82.7135 107.881 82.0907C108.243 81.4679 109.041 81.2564 109.664 81.6183C110.288 81.9801 110.5 82.7784 110.139 83.4011Z" fill="#4159F5"/>
<path d="M119.677 66.9699C119.315 67.5927 118.517 67.8042 117.894 67.4423C117.27 67.0805 117.058 66.2822 117.419 65.6595C117.781 65.0367 118.579 64.8252 119.203 65.1871C119.826 65.5489 120.038 66.3471 119.677 66.9699Z" fill="#BCFF06"/>
<path d="M114.226 92.9397C113.007 92.2317 112.222 91.3294 111.872 90.233C111.528 89.1268 111.752 87.8907 112.545 86.5248L114.051 83.9306C114.821 82.604 115.775 81.8109 116.912 81.5513C118.054 81.2819 119.236 81.5012 120.455 82.2092C121.685 82.9229 122.461 83.8399 122.784 84.9601C123.122 86.0761 122.906 87.2975 122.136 88.624L120.63 91.2182C119.837 92.5841 118.875 93.392 117.744 93.6418C116.628 93.8874 115.456 93.6534 114.226 92.9397ZM115.202 91.2594C115.939 91.6876 116.597 91.8002 117.175 91.5971C117.763 91.3998 118.274 90.9277 118.708 90.1809L120.299 87.4393C120.738 86.6827 120.873 85.9986 120.702 85.3869C120.546 84.7712 120.139 84.272 119.48 83.8895C118.801 83.4955 118.153 83.3886 117.536 83.5688C116.928 83.7547 116.413 84.2113 115.991 84.9384L114.4 87.68C113.949 88.4563 113.787 89.1438 113.912 89.7424C114.054 90.3369 114.484 90.8425 115.202 91.2594Z" fill="#1C1C1C"/>
<path fill-rule="evenodd" clip-rule="evenodd" d="M131.9 61.7894C136.999 64.7489 138.735 71.2772 135.778 76.3705C134.02 79.3991 130.999 81.2383 127.766 81.6097C126.898 81.7095 126.285 82.7648 126.629 83.5684C127.91 86.5597 127.811 90.0954 126.053 93.1239C123.096 98.2173 116.566 99.9471 111.468 96.9875C108.779 95.4265 107.025 92.8728 106.402 90.0605C106.166 88.9935 104.915 88.2673 103.871 88.5911C101.12 89.4446 98.0324 89.1882 95.3434 87.6272C90.2451 84.6677 88.509 78.1394 91.4657 73.0461C93.2238 70.0176 96.2451 68.1783 99.4776 67.8069C100.346 67.7071 100.959 66.6518 100.615 65.8482C99.3341 62.8569 99.433 59.3212 101.191 56.2927C104.148 51.1993 110.678 49.4695 115.776 52.4291C118.724 54.1404 120.548 57.045 120.99 60.1754C121.092 60.8968 121.911 61.3721 122.588 61.1028C125.526 59.9346 128.952 60.078 131.9 61.7894ZM116.127 73.3071C115.891 72.2401 114.64 71.5139 113.596 71.8377C112.704 72.1147 111.776 72.2747 110.837 72.3112C110.281 72.3329 109.903 72.9853 110.16 73.4788C110.722 74.559 111.095 75.7273 111.265 76.9288C111.367 77.6501 112.186 78.1254 112.863 77.8562C113.99 77.4078 115.19 77.1527 116.407 77.1052C116.962 77.0835 117.341 76.4311 117.084 75.9376C116.651 75.1047 116.33 74.2196 116.127 73.3071Z" stroke="#1C1C1C" stroke-width="6" mask="url(#path-7-outside-3_3997_109)"/>
<path d="M108.254 66.2258C107.433 65.749 106.797 65.1154 106.348 64.3247C105.902 63.5365 105.679 62.6909 105.678 61.7882C105.682 60.8878 105.918 60.0334 106.387 59.2251C106.857 58.4167 107.481 57.7878 108.261 57.3383C109.046 56.8911 109.888 56.6696 110.789 56.6738C111.692 56.674 112.556 56.9136 113.382 57.3927C113.883 57.6839 114.318 58.039 114.686 58.4579C115.058 58.8792 115.349 59.3374 115.56 59.8323C115.598 59.9248 115.597 60.0054 115.557 60.0741C115.527 60.1266 115.476 60.1674 115.405 60.1965L113.676 60.911C113.579 60.9469 113.499 60.946 113.434 60.9084C113.382 60.8779 113.34 60.8292 113.308 60.7623C113.184 60.501 113.024 60.2596 112.828 60.0378C112.635 59.812 112.414 59.6275 112.168 59.4843C111.775 59.2565 111.349 59.147 110.89 59.1558C110.433 59.1606 109.998 59.281 109.585 59.5169C109.176 59.7551 108.847 60.0885 108.599 60.5169C108.35 60.9453 108.224 61.3961 108.219 61.8692C108.219 62.3446 108.329 62.784 108.549 63.1874C108.774 63.5932 109.08 63.9088 109.468 64.1342C109.747 64.2963 110.012 64.404 110.262 64.4574C110.519 64.5091 110.819 64.5185 111.163 64.4856C111.241 64.4821 111.306 64.4957 111.358 64.5262C111.427 64.5661 111.468 64.6357 111.481 64.7349L111.696 66.5864C111.703 66.6769 111.692 66.7464 111.664 66.7949C111.631 66.8514 111.57 66.8864 111.482 66.8996C110.939 66.9682 110.391 66.9474 109.838 66.8373C109.288 66.7232 108.76 66.5193 108.254 66.2258Z" stroke="#1C1C1C" stroke-width="6" mask="url(#path-7-outside-3_3997_109)"/>
<path d="M97.5983 83.3957C96.8213 82.9446 96.2126 82.4074 95.7724 81.7839C95.3321 81.1605 95.0881 80.4933 95.0405 79.7825C95.0084 79.0676 95.1977 78.3564 95.6084 77.6489L95.7625 77.3835L97.651 78.4798L97.5312 78.6862C97.2117 79.2365 97.1468 79.79 97.3365 80.3468C97.5318 80.8937 97.9443 81.3499 98.5738 81.7154C99.2131 82.0865 99.7933 82.2197 100.314 82.1149C100.845 82.0158 101.245 81.7354 101.513 81.2735L101.599 81.1261C101.781 80.8117 101.851 80.5105 101.807 80.2226C101.764 79.9347 101.635 79.6695 101.421 79.4269C101.213 79.1745 100.941 78.9512 100.607 78.757L98.5411 77.558L99.739 75.4944L104.1 75.6613L104.237 75.4254L99.0142 72.3935L99.9897 70.7132L107.308 74.9613L105.853 77.467L101.782 77.3108L101.645 77.5466L102.191 77.8635C102.653 78.1318 103.046 78.485 103.371 78.9229C103.705 79.3666 103.901 79.8677 103.958 80.4264C104.02 80.9752 103.872 81.5591 103.513 82.1782L103.41 82.3551C103.022 83.0233 102.52 83.5137 101.905 83.8264C101.295 84.1293 100.615 84.2471 99.8654 84.1796C99.1311 84.1081 98.3754 83.8468 97.5983 83.3957Z" stroke="#1C1C1C" stroke-width="6" mask="url(#path-7-outside-3_3997_109)"/>
<path d="M121.677 73.8386C121.515 73.7447 121.481 73.6169 121.575 73.4552L126.238 65.4224C126.332 65.2607 126.46 65.2268 126.622 65.3208L130.062 67.3181C130.649 67.6587 131.097 68.0837 131.407 68.5933C131.72 69.0988 131.873 69.6446 131.868 70.2308C131.87 70.8152 131.706 71.3904 131.378 71.9562C131.064 72.4978 130.683 72.898 130.235 73.1569C129.959 73.3146 129.665 73.4255 129.352 73.4894C129.019 73.5575 128.739 73.8154 128.718 74.1546L128.518 77.4286C128.514 77.4912 128.501 77.5407 128.48 77.5771C128.452 77.6256 128.41 77.6522 128.353 77.657C128.3 77.6642 128.241 77.649 128.176 77.6114L126.234 76.4842C126.101 76.4067 126.041 76.2908 126.055 76.1367L126.313 73.2065C126.329 73.0254 126.233 72.852 126.076 72.7606L125.76 72.5775C125.448 72.3965 125.049 72.5023 124.868 72.8137L123.76 74.7234C123.666 74.885 123.538 74.9189 123.376 74.825L121.677 73.8386ZM127.568 71.1546C127.754 71.2627 127.95 71.3116 128.156 71.3015C128.362 71.2914 128.554 71.2302 128.733 71.1178C128.912 71.0055 129.054 70.8584 129.16 70.6765C129.345 70.3572 129.394 70.0587 129.306 69.7809C129.221 69.4991 129.043 69.2795 128.772 69.1221L128.019 68.6853C127.708 68.5044 127.308 68.6101 127.128 68.9215L126.596 69.837C126.416 70.1484 126.522 70.5475 126.833 70.7284L127.568 71.1546Z" stroke="#1C1C1C" stroke-width="6" mask="url(#path-7-outside-3_3997_109)"/>
<path d="M110.139 83.4011C109.777 84.0239 108.979 84.2354 108.355 83.8735C107.732 83.5117 107.52 82.7135 107.881 82.0907C108.243 81.4679 109.041 81.2564 109.664 81.6183C110.288 81.9801 110.5 82.7784 110.139 83.4011Z" stroke="#1C1C1C" stroke-width="6" mask="url(#path-7-outside-3_3997_109)"/>
<path d="M119.677 66.9699C119.315 67.5927 118.517 67.8042 117.894 67.4423C117.27 67.0805 117.058 66.2822 117.419 65.6595C117.781 65.0367 118.579 64.8252 119.203 65.1871C119.826 65.5489 120.038 66.3471 119.677 66.9699Z" stroke="#1C1C1C" stroke-width="6" mask="url(#path-7-outside-3_3997_109)"/>
<path d="M114.226 92.9397C113.007 92.2317 112.222 91.3294 111.872 90.233C111.528 89.1268 111.752 87.8907 112.545 86.5248L114.051 83.9306C114.821 82.604 115.775 81.8109 116.912 81.5513C118.054 81.2819 119.236 81.5012 120.455 82.2092C121.685 82.9229 122.461 83.8399 122.784 84.9601C123.122 86.0761 122.906 87.2975 122.136 88.624L120.63 91.2182C119.837 92.5841 118.875 93.392 117.744 93.6418C116.628 93.8874 115.456 93.6534 114.226 92.9397ZM115.202 91.2594C115.939 91.6876 116.597 91.8002 117.175 91.5971C117.763 91.3998 118.274 90.9277 118.708 90.1809L120.299 87.4393C120.738 86.6827 120.873 85.9986 120.702 85.3869C120.546 84.7712 120.139 84.272 119.48 83.8895C118.801 83.4955 118.153 83.3886 117.536 83.5688C116.928 83.7547 116.413 84.2113 115.991 84.9384L114.4 87.68C113.949 88.4563 113.787 89.1438 113.912 89.7424C114.054 90.3369 114.484 90.8425 115.202 91.2594Z" stroke="#1C1C1C" stroke-width="6" mask="url(#path-7-outside-3_3997_109)"/>
<path d="M76.0052 139.654C82.3603 143.343 87.4139 147.794 90.4603 151.968C91.9843 154.056 92.9772 156.035 93.4048 157.783C93.8306 159.524 93.6837 160.971 93.0262 162.104C92.3686 163.236 91.1845 164.082 89.4615 164.576C87.7319 165.071 85.5207 165.19 82.9518 164.903C77.8165 164.327 71.4452 162.146 65.0902 158.457C58.7352 154.768 53.6823 150.317 50.6359 146.143C49.1117 144.055 48.1181 142.075 47.6906 140.328C47.2647 138.587 47.412 137.139 48.0696 136.006C48.7273 134.873 49.9111 134.028 51.6339 133.535C53.3635 133.039 55.5753 132.92 58.1444 133.208C63.2796 133.784 69.6502 135.965 76.0052 139.654Z" fill="white" stroke="#1C1C1C" stroke-width="2"/>
</svg>
