<svg width="148" height="169" viewBox="0 0 148 169" fill="none" xmlns="http://www.w3.org/2000/svg">
<path d="M145.47 120.314L142.447 123.023C137.72 127.257 137.732 134.201 142.447 138.421L145.222 140.905C144.319 143.932 143.035 146.834 141.4 149.544L137.859 149.365C131.52 149.044 126.576 153.945 126.899 160.246L126.899 160.247L127.056 163.288C124.131 164.89 121.005 166.102 117.759 166.893L115.832 164.776L115.831 164.775C111.568 160.097 104.589 160.111 100.34 164.775L100.34 164.776L98.6228 166.663C95.2961 165.767 92.1086 164.426 89.1472 162.678L89.2722 160.247L89.2839 159.951C89.4375 153.972 84.8404 149.353 78.9021 149.351L78.3132 149.365L75.8455 149.489C74.085 146.558 72.7341 143.405 71.8308 140.114L73.7244 138.421L73.7244 138.42C78.4506 134.187 78.4386 127.243 73.7234 123.023L71.5994 121.122C72.3964 117.911 73.617 114.819 75.2292 111.924L78.3132 112.081C84.6512 112.402 89.5959 107.5 89.2722 101.199L89.0925 97.7041C91.8315 96.0796 94.7657 94.803 97.8269 93.9062L100.342 96.667L100.341 96.668C104.6 101.349 111.583 101.336 115.832 96.667L118.569 93.6602C121.547 94.4547 124.416 95.6057 127.113 97.0879L126.9 101.199C126.575 107.519 131.54 112.4 137.859 112.081L137.86 112.081L142.02 111.868C143.511 114.535 144.67 117.371 145.47 120.314ZM126.656 130.175C126.656 120.289 118.577 112.296 108.638 112.296C98.6996 112.296 90.6219 120.289 90.6218 130.175C90.6218 140.061 98.6996 148.054 108.638 148.054C118.577 148.054 126.656 140.061 126.656 130.175Z" fill="#BCFF06" stroke="white" stroke-width="3"/>
<path d="M32.1546 70.5013L32.1547 70.4992C31.2752 67.2341 29.7734 65.5444 27.7894 65.4078C26.9203 65.3481 26.1937 65.6256 25.7331 65.8658C25.4951 65.99 25.3028 66.1173 25.1665 66.2164C25.0978 66.2664 25.0413 66.3102 24.9986 66.345C24.9773 66.3624 24.959 66.3778 24.9443 66.3903C24.9424 66.3919 24.9401 66.3933 24.9383 66.3948C24.2458 66.9835 23.4318 67.4123 22.5539 67.6478C19.3031 68.5171 15.9683 66.5897 15.1001 63.3432L15.0712 63.2352C14.2694 60.0202 16.1873 56.746 19.4006 55.8849L19.4041 55.8846C20.2731 55.6498 21.1834 55.6125 22.0686 55.7755L22.0716 55.7761C22.0789 55.7775 22.0877 55.7789 22.0971 55.7807C22.1161 55.7842 22.1398 55.7884 22.1669 55.7928C22.2213 55.8015 22.2921 55.8113 22.3765 55.8202C22.5443 55.8379 22.7743 55.8521 23.0425 55.8405C23.5618 55.8181 24.3297 55.6946 25.0528 55.2082C26.7028 54.0982 27.1611 51.884 26.2921 48.6144L26.2914 48.6117L22.1841 33.2883L34.5495 29.9743C37.4617 29.1956 37.9037 29.9808 37.9044 29.9818C37.9733 30.0839 38.0204 30.2446 38.0291 30.4474C38.0331 30.5397 38.0277 30.6188 38.0223 30.6701C38.02 30.6921 38.0181 30.7076 38.017 30.7144L38.0144 30.7287C37.7981 31.8938 37.8128 33.0884 38.0558 34.2449L38.1737 34.7381C39.457 39.5301 44.3398 42.3924 49.1349 41.2019L49.16 41.1994L49.3041 41.1608C54.1468 39.8632 57.0232 34.8831 55.7273 30.0374L55.7278 30.0366C55.3684 28.6781 54.7112 27.4799 53.8633 26.4827L53.8522 26.4707C53.8478 26.4652 53.839 26.4529 53.8263 26.4355C53.7961 26.3937 53.7517 26.328 53.7091 26.246C53.6158 26.0663 53.5764 25.904 53.5852 25.7809C53.5854 25.7782 53.5787 24.8765 56.4895 24.0962L69.1791 20.6953L73.2785 35.9973C74.1578 39.2777 75.6598 40.9754 77.647 41.1164C78.5185 41.1782 79.2476 40.9014 79.7097 40.6609C79.9482 40.5367 80.1409 40.4092 80.2776 40.31C80.3465 40.2599 80.4031 40.2154 80.446 40.1805C80.4673 40.1631 80.4856 40.1478 80.5003 40.1352C80.5036 40.1324 80.5066 40.1296 80.5095 40.127C81.1973 39.5384 82.0093 39.1124 82.8844 38.8809L82.8897 38.8794C86.1345 38.0068 89.472 39.9345 90.3418 43.183L90.3518 43.2204C91.1966 46.455 89.2741 49.7689 86.0394 50.6369L86.0372 50.6368C85.1657 50.8716 84.2529 50.91 83.3652 50.7472C83.3579 50.7458 83.3495 50.7435 83.3402 50.7418C83.3211 50.7382 83.2977 50.7341 83.2705 50.7297C83.2159 50.7209 83.1447 50.7106 83.0599 50.7018C82.8919 50.6842 82.6613 50.6701 82.3926 50.6818C81.8722 50.7046 81.1025 50.8296 80.3786 51.3187C78.7277 52.4342 78.2751 54.6554 79.154 57.9358L83.2959 73.3907L70.606 76.7903L70.6063 76.7916C67.7071 77.568 67.2548 76.7924 67.2501 76.7844C67.1811 76.6823 67.1342 76.5215 67.1254 76.3189C67.1213 76.2265 67.1268 76.1474 67.1322 76.0961C67.134 76.0784 67.1355 76.0651 67.1367 76.057C67.1372 76.0546 67.1377 76.0524 67.1379 76.051L67.1394 76.0406C67.3817 74.7451 67.3433 73.3792 66.9821 72.0278L66.9818 72.0265C65.6813 67.1801 60.7002 64.3043 55.8529 65.6012L55.6181 65.6641L55.5989 65.6778C50.9054 67.0787 48.1495 71.969 49.4262 76.7305C49.7755 78.0392 50.4138 79.2531 51.2938 80.2828L51.3012 80.2916C51.3049 80.2961 51.3154 80.3087 51.3296 80.3283C51.36 80.3701 51.4036 80.4365 51.4464 80.5186C51.5402 80.6987 51.5798 80.8612 51.5711 80.9842C51.5709 81.0059 51.5469 81.8957 48.6691 82.6668L36.3029 85.9803L32.1546 70.5013ZM51.3106 80.3026L51.3089 80.3016L51.3135 80.3054C51.3127 80.3045 51.3113 80.3034 51.3106 80.3026Z" fill="#4159F5" stroke="white" stroke-width="3"/>
</svg>
