<svg width="43" height="44" viewBox="0 0 43 44" fill="none" xmlns="http://www.w3.org/2000/svg">
<path d="M35.5959 18.2306C35.5959 28.9094 21.3575 39.5881 21.3575 39.5881C21.3575 39.5881 7.11914 28.9094 7.11914 18.2306C7.11914 14.4543 8.61925 10.8327 11.2895 8.16251C13.9597 5.4923 17.5813 3.99219 21.3575 3.99219C25.1338 3.99219 28.7554 5.4923 31.4256 8.16251C34.0958 10.8327 35.5959 14.4543 35.5959 18.2306Z" stroke="white" stroke-width="3.5596" stroke-linecap="round" stroke-linejoin="round"/>
<path d="M21.3576 23.5694C24.3064 23.5694 26.697 21.1789 26.697 18.23C26.697 15.2812 24.3064 12.8906 21.3576 12.8906C18.4087 12.8906 16.0182 15.2812 16.0182 18.23C16.0182 21.1789 18.4087 23.5694 21.3576 23.5694Z" stroke="white" stroke-width="3.5596" stroke-linecap="round" stroke-linejoin="round"/>
<path d="M35.5959 18.2306C35.5959 28.9094 21.3575 39.5881 21.3575 39.5881C21.3575 39.5881 7.11914 28.9094 7.11914 18.2306C7.11914 14.4543 8.61925 10.8327 11.2895 8.16251C13.9597 5.4923 17.5813 3.99219 21.3575 3.99219C25.1338 3.99219 28.7554 5.4923 31.4256 8.16251C34.0958 10.8327 35.5959 14.4543 35.5959 18.2306Z" stroke="#BCFF06" stroke-width="3.5596" stroke-linecap="round" stroke-linejoin="round"/>
<path d="M21.3576 23.5694C24.3064 23.5694 26.697 21.1789 26.697 18.23C26.697 15.2812 24.3064 12.8906 21.3576 12.8906C18.4087 12.8906 16.0182 15.2812 16.0182 18.23C16.0182 21.1789 18.4087 23.5694 21.3576 23.5694Z" stroke="#BCFF06" stroke-width="3.5596" stroke-linecap="round" stroke-linejoin="round"/>
</svg>
