<svg width="43" height="43" viewBox="0 0 43 43" fill="none" xmlns="http://www.w3.org/2000/svg">
<path d="M35.5959 7.11719H7.11917C5.15326 7.11719 3.55957 8.71087 3.55957 10.6768V32.0344C3.55957 34.0003 5.15326 35.594 7.11917 35.594H35.5959C37.5618 35.594 39.1555 34.0003 39.1555 32.0344V10.6768C39.1555 8.71087 37.5618 7.11719 35.5959 7.11719Z" stroke="#BCFF06" stroke-width="3.5596" stroke-linecap="round" stroke-linejoin="round"/>
<path d="M39.1555 12.457L23.1907 22.6019C22.6413 22.9461 22.006 23.1287 21.3575 23.1287C20.7091 23.1287 20.0738 22.9461 19.5244 22.6019L3.55957 12.457" stroke="#BCFF06" stroke-width="3.5596" stroke-linecap="round" stroke-linejoin="round"/>
<path d="M35.5959 7.11719H7.11917C5.15326 7.11719 3.55957 8.71087 3.55957 10.6768V32.0344C3.55957 34.0003 5.15326 35.594 7.11917 35.594H35.5959C37.5618 35.594 39.1555 34.0003 39.1555 32.0344V10.6768C39.1555 8.71087 37.5618 7.11719 35.5959 7.11719Z" stroke="#BCFF06" stroke-width="3.5596" stroke-linecap="round" stroke-linejoin="round"/>
<path d="M39.1555 12.457L23.1907 22.6019C22.6413 22.9461 22.006 23.1287 21.3575 23.1287C20.7091 23.1287 20.0738 22.9461 19.5244 22.6019L3.55957 12.457" stroke="#BCFF06" stroke-width="3.5596" stroke-linecap="round" stroke-linejoin="round"/>
</svg>
