<svg width="43" height="44" viewBox="0 0 43 44" fill="none" xmlns="http://www.w3.org/2000/svg">
<path d="M39.1564 30.8282V36.1676C39.1584 36.6633 39.0568 37.1539 38.8583 37.6081C38.6597 38.0622 38.3684 38.4699 38.0032 38.805C37.6379 39.1401 37.2067 39.3952 36.7372 39.554C36.2676 39.7128 35.7701 39.7718 35.2764 39.7272C29.7997 39.1321 24.5389 37.2606 19.9167 34.2632C15.6164 31.5306 11.9705 27.8847 9.23795 23.5844C6.23005 18.9413 4.35817 13.6549 3.77397 8.15357C3.72949 7.6614 3.78798 7.16536 3.94572 6.69703C4.10345 6.2287 4.35698 5.79834 4.69015 5.43336C5.02332 5.06838 5.42883 4.77678 5.88088 4.5771C6.33292 4.37743 6.82159 4.27408 7.31577 4.27361H12.6552C13.5189 4.26511 14.3563 4.57098 15.0112 5.1342C15.6661 5.69742 16.0939 6.47957 16.2148 7.33486C16.4401 9.04359 16.8581 10.7213 17.4606 12.3361C17.7001 12.9731 17.7519 13.6655 17.61 14.331C17.468 14.9966 17.1382 15.6076 16.6597 16.0915L14.3994 18.3518C16.933 22.8076 20.6223 26.497 25.0781 29.0306L27.3385 26.7703C27.8224 26.2917 28.4333 25.962 29.0989 25.82C29.7645 25.6781 30.4568 25.7299 31.0939 25.9693C32.7086 26.5719 34.3864 26.9898 36.0951 27.2152C36.9597 27.3372 37.7492 27.7727 38.3137 28.4388C38.8781 29.105 39.178 29.9553 39.1564 30.8282Z" stroke="white" stroke-width="3.5596" stroke-linecap="round" stroke-linejoin="round"/>
<path d="M39.1564 30.8282V36.1676C39.1584 36.6633 39.0568 37.1539 38.8583 37.6081C38.6597 38.0622 38.3684 38.4699 38.0032 38.805C37.6379 39.1401 37.2067 39.3952 36.7372 39.554C36.2676 39.7128 35.7701 39.7718 35.2764 39.7272C29.7997 39.1321 24.5389 37.2606 19.9167 34.2632C15.6164 31.5306 11.9705 27.8847 9.23795 23.5844C6.23005 18.9413 4.35817 13.6549 3.77397 8.15357C3.72949 7.6614 3.78798 7.16536 3.94572 6.69703C4.10345 6.2287 4.35698 5.79834 4.69015 5.43336C5.02332 5.06838 5.42883 4.77678 5.88088 4.5771C6.33292 4.37743 6.82159 4.27408 7.31577 4.27361H12.6552C13.5189 4.26511 14.3563 4.57098 15.0112 5.1342C15.6661 5.69742 16.0939 6.47957 16.2148 7.33486C16.4401 9.04359 16.8581 10.7213 17.4606 12.3361C17.7001 12.9731 17.7519 13.6655 17.61 14.331C17.468 14.9966 17.1382 15.6076 16.6597 16.0915L14.3994 18.3518C16.933 22.8076 20.6223 26.497 25.0781 29.0306L27.3385 26.7703C27.8224 26.2917 28.4333 25.962 29.0989 25.82C29.7645 25.6781 30.4568 25.7299 31.0939 25.9693C32.7086 26.5719 34.3864 26.9898 36.0951 27.2152C36.9597 27.3372 37.7492 27.7727 38.3137 28.4388C38.8781 29.105 39.178 29.9553 39.1564 30.8282Z" stroke="#BCFF06" stroke-width="3.5596" stroke-linecap="round" stroke-linejoin="round"/>
</svg>
