<svg width="136" height="86" viewBox="0 0 136 86" fill="none" xmlns="http://www.w3.org/2000/svg">
<path d="M104.979 85.5825C98.9491 85.5825 93.5853 84.4862 88.887 82.2937C84.1888 80.1012 80.5085 76.9299 77.8461 72.7797C75.2621 68.6296 73.9701 63.6964 73.9701 57.9802C73.9701 56.8126 74.9166 55.866 76.0843 55.866H84.4237C85.4616 55.866 86.303 56.7074 86.303 57.7453C86.303 62.9134 87.9865 67.0244 91.3536 70.0782C94.799 73.0538 99.3407 74.5416 104.979 74.5416C110.616 74.5416 115.002 73.1321 118.134 70.3132C121.266 67.4942 122.832 63.9314 122.832 59.6246V58.5675C122.832 55.5137 122.088 53.0471 120.6 51.1678C119.112 49.2885 117.116 47.9181 114.61 47.0568C112.104 46.1171 109.285 45.6473 106.153 45.6473H100.281C95.2855 45.6473 91.2362 41.5979 91.2362 36.6028C91.2362 33.4006 92.9294 30.437 95.688 28.811L119.615 14.7075C119.935 14.5194 120.13 14.1765 120.13 13.806C120.13 13.228 119.662 12.7595 119.084 12.7595H81.4873C78.4384 12.7595 75.9668 10.2879 75.9668 7.23906C75.9668 4.1902 78.4384 1.71861 81.4873 1.71861H122.885C128.759 1.71861 133.52 6.48016 133.52 12.3538C133.52 16.1015 131.548 19.5725 128.328 21.4906L106.43 34.5364C106.113 34.7255 105.918 35.0677 105.918 35.4372C105.918 36.0163 106.388 36.4857 106.967 36.4857H110.969C115.119 36.4857 119.034 37.2688 122.714 38.8348C126.395 40.4009 129.37 42.7892 131.641 45.9997C133.99 49.2102 135.165 53.282 135.165 58.2152V59.6246C135.165 64.871 133.912 69.4518 131.406 73.367C128.901 77.2039 125.377 80.2187 120.835 82.4112C116.294 84.5254 111.008 85.5825 104.979 85.5825Z" fill="#BCFF06"/>
<path d="M31.4361 85.5825C21.8829 85.5825 14.2483 82.881 8.53206 77.478C2.89415 71.9967 0.0751953 63.7748 0.0751953 52.8122V32.8446C0.0751953 22.1169 2.89415 13.9732 8.53206 8.41363C14.2483 2.85402 21.8829 0.0742188 31.4361 0.0742188C41.0675 0.0742188 48.7022 2.85402 54.3401 8.41363C60.0563 13.9732 62.9144 22.1169 62.9144 32.8446V52.8122C62.9144 63.7748 60.0563 71.9967 54.3401 77.478C48.7022 82.881 41.0675 85.5825 31.4361 85.5825ZM31.4361 74.5416C37.9353 74.5416 42.751 72.7014 45.8832 69.0211C49.0154 65.2625 50.5815 60.0161 50.5815 53.282V32.1398C50.5815 25.4057 48.8979 20.2376 45.5308 16.6356C42.1638 12.9553 37.4655 11.1151 31.4361 11.1151C25.3283 11.1151 20.6301 12.9944 17.3413 16.753C14.0525 20.4333 12.4081 25.5623 12.4081 32.1398V53.282C12.4081 60.1728 13.9742 65.4583 17.1064 69.1386C20.3169 72.7406 25.0934 74.5416 31.4361 74.5416Z" fill="#BCFF06"/>
</svg>
